<?xml version="1.0" encoding="utf-8" standalone="no"?>
<!DOCTYPE svg PUBLIC "-//W3C//DTD SVG 1.1//EN"
  "http://www.w3.org/Graphics/SVG/1.1/DTD/svg11.dtd">
<svg xmlns:xlink="http://www.w3.org/1999/xlink" width="633.6pt" height="374.4pt" viewBox="0 0 633.6 374.4" xmlns="http://www.w3.org/2000/svg" version="1.1">
 <metadata>
  <rdf:RDF xmlns:dc="http://purl.org/dc/elements/1.1/" xmlns:cc="http://creativecommons.org/ns#" xmlns:rdf="http://www.w3.org/1999/02/22-rdf-syntax-ns#">
   <cc:Work>
    <dc:type rdf:resource="http://purl.org/dc/dcmitype/StillImage"/>
    <dc:date>2026-07-28T08:07:50.898498</dc:date>
    <dc:format>image/svg+xml</dc:format>
    <dc:creator>
     <cc:Agent>
      <dc:title>Matplotlib v3.8.4, https://matplotlib.org/</dc:title>
     </cc:Agent>
    </dc:creator>
   </cc:Work>
  </rdf:RDF>
 </metadata>
 <defs>
  <style type="text/css">*{stroke-linejoin: round; stroke-linecap: butt}</style>
 </defs>
 <g id="figure_1">
  <g id="patch_1">
   <path d="M 0 374.4 
L 633.6 374.4 
L 633.6 0 
L 0 0 
z
" style="fill: #ffffff"/>
  </g>
  <g id="axes_1">
   <g id="patch_2">
    <path d="M 54.56 328.12 
L 622.8 328.12 
L 622.8 27.6 
L 54.56 27.6 
z
" style="fill: #ffffff"/>
   </g>
   <g id="PolyCollection_1">
    <defs>
     <path id="m7f1aab4d22" d="M 150.815415 -52.059239 
L 94.258545 -52.059239 
L 92.873694 -54.361552 
L 91.533309 -56.663864 
L 90.245063 -58.966177 
L 89.015902 -61.268489 
L 87.852012 -63.570802 
L 86.758833 -65.873114 
L 85.741088 -68.175427 
L 84.802847 -70.477739 
L 83.94761 -72.780052 
L 83.178395 -75.082364 
L 82.497836 -77.384676 
L 81.908269 -79.686989 
L 81.41181 -81.989301 
L 81.010405 -84.291614 
L 80.705863 -86.593926 
L 80.499848 -88.896239 
L 80.393844 -91.198551 
L 80.389091 -93.500864 
L 80.486488 -95.803176 
L 80.686475 -98.105489 
L 80.988896 -100.407801 
L 81.392863 -102.710114 
L 81.896614 -105.012426 
L 82.497385 -107.314739 
L 83.191308 -109.617051 
L 83.973335 -111.919364 
L 84.837203 -114.221676 
L 85.775439 -116.523989 
L 86.779415 -118.826301 
L 87.839445 -121.128614 
L 88.944933 -123.430926 
L 90.084555 -125.733239 
L 91.24648 -128.035551 
L 92.418615 -130.337863 
L 93.588871 -132.640176 
L 94.745427 -134.942488 
L 95.877 -137.244801 
L 96.973099 -139.547113 
L 98.024253 -141.849426 
L 99.022211 -144.151738 
L 99.960107 -146.454051 
L 100.832581 -148.756363 
L 101.635859 -151.058676 
L 102.367782 -153.360988 
L 103.027798 -155.663301 
L 103.616906 -157.965613 
L 104.137566 -160.267926 
L 104.593574 -162.570238 
L 104.989908 -164.872551 
L 105.332551 -167.174863 
L 105.628304 -169.477176 
L 105.884579 -171.779488 
L 106.109195 -174.081801 
L 106.310173 -176.384113 
L 106.495536 -178.686425 
L 106.673118 -180.988738 
L 106.850387 -183.29105 
L 107.034285 -185.593363 
L 107.231089 -187.895675 
L 107.446287 -190.197988 
L 107.684485 -192.5003 
L 107.949329 -194.802613 
L 108.243461 -197.104925 
L 108.568489 -199.407238 
L 108.924994 -201.70955 
L 109.312547 -204.011863 
L 109.729765 -206.314175 
L 110.174374 -208.616488 
L 110.643302 -210.9188 
L 111.132783 -213.221113 
L 111.638478 -215.523425 
L 112.15561 -217.825738 
L 112.6791 -220.12805 
L 113.203712 -222.430363 
L 113.724198 -224.732675 
L 114.235434 -227.034987 
L 114.732557 -229.3373 
L 115.211081 -231.639612 
L 115.667006 -233.941925 
L 116.096909 -236.244237 
L 116.498009 -238.54655 
L 116.868223 -240.848862 
L 117.206192 -243.151175 
L 117.511286 -245.453487 
L 117.783593 -247.7558 
L 118.023882 -250.058112 
L 118.233553 -252.360425 
L 118.41457 -254.662737 
L 118.569378 -256.96505 
L 118.700811 -259.267362 
L 118.811997 -261.569675 
L 118.906256 -263.871987 
L 118.986997 -266.1743 
L 119.057618 -268.476612 
L 119.121416 -270.778925 
L 119.1815 -273.081237 
L 119.240717 -275.383549 
L 119.301593 -277.685862 
L 119.366282 -279.988174 
L 125.707678 -279.988174 
L 125.707678 -279.988174 
L 125.772367 -277.685862 
L 125.833242 -275.383549 
L 125.89246 -273.081237 
L 125.952543 -270.778925 
L 126.016341 -268.476612 
L 126.086963 -266.1743 
L 126.167703 -263.871987 
L 126.261963 -261.569675 
L 126.373149 -259.267362 
L 126.504582 -256.96505 
L 126.659389 -254.662737 
L 126.840406 -252.360425 
L 127.050078 -250.058112 
L 127.290367 -247.7558 
L 127.562673 -245.453487 
L 127.867767 -243.151175 
L 128.205736 -240.848862 
L 128.575951 -238.54655 
L 128.977051 -236.244237 
L 129.406953 -233.941925 
L 129.862879 -231.639612 
L 130.341403 -229.3373 
L 130.838525 -227.034987 
L 131.349762 -224.732675 
L 131.870247 -222.430363 
L 132.39486 -220.12805 
L 132.91835 -217.825738 
L 133.435482 -215.523425 
L 133.941177 -213.221113 
L 134.430658 -210.9188 
L 134.899585 -208.616488 
L 135.344195 -206.314175 
L 135.761413 -204.011863 
L 136.148966 -201.70955 
L 136.50547 -199.407238 
L 136.830499 -197.104925 
L 137.12463 -194.802613 
L 137.389475 -192.5003 
L 137.627672 -190.197988 
L 137.842871 -187.895675 
L 138.039674 -185.593363 
L 138.223573 -183.29105 
L 138.400841 -180.988738 
L 138.578423 -178.686425 
L 138.763787 -176.384113 
L 138.964765 -174.081801 
L 139.189381 -171.779488 
L 139.445656 -169.477176 
L 139.741408 -167.174863 
L 140.084052 -164.872551 
L 140.480385 -162.570238 
L 140.936394 -160.267926 
L 141.457054 -157.965613 
L 142.046162 -155.663301 
L 142.706178 -153.360988 
L 143.438101 -151.058676 
L 144.241379 -148.756363 
L 145.113853 -146.454051 
L 146.051749 -144.151738 
L 147.049707 -141.849426 
L 148.10086 -139.547113 
L 149.196959 -137.244801 
L 150.328533 -134.942488 
L 151.485089 -132.640176 
L 152.655344 -130.337863 
L 153.82748 -128.035551 
L 154.989405 -125.733239 
L 156.129027 -123.430926 
L 157.234515 -121.128614 
L 158.294545 -118.826301 
L 159.298521 -116.523989 
L 160.236757 -114.221676 
L 161.100624 -111.919364 
L 161.882651 -109.617051 
L 162.576574 -107.314739 
L 163.177345 -105.012426 
L 163.681096 -102.710114 
L 164.085064 -100.407801 
L 164.387485 -98.105489 
L 164.587472 -95.803176 
L 164.684869 -93.500864 
L 164.680116 -91.198551 
L 164.574112 -88.896239 
L 164.368096 -86.593926 
L 164.063554 -84.291614 
L 163.66215 -81.989301 
L 163.16569 -79.686989 
L 162.576124 -77.384676 
L 161.895565 -75.082364 
L 161.12635 -72.780052 
L 160.271113 -70.477739 
L 159.332872 -68.175427 
L 158.315126 -65.873114 
L 157.221947 -63.570802 
L 156.058058 -61.268489 
L 154.828896 -58.966177 
L 153.54065 -56.663864 
L 152.200265 -54.361552 
L 150.815415 -52.059239 
z
" style="stroke: #333333; stroke-opacity: 0.5"/>
    </defs>
    <g clip-path="url(#pce8d2a51f1)">
     <use xlink:href="#m7f1aab4d22" x="0" y="374.4" style="fill: #0072b2; fill-opacity: 0.5; stroke: #333333; stroke-opacity: 0.5"/>
    </g>
   </g>
   <g id="PolyCollection_2">
    <defs>
     <path id="m5345bfd33a" d="M 255.895246 -52.059239 
L 205.321734 -52.059239 
L 204.112908 -53.671631 
L 202.919612 -55.284024 
L 201.747482 -56.896416 
L 200.601969 -58.508808 
L 199.488275 -60.1212 
L 198.411295 -61.733593 
L 197.375565 -63.345985 
L 196.385226 -64.958377 
L 195.443985 -66.570769 
L 194.555102 -68.183161 
L 193.721378 -69.795554 
L 192.945156 -71.407946 
L 192.228337 -73.020338 
L 191.572397 -74.63273 
L 190.978423 -76.245122 
L 190.447146 -77.857515 
L 189.978989 -79.469907 
L 189.574108 -81.082299 
L 189.232443 -82.694691 
L 188.953762 -84.307083 
L 188.737709 -85.919476 
L 188.583837 -87.531868 
L 188.491645 -89.14426 
L 188.460601 -90.756652 
L 188.49016 -92.369045 
L 188.579766 -93.981437 
L 188.728855 -95.593829 
L 188.936836 -97.206221 
L 189.203073 -98.818613 
L 189.526855 -100.431006 
L 189.907356 -102.043398 
L 190.343601 -103.65579 
L 190.834415 -105.268182 
L 191.378381 -106.880574 
L 191.973797 -108.492967 
L 192.618633 -110.105359 
L 193.310498 -111.717751 
L 194.046611 -113.330143 
L 194.823784 -114.942535 
L 195.63841 -116.554928 
L 196.486469 -118.16732 
L 197.363539 -119.779712 
L 198.264826 -121.392104 
L 199.185197 -123.004497 
L 200.119236 -124.616889 
L 201.061293 -126.229281 
L 202.00556 -127.841673 
L 202.946142 -129.454065 
L 203.877137 -131.066458 
L 204.792719 -132.67885 
L 205.687218 -134.291242 
L 206.55521 -135.903634 
L 207.39159 -137.516026 
L 208.191647 -139.128419 
L 208.951134 -140.740811 
L 209.666323 -142.353203 
L 210.334057 -143.965595 
L 210.951785 -145.577987 
L 211.517592 -147.19038 
L 212.03021 -148.802772 
L 212.489024 -150.415164 
L 212.894065 -152.027556 
L 213.245986 -153.639949 
L 213.546037 -155.252341 
L 213.796025 -156.864733 
L 213.998269 -158.477125 
L 214.155548 -160.089517 
L 214.271044 -161.70191 
L 214.348283 -163.314302 
L 214.39107 -164.926694 
L 214.40343 -166.539086 
L 214.389542 -168.151478 
L 214.353684 -169.763871 
L 214.300174 -171.376263 
L 214.233317 -172.988655 
L 214.157356 -174.601047 
L 214.07643 -176.213439 
L 213.994536 -177.825832 
L 213.915495 -179.438224 
L 213.842922 -181.050616 
L 213.780211 -182.663008 
L 213.730505 -184.275401 
L 213.696692 -185.887793 
L 213.68139 -187.500185 
L 213.686938 -189.112577 
L 213.715395 -190.724969 
L 213.768535 -192.337362 
L 213.847845 -193.949754 
L 213.954528 -195.562146 
L 214.089502 -197.174538 
L 214.253401 -198.78693 
L 214.446581 -200.399323 
L 214.669122 -202.011715 
L 214.920831 -203.624107 
L 215.201251 -205.236499 
L 215.509664 -206.848891 
L 215.8451 -208.461284 
L 216.206348 -210.073676 
L 216.591969 -211.686068 
L 244.62501 -211.686068 
L 244.62501 -211.686068 
L 245.010631 -210.073676 
L 245.37188 -208.461284 
L 245.707316 -206.848891 
L 246.015728 -205.236499 
L 246.296148 -203.624107 
L 246.547858 -202.011715 
L 246.770399 -200.399323 
L 246.963579 -198.78693 
L 247.127478 -197.174538 
L 247.262452 -195.562146 
L 247.369135 -193.949754 
L 247.448445 -192.337362 
L 247.501585 -190.724969 
L 247.530042 -189.112577 
L 247.53559 -187.500185 
L 247.520288 -185.887793 
L 247.486475 -184.275401 
L 247.436769 -182.663008 
L 247.374057 -181.050616 
L 247.301485 -179.438224 
L 247.222444 -177.825832 
L 247.14055 -176.213439 
L 247.059624 -174.601047 
L 246.983663 -172.988655 
L 246.916805 -171.376263 
L 246.863296 -169.763871 
L 246.827438 -168.151478 
L 246.81355 -166.539086 
L 246.82591 -164.926694 
L 246.868697 -163.314302 
L 246.945936 -161.70191 
L 247.061432 -160.089517 
L 247.218711 -158.477125 
L 247.420955 -156.864733 
L 247.670943 -155.252341 
L 247.970994 -153.639949 
L 248.322914 -152.027556 
L 248.727955 -150.415164 
L 249.18677 -148.802772 
L 249.699388 -147.19038 
L 250.265195 -145.577987 
L 250.882923 -143.965595 
L 251.550657 -142.353203 
L 252.265846 -140.740811 
L 253.025333 -139.128419 
L 253.82539 -137.516026 
L 254.66177 -135.903634 
L 255.529762 -134.291242 
L 256.424261 -132.67885 
L 257.339842 -131.066458 
L 258.270838 -129.454065 
L 259.21142 -127.841673 
L 260.155687 -126.229281 
L 261.097744 -124.616889 
L 262.031782 -123.004497 
L 262.952154 -121.392104 
L 263.853441 -119.779712 
L 264.730511 -118.16732 
L 265.57857 -116.554928 
L 266.393196 -114.942535 
L 267.170369 -113.330143 
L 267.906482 -111.717751 
L 268.598347 -110.105359 
L 269.243183 -108.492967 
L 269.838599 -106.880574 
L 270.382565 -105.268182 
L 270.873379 -103.65579 
L 271.309624 -102.043398 
L 271.690125 -100.431006 
L 272.013906 -98.818613 
L 272.280143 -97.206221 
L 272.488124 -95.593829 
L 272.637213 -93.981437 
L 272.72682 -92.369045 
L 272.756379 -90.756652 
L 272.725335 -89.14426 
L 272.633143 -87.531868 
L 272.479271 -85.919476 
L 272.263218 -84.307083 
L 271.984537 -82.694691 
L 271.642872 -81.082299 
L 271.237991 -79.469907 
L 270.769834 -77.857515 
L 270.238557 -76.245122 
L 269.644583 -74.63273 
L 268.988643 -73.020338 
L 268.271823 -71.407946 
L 267.495602 -69.795554 
L 266.661878 -68.183161 
L 265.772995 -66.570769 
L 264.831754 -64.958377 
L 263.841415 -63.345985 
L 262.805685 -61.733593 
L 261.728705 -60.1212 
L 260.615011 -58.508808 
L 259.469498 -56.896416 
L 258.297368 -55.284024 
L 257.104072 -53.671631 
L 255.895246 -52.059239 
z
" style="stroke: #333333; stroke-opacity: 0.5"/>
    </defs>
    <g clip-path="url(#pce8d2a51f1)">
     <use xlink:href="#m5345bfd33a" x="0" y="374.4" style="fill: #56b4e9; fill-opacity: 0.5; stroke: #333333; stroke-opacity: 0.5"/>
    </g>
   </g>
   <g id="PolyCollection_3">
    <defs>
     <path id="m141bceb748" d="M 367.590781 -52.059239 
L 309.769219 -52.059239 
L 308.630013 -53.669125 
L 307.5286 -55.279011 
L 306.469436 -56.888896 
L 305.456408 -58.498782 
L 304.492804 -60.108668 
L 303.581306 -61.718554 
L 302.723991 -63.328439 
L 301.922355 -64.938325 
L 301.177355 -66.548211 
L 300.489463 -68.158097 
L 299.858734 -69.767982 
L 299.284879 -71.377868 
L 298.767356 -72.987754 
L 298.305449 -74.597639 
L 297.898361 -76.207525 
L 297.545289 -77.817411 
L 297.245504 -79.427297 
L 296.998411 -81.037182 
L 296.803598 -82.647068 
L 296.660876 -84.256954 
L 296.570287 -85.86684 
L 296.532111 -87.476725 
L 296.546845 -89.086611 
L 296.615165 -90.696497 
L 296.73788 -92.306383 
L 296.915864 -93.916268 
L 297.149984 -95.526154 
L 297.441015 -97.13604 
L 297.789561 -98.745925 
L 298.19596 -100.355811 
L 298.660213 -101.965697 
L 299.181899 -103.575583 
L 299.760121 -105.185468 
L 300.393445 -106.795354 
L 301.079873 -108.40524 
L 301.816817 -110.015126 
L 302.601106 -111.625011 
L 303.428997 -113.234897 
L 304.296213 -114.844783 
L 305.197995 -116.454669 
L 306.129169 -118.064554 
L 307.084223 -119.67444 
L 308.057398 -121.284326 
L 309.042785 -122.894211 
L 310.03442 -124.504097 
L 311.02639 -126.113983 
L 312.012927 -127.723869 
L 312.988501 -129.333754 
L 313.947906 -130.94364 
L 314.886333 -132.553526 
L 315.79943 -134.163412 
L 316.683354 -135.773297 
L 317.534805 -137.383183 
L 318.351044 -138.993069 
L 319.1299 -140.602954 
L 319.869761 -142.21284 
L 320.569556 -143.822726 
L 321.228721 -145.432612 
L 321.84716 -147.042497 
L 322.425195 -148.652383 
L 322.963514 -150.262269 
L 323.463108 -151.872155 
L 323.925223 -153.48204 
L 324.35129 -155.091926 
L 324.74288 -156.701812 
L 325.101644 -158.311698 
L 325.429275 -159.921583 
L 325.727463 -161.531469 
L 325.997868 -163.141355 
L 326.242094 -164.75124 
L 326.461672 -166.361126 
L 326.65806 -167.971012 
L 326.832634 -169.580898 
L 326.986704 -171.190783 
L 327.121521 -172.800669 
L 327.238299 -174.410555 
L 327.338237 -176.020441 
L 327.42254 -177.630326 
L 327.492448 -179.240212 
L 327.549258 -180.850098 
L 327.594347 -182.459984 
L 327.629189 -184.069869 
L 327.655371 -185.679755 
L 327.674604 -187.289641 
L 327.688719 -188.899526 
L 327.699671 -190.509412 
L 327.709522 -192.119298 
L 327.720425 -193.729184 
L 327.734604 -195.339069 
L 327.754315 -196.948955 
L 327.781821 -198.558841 
L 327.819347 -200.168727 
L 327.86904 -201.778612 
L 327.932928 -203.388498 
L 328.012877 -204.998384 
L 328.110546 -206.608269 
L 328.227356 -208.218155 
L 328.364451 -209.828041 
L 328.522671 -211.437927 
L 348.837329 -211.437927 
L 348.837329 -211.437927 
L 348.995549 -209.828041 
L 349.132644 -208.218155 
L 349.249454 -206.608269 
L 349.347123 -204.998384 
L 349.427072 -203.388498 
L 349.49096 -201.778612 
L 349.540653 -200.168727 
L 349.578179 -198.558841 
L 349.605685 -196.948955 
L 349.625396 -195.339069 
L 349.639575 -193.729184 
L 349.650478 -192.119298 
L 349.660329 -190.509412 
L 349.671281 -188.899526 
L 349.685396 -187.289641 
L 349.704629 -185.679755 
L 349.730811 -184.069869 
L 349.765653 -182.459984 
L 349.810742 -180.850098 
L 349.867552 -179.240212 
L 349.93746 -177.630326 
L 350.021763 -176.020441 
L 350.121701 -174.410555 
L 350.238479 -172.800669 
L 350.373296 -171.190783 
L 350.527366 -169.580898 
L 350.70194 -167.971012 
L 350.898328 -166.361126 
L 351.117906 -164.75124 
L 351.362132 -163.141355 
L 351.632537 -161.531469 
L 351.930725 -159.921583 
L 352.258356 -158.311698 
L 352.61712 -156.701812 
L 353.00871 -155.091926 
L 353.434777 -153.48204 
L 353.896892 -151.872155 
L 354.396486 -150.262269 
L 354.934805 -148.652383 
L 355.51284 -147.042497 
L 356.131279 -145.432612 
L 356.790444 -143.822726 
L 357.490239 -142.21284 
L 358.2301 -140.602954 
L 359.008956 -138.993069 
L 359.825195 -137.383183 
L 360.676646 -135.773297 
L 361.56057 -134.163412 
L 362.473667 -132.553526 
L 363.412094 -130.94364 
L 364.371499 -129.333754 
L 365.347073 -127.723869 
L 366.33361 -126.113983 
L 367.32558 -124.504097 
L 368.317215 -122.894211 
L 369.302602 -121.284326 
L 370.275777 -119.67444 
L 371.230831 -118.064554 
L 372.162005 -116.454669 
L 373.063787 -114.844783 
L 373.931003 -113.234897 
L 374.758894 -111.625011 
L 375.543183 -110.015126 
L 376.280127 -108.40524 
L 376.966555 -106.795354 
L 377.599879 -105.185468 
L 378.178101 -103.575583 
L 378.699787 -101.965697 
L 379.16404 -100.355811 
L 379.570439 -98.745925 
L 379.918985 -97.13604 
L 380.210016 -95.526154 
L 380.444136 -93.916268 
L 380.62212 -92.306383 
L 380.744835 -90.696497 
L 380.813155 -89.086611 
L 380.827889 -87.476725 
L 380.789713 -85.86684 
L 380.699124 -84.256954 
L 380.556402 -82.647068 
L 380.361589 -81.037182 
L 380.114496 -79.427297 
L 379.814711 -77.817411 
L 379.461639 -76.207525 
L 379.054551 -74.597639 
L 378.592644 -72.987754 
L 378.075121 -71.377868 
L 377.501266 -69.767982 
L 376.870537 -68.158097 
L 376.182645 -66.548211 
L 375.437645 -64.938325 
L 374.636009 -63.328439 
L 373.778694 -61.718554 
L 372.867196 -60.108668 
L 371.903592 -58.498782 
L 370.890564 -56.888896 
L 369.8314 -55.279011 
L 368.729987 -53.669125 
L 367.590781 -52.059239 
z
" style="stroke: #333333; stroke-opacity: 0.5"/>
    </defs>
    <g clip-path="url(#pce8d2a51f1)">
     <use xlink:href="#m141bceb748" x="0" y="374.4" style="fill: #d55e00; fill-opacity: 0.5; stroke: #333333; stroke-opacity: 0.5"/>
    </g>
   </g>
   <g id="PolyCollection_4">
    <defs>
     <path id="m2eb1d99f26" d="M 474.504777 -52.059239 
L 418.998244 -52.059239 
L 417.827631 -53.669125 
L 416.688546 -55.279011 
L 415.586151 -56.888896 
L 414.525144 -58.498782 
L 413.509694 -60.108668 
L 412.543402 -61.718554 
L 411.629272 -63.328439 
L 410.7697 -64.938325 
L 409.966476 -66.548211 
L 409.220808 -68.158097 
L 408.533357 -69.767982 
L 407.904285 -71.377868 
L 407.333322 -72.987754 
L 406.81983 -74.597639 
L 406.362892 -76.207525 
L 405.961387 -77.817411 
L 405.614079 -79.427297 
L 405.319696 -81.037182 
L 405.077009 -82.647068 
L 404.884898 -84.256954 
L 404.742414 -85.86684 
L 404.64882 -87.476725 
L 404.603621 -89.086611 
L 404.606583 -90.696497 
L 404.657727 -92.306383 
L 404.757311 -93.916268 
L 404.905802 -95.526154 
L 405.103822 -97.13604 
L 405.352094 -98.745925 
L 405.651369 -100.355811 
L 406.002351 -101.965697 
L 406.405617 -103.575583 
L 406.861535 -105.185468 
L 407.370183 -106.795354 
L 407.931275 -108.40524 
L 408.544095 -110.015126 
L 409.207439 -111.625011 
L 409.919572 -113.234897 
L 410.678198 -114.844783 
L 411.480447 -116.454669 
L 412.322874 -118.064554 
L 413.20148 -119.67444 
L 414.111745 -121.284326 
L 415.048676 -122.894211 
L 416.00687 -124.504097 
L 416.980586 -126.113983 
L 417.963832 -127.723869 
L 418.95045 -129.333754 
L 419.934216 -130.94364 
L 420.908935 -132.553526 
L 421.868539 -134.163412 
L 422.807179 -135.773297 
L 423.719315 -137.383183 
L 424.599797 -138.993069 
L 425.443936 -140.602954 
L 426.247568 -142.21284 
L 427.007103 -143.822726 
L 427.719562 -145.432612 
L 428.382601 -147.042497 
L 428.994525 -148.652383 
L 429.554287 -150.262269 
L 430.061474 -151.872155 
L 430.516287 -153.48204 
L 430.919507 -155.091926 
L 431.27245 -156.701812 
L 431.576929 -158.311698 
L 431.835189 -159.921583 
L 432.049859 -161.531469 
L 432.22389 -163.141355 
L 432.360496 -164.75124 
L 432.463096 -166.361126 
L 432.535259 -167.971012 
L 432.580647 -169.580898 
L 432.602971 -171.190783 
L 432.605944 -172.800669 
L 432.593242 -174.410555 
L 432.568473 -176.020441 
L 432.535144 -177.630326 
L 432.496643 -179.240212 
L 432.456214 -180.850098 
L 432.41695 -182.459984 
L 432.381775 -184.069869 
L 432.353442 -185.679755 
L 432.334523 -187.289641 
L 432.327406 -188.899526 
L 432.334292 -190.509412 
L 432.35719 -192.119298 
L 432.397916 -193.729184 
L 432.458085 -195.339069 
L 432.53911 -196.948955 
L 432.642194 -198.558841 
L 432.768322 -200.168727 
L 432.91826 -201.778612 
L 433.092539 -203.388498 
L 433.291459 -204.998384 
L 433.515073 -206.608269 
L 433.763189 -208.218155 
L 434.035367 -209.828041 
L 434.330917 -211.437927 
L 459.172104 -211.437927 
L 459.172104 -211.437927 
L 459.467654 -209.828041 
L 459.739831 -208.218155 
L 459.987948 -206.608269 
L 460.211561 -204.998384 
L 460.410481 -203.388498 
L 460.584761 -201.778612 
L 460.734698 -200.168727 
L 460.860826 -198.558841 
L 460.96391 -196.948955 
L 461.044935 -195.339069 
L 461.105104 -193.729184 
L 461.14583 -192.119298 
L 461.168728 -190.509412 
L 461.175614 -188.899526 
L 461.168497 -187.289641 
L 461.149578 -185.679755 
L 461.121245 -184.069869 
L 461.08607 -182.459984 
L 461.046806 -180.850098 
L 461.006377 -179.240212 
L 460.967876 -177.630326 
L 460.934547 -176.020441 
L 460.909778 -174.410555 
L 460.897076 -172.800669 
L 460.900049 -171.190783 
L 460.922373 -169.580898 
L 460.967761 -167.971012 
L 461.039924 -166.361126 
L 461.142524 -164.75124 
L 461.279131 -163.141355 
L 461.453162 -161.531469 
L 461.667832 -159.921583 
L 461.926091 -158.311698 
L 462.23057 -156.701812 
L 462.583514 -155.091926 
L 462.986733 -153.48204 
L 463.441546 -151.872155 
L 463.948733 -150.262269 
L 464.508495 -148.652383 
L 465.120419 -147.042497 
L 465.783458 -145.432612 
L 466.495917 -143.822726 
L 467.255452 -142.21284 
L 468.059084 -140.602954 
L 468.903223 -138.993069 
L 469.783705 -137.383183 
L 470.695841 -135.773297 
L 471.634481 -134.163412 
L 472.594085 -132.553526 
L 473.568804 -130.94364 
L 474.552571 -129.333754 
L 475.539189 -127.723869 
L 476.522434 -126.113983 
L 477.49615 -124.504097 
L 478.454344 -122.894211 
L 479.391275 -121.284326 
L 480.30154 -119.67444 
L 481.180147 -118.064554 
L 482.022573 -116.454669 
L 482.824822 -114.844783 
L 483.583448 -113.234897 
L 484.295581 -111.625011 
L 484.958925 -110.015126 
L 485.571745 -108.40524 
L 486.132837 -106.795354 
L 486.641485 -105.185468 
L 487.097403 -103.575583 
L 487.500669 -101.965697 
L 487.851651 -100.355811 
L 488.150926 -98.745925 
L 488.399198 -97.13604 
L 488.597218 -95.526154 
L 488.745709 -93.916268 
L 488.845294 -92.306383 
L 488.896437 -90.696497 
L 488.899399 -89.086611 
L 488.8542 -87.476725 
L 488.760606 -85.86684 
L 488.618122 -84.256954 
L 488.426011 -82.647068 
L 488.183324 -81.037182 
L 487.888941 -79.427297 
L 487.541633 -77.817411 
L 487.140128 -76.207525 
L 486.68319 -74.597639 
L 486.169699 -72.987754 
L 485.598735 -71.377868 
L 484.969663 -69.767982 
L 484.282212 -68.158097 
L 483.536544 -66.548211 
L 482.73332 -64.938325 
L 481.873748 -63.328439 
L 480.959618 -61.718554 
L 479.993326 -60.108668 
L 478.977876 -58.498782 
L 477.916869 -56.888896 
L 476.814474 -55.279011 
L 475.675389 -53.669125 
L 474.504777 -52.059239 
z
" style="stroke: #333333; stroke-opacity: 0.5"/>
    </defs>
    <g clip-path="url(#pce8d2a51f1)">
     <use xlink:href="#m2eb1d99f26" x="0" y="374.4" style="fill: #009e73; fill-opacity: 0.5; stroke: #333333; stroke-opacity: 0.5"/>
    </g>
   </g>
   <g id="PolyCollection_5">
    <defs>
     <path id="m9c2128abb3" d="M 582.413522 -52.059239 
L 527.232519 -52.059239 
L 526.060684 -53.669125 
L 524.91928 -55.279011 
L 523.813484 -56.888896 
L 522.748025 -58.498782 
L 521.727121 -60.108668 
L 520.754443 -61.718554 
L 519.833078 -63.328439 
L 518.965524 -64.938325 
L 518.153685 -66.548211 
L 517.398893 -68.158097 
L 516.70194 -69.767982 
L 516.063129 -71.377868 
L 515.482326 -72.987754 
L 514.959036 -74.597639 
L 514.492476 -76.207525 
L 514.081654 -77.817411 
L 513.725455 -79.427297 
L 513.422715 -81.037182 
L 513.172303 -82.647068 
L 512.973183 -84.256954 
L 512.824473 -85.86684 
L 512.725489 -87.476725 
L 512.675779 -89.086611 
L 512.675131 -90.696497 
L 512.723581 -92.306383 
L 512.821388 -93.916268 
L 512.969011 -95.526154 
L 513.167057 -97.13604 
L 513.416225 -98.745925 
L 513.717243 -100.355811 
L 514.070787 -101.965697 
L 514.477404 -103.575583 
L 514.937435 -105.185468 
L 515.450931 -106.795354 
L 516.017583 -108.40524 
L 516.63665 -110.015126 
L 517.30691 -111.625011 
L 518.026609 -113.234897 
L 518.793433 -114.844783 
L 519.604492 -116.454669 
L 520.456321 -118.064554 
L 521.344895 -119.67444 
L 522.265664 -121.284326 
L 523.213595 -122.894211 
L 524.183237 -124.504097 
L 525.168793 -126.113983 
L 526.164197 -127.723869 
L 527.163209 -129.333754 
L 528.159507 -130.94364 
L 529.146787 -132.553526 
L 530.118854 -134.163412 
L 531.069722 -135.773297 
L 531.993705 -137.383183 
L 532.885493 -138.993069 
L 533.740234 -140.602954 
L 534.553596 -142.21284 
L 535.321817 -143.822726 
L 536.041749 -145.432612 
L 536.710886 -147.042497 
L 537.32738 -148.652383 
L 537.890042 -150.262269 
L 538.398335 -151.872155 
L 538.852357 -153.48204 
L 539.252804 -155.091926 
L 539.600941 -156.701812 
L 539.898548 -158.311698 
L 540.147875 -159.921583 
L 540.351584 -161.531469 
L 540.51269 -163.141355 
L 540.634501 -164.75124 
L 540.720563 -166.361126 
L 540.774598 -167.971012 
L 540.800449 -169.580898 
L 540.802032 -171.190783 
L 540.783283 -172.800669 
L 540.74812 -174.410555 
L 540.700402 -176.020441 
L 540.643894 -177.630326 
L 540.582245 -179.240212 
L 540.51896 -180.850098 
L 540.457381 -182.459984 
L 540.400673 -184.069869 
L 540.351809 -185.679755 
L 540.313566 -187.289641 
L 540.288511 -188.899526 
L 540.278996 -190.509412 
L 540.287158 -192.119298 
L 540.314904 -193.729184 
L 540.363917 -195.339069 
L 540.435641 -196.948955 
L 540.531285 -198.558841 
L 540.65181 -200.168727 
L 540.79793 -201.778612 
L 540.970103 -203.388498 
L 541.168532 -204.998384 
L 541.393158 -206.608269 
L 541.64366 -208.218155 
L 541.919458 -209.828041 
L 542.219715 -211.437927 
L 567.426325 -211.437927 
L 567.426325 -211.437927 
L 567.726583 -209.828041 
L 568.002381 -208.218155 
L 568.252883 -206.608269 
L 568.477508 -204.998384 
L 568.675937 -203.388498 
L 568.848111 -201.778612 
L 568.99423 -200.168727 
L 569.114755 -198.558841 
L 569.210399 -196.948955 
L 569.282124 -195.339069 
L 569.331136 -193.729184 
L 569.358883 -192.119298 
L 569.367044 -190.509412 
L 569.35753 -188.899526 
L 569.332474 -187.289641 
L 569.294231 -185.679755 
L 569.245368 -184.069869 
L 569.188659 -182.459984 
L 569.12708 -180.850098 
L 569.063795 -179.240212 
L 569.002146 -177.630326 
L 568.945639 -176.020441 
L 568.89792 -174.410555 
L 568.862757 -172.800669 
L 568.844008 -171.190783 
L 568.845591 -169.580898 
L 568.871443 -167.971012 
L 568.925477 -166.361126 
L 569.011539 -164.75124 
L 569.133351 -163.141355 
L 569.294456 -161.531469 
L 569.498165 -159.921583 
L 569.747492 -158.311698 
L 570.0451 -156.701812 
L 570.393236 -155.091926 
L 570.793684 -153.48204 
L 571.247705 -151.872155 
L 571.755999 -150.262269 
L 572.318661 -148.652383 
L 572.935154 -147.042497 
L 573.604292 -145.432612 
L 574.324224 -143.822726 
L 575.092444 -142.21284 
L 575.905806 -140.602954 
L 576.760547 -138.993069 
L 577.652336 -137.383183 
L 578.576318 -135.773297 
L 579.527187 -134.163412 
L 580.499254 -132.553526 
L 581.486533 -130.94364 
L 582.482832 -129.333754 
L 583.481844 -127.723869 
L 584.477248 -126.113983 
L 585.462803 -124.504097 
L 586.432445 -122.894211 
L 587.380377 -121.284326 
L 588.301145 -119.67444 
L 589.189719 -118.064554 
L 590.041548 -116.454669 
L 590.852607 -114.844783 
L 591.619431 -113.234897 
L 592.33913 -111.625011 
L 593.00939 -110.015126 
L 593.628458 -108.40524 
L 594.195109 -106.795354 
L 594.708605 -105.185468 
L 595.168636 -103.575583 
L 595.575254 -101.965697 
L 595.928797 -100.355811 
L 596.229815 -98.745925 
L 596.478984 -97.13604 
L 596.677029 -95.526154 
L 596.824652 -93.916268 
L 596.92246 -92.306383 
L 596.970909 -90.696497 
L 596.970262 -89.086611 
L 596.920551 -87.476725 
L 596.821568 -85.86684 
L 596.672858 -84.256954 
L 596.473737 -82.647068 
L 596.223325 -81.037182 
L 595.920586 -79.427297 
L 595.564386 -77.817411 
L 595.153564 -76.207525 
L 594.687004 -74.597639 
L 594.163714 -72.987754 
L 593.582912 -71.377868 
L 592.9441 -69.767982 
L 592.247148 -68.158097 
L 591.492355 -66.548211 
L 590.680516 -64.938325 
L 589.812962 -63.328439 
L 588.891598 -61.718554 
L 587.918919 -60.108668 
L 586.898016 -58.498782 
L 585.832556 -56.888896 
L 584.726761 -55.279011 
L 583.585357 -53.669125 
L 582.413522 -52.059239 
z
" style="stroke: #333333; stroke-opacity: 0.5"/>
    </defs>
    <g clip-path="url(#pce8d2a51f1)">
     <use xlink:href="#m9c2128abb3" x="0" y="374.4" style="fill: #e69f00; fill-opacity: 0.5; stroke: #333333; stroke-opacity: 0.5"/>
    </g>
   </g>
   <g id="matplotlib.axis_1">
    <g id="xtick_1">
     <g id="line2d_1">
      <defs>
       <path id="m38915ee8a1" d="M 0 0 
L 0 3.5 
" style="stroke: #000000; stroke-width: 0.8"/>
      </defs>
      <g>
       <use xlink:href="#m38915ee8a1" x="122.53698" y="328.12" style="stroke: #000000; stroke-width: 0.8"/>
      </g>
     </g>
     <g id="text_1">
      <!-- DADA2 -->
      <g transform="translate(101.48073 344.238125) scale(0.12 -0.12)">
       <defs>
        <path id="DejaVuSans-44" d="M 1259 4147 
L 1259 519 
L 2022 519 
Q 2988 519 3436 956 
Q 3884 1394 3884 2338 
Q 3884 3275 3436 3711 
Q 2988 4147 2022 4147 
L 1259 4147 
z
M 628 4666 
L 1925 4666 
Q 3281 4666 3915 4102 
Q 4550 3538 4550 2338 
Q 4550 1131 3912 565 
Q 3275 0 1925 0 
L 628 0 
L 628 4666 
z
" transform="scale(0.015625)"/>
        <path id="DejaVuSans-41" d="M 2188 4044 
L 1331 1722 
L 3047 1722 
L 2188 4044 
z
M 1831 4666 
L 2547 4666 
L 4325 0 
L 3669 0 
L 3244 1197 
L 1141 1197 
L 716 0 
L 50 0 
L 1831 4666 
z
" transform="scale(0.015625)"/>
        <path id="DejaVuSans-32" d="M 1228 531 
L 3431 531 
L 3431 0 
L 469 0 
L 469 531 
Q 828 903 1448 1529 
Q 2069 2156 2228 2338 
Q 2531 2678 2651 2914 
Q 2772 3150 2772 3378 
Q 2772 3750 2511 3984 
Q 2250 4219 1831 4219 
Q 1534 4219 1204 4116 
Q 875 4013 500 3803 
L 500 4441 
Q 881 4594 1212 4672 
Q 1544 4750 1819 4750 
Q 2544 4750 2975 4387 
Q 3406 4025 3406 3419 
Q 3406 3131 3298 2873 
Q 3191 2616 2906 2266 
Q 2828 2175 2409 1742 
Q 1991 1309 1228 531 
z
" transform="scale(0.015625)"/>
       </defs>
       <use xlink:href="#DejaVuSans-44"/>
       <use xlink:href="#DejaVuSans-41" x="75.251953"/>
       <use xlink:href="#DejaVuSans-44" x="143.660156"/>
       <use xlink:href="#DejaVuSans-41" x="218.912109"/>
       <use xlink:href="#DejaVuSans-32" x="287.320312"/>
      </g>
     </g>
    </g>
    <g id="xtick_2">
     <g id="line2d_2">
      <g>
       <use xlink:href="#m38915ee8a1" x="230.60849" y="328.12" style="stroke: #000000; stroke-width: 0.8"/>
      </g>
     </g>
     <g id="text_2">
      <!-- UNOISE3 -->
      <g transform="translate(203.817552 344.238125) scale(0.12 -0.12)">
       <defs>
        <path id="DejaVuSans-55" d="M 556 4666 
L 1191 4666 
L 1191 1831 
Q 1191 1081 1462 751 
Q 1734 422 2344 422 
Q 2950 422 3222 751 
Q 3494 1081 3494 1831 
L 3494 4666 
L 4128 4666 
L 4128 1753 
Q 4128 841 3676 375 
Q 3225 -91 2344 -91 
Q 1459 -91 1007 375 
Q 556 841 556 1753 
L 556 4666 
z
" transform="scale(0.015625)"/>
        <path id="DejaVuSans-4e" d="M 628 4666 
L 1478 4666 
L 3547 763 
L 3547 4666 
L 4159 4666 
L 4159 0 
L 3309 0 
L 1241 3903 
L 1241 0 
L 628 0 
L 628 4666 
z
" transform="scale(0.015625)"/>
        <path id="DejaVuSans-4f" d="M 2522 4238 
Q 1834 4238 1429 3725 
Q 1025 3213 1025 2328 
Q 1025 1447 1429 934 
Q 1834 422 2522 422 
Q 3209 422 3611 934 
Q 4013 1447 4013 2328 
Q 4013 3213 3611 3725 
Q 3209 4238 2522 4238 
z
M 2522 4750 
Q 3503 4750 4090 4092 
Q 4678 3434 4678 2328 
Q 4678 1225 4090 567 
Q 3503 -91 2522 -91 
Q 1538 -91 948 565 
Q 359 1222 359 2328 
Q 359 3434 948 4092 
Q 1538 4750 2522 4750 
z
" transform="scale(0.015625)"/>
        <path id="DejaVuSans-49" d="M 628 4666 
L 1259 4666 
L 1259 0 
L 628 0 
L 628 4666 
z
" transform="scale(0.015625)"/>
        <path id="DejaVuSans-53" d="M 3425 4513 
L 3425 3897 
Q 3066 4069 2747 4153 
Q 2428 4238 2131 4238 
Q 1616 4238 1336 4038 
Q 1056 3838 1056 3469 
Q 1056 3159 1242 3001 
Q 1428 2844 1947 2747 
L 2328 2669 
Q 3034 2534 3370 2195 
Q 3706 1856 3706 1288 
Q 3706 609 3251 259 
Q 2797 -91 1919 -91 
Q 1588 -91 1214 -16 
Q 841 59 441 206 
L 441 856 
Q 825 641 1194 531 
Q 1563 422 1919 422 
Q 2459 422 2753 634 
Q 3047 847 3047 1241 
Q 3047 1584 2836 1778 
Q 2625 1972 2144 2069 
L 1759 2144 
Q 1053 2284 737 2584 
Q 422 2884 422 3419 
Q 422 4038 858 4394 
Q 1294 4750 2059 4750 
Q 2388 4750 2728 4690 
Q 3069 4631 3425 4513 
z
" transform="scale(0.015625)"/>
        <path id="DejaVuSans-45" d="M 628 4666 
L 3578 4666 
L 3578 4134 
L 1259 4134 
L 1259 2753 
L 3481 2753 
L 3481 2222 
L 1259 2222 
L 1259 531 
L 3634 531 
L 3634 0 
L 628 0 
L 628 4666 
z
" transform="scale(0.015625)"/>
        <path id="DejaVuSans-33" d="M 2597 2516 
Q 3050 2419 3304 2112 
Q 3559 1806 3559 1356 
Q 3559 666 3084 287 
Q 2609 -91 1734 -91 
Q 1441 -91 1130 -33 
Q 819 25 488 141 
L 488 750 
Q 750 597 1062 519 
Q 1375 441 1716 441 
Q 2309 441 2620 675 
Q 2931 909 2931 1356 
Q 2931 1769 2642 2001 
Q 2353 2234 1838 2234 
L 1294 2234 
L 1294 2753 
L 1863 2753 
Q 2328 2753 2575 2939 
Q 2822 3125 2822 3475 
Q 2822 3834 2567 4026 
Q 2313 4219 1838 4219 
Q 1578 4219 1281 4162 
Q 984 4106 628 3988 
L 628 4550 
Q 988 4650 1302 4700 
Q 1616 4750 1894 4750 
Q 2613 4750 3031 4423 
Q 3450 4097 3450 3541 
Q 3450 3153 3228 2886 
Q 3006 2619 2597 2516 
z
" transform="scale(0.015625)"/>
       </defs>
       <use xlink:href="#DejaVuSans-55"/>
       <use xlink:href="#DejaVuSans-4e" x="73.193359"/>
       <use xlink:href="#DejaVuSans-4f" x="147.998047"/>
       <use xlink:href="#DejaVuSans-49" x="226.708984"/>
       <use xlink:href="#DejaVuSans-53" x="256.201172"/>
       <use xlink:href="#DejaVuSans-45" x="319.677734"/>
       <use xlink:href="#DejaVuSans-33" x="382.861328"/>
      </g>
     </g>
    </g>
    <g id="xtick_3">
     <g id="line2d_3">
      <g>
       <use xlink:href="#m38915ee8a1" x="338.68" y="328.12" style="stroke: #000000; stroke-width: 0.8"/>
      </g>
     </g>
     <g id="text_3">
      <!-- UPARSE -->
      <g transform="translate(315.179687 344.238125) scale(0.12 -0.12)">
       <defs>
        <path id="DejaVuSans-50" d="M 1259 4147 
L 1259 2394 
L 2053 2394 
Q 2494 2394 2734 2622 
Q 2975 2850 2975 3272 
Q 2975 3691 2734 3919 
Q 2494 4147 2053 4147 
L 1259 4147 
z
M 628 4666 
L 2053 4666 
Q 2838 4666 3239 4311 
Q 3641 3956 3641 3272 
Q 3641 2581 3239 2228 
Q 2838 1875 2053 1875 
L 1259 1875 
L 1259 0 
L 628 0 
L 628 4666 
z
" transform="scale(0.015625)"/>
        <path id="DejaVuSans-52" d="M 2841 2188 
Q 3044 2119 3236 1894 
Q 3428 1669 3622 1275 
L 4263 0 
L 3584 0 
L 2988 1197 
Q 2756 1666 2539 1819 
Q 2322 1972 1947 1972 
L 1259 1972 
L 1259 0 
L 628 0 
L 628 4666 
L 2053 4666 
Q 2853 4666 3247 4331 
Q 3641 3997 3641 3322 
Q 3641 2881 3436 2590 
Q 3231 2300 2841 2188 
z
M 1259 4147 
L 1259 2491 
L 2053 2491 
Q 2509 2491 2742 2702 
Q 2975 2913 2975 3322 
Q 2975 3731 2742 3939 
Q 2509 4147 2053 4147 
L 1259 4147 
z
" transform="scale(0.015625)"/>
       </defs>
       <use xlink:href="#DejaVuSans-55"/>
       <use xlink:href="#DejaVuSans-50" x="73.193359"/>
       <use xlink:href="#DejaVuSans-41" x="127.121094"/>
       <use xlink:href="#DejaVuSans-52" x="195.529297"/>
       <use xlink:href="#DejaVuSans-53" x="265.011719"/>
       <use xlink:href="#DejaVuSans-45" x="328.488281"/>
      </g>
     </g>
    </g>
    <g id="xtick_4">
     <g id="line2d_4">
      <g>
       <use xlink:href="#m38915ee8a1" x="446.75151" y="328.12" style="stroke: #000000; stroke-width: 0.8"/>
      </g>
     </g>
     <g id="text_4">
      <!-- TIC -->
      <g transform="translate(437.127135 344.238125) scale(0.12 -0.12)">
       <defs>
        <path id="DejaVuSans-54" d="M -19 4666 
L 3928 4666 
L 3928 4134 
L 2272 4134 
L 2272 0 
L 1638 0 
L 1638 4134 
L -19 4134 
L -19 4666 
z
" transform="scale(0.015625)"/>
        <path id="DejaVuSans-43" d="M 4122 4306 
L 4122 3641 
Q 3803 3938 3442 4084 
Q 3081 4231 2675 4231 
Q 1875 4231 1450 3742 
Q 1025 3253 1025 2328 
Q 1025 1406 1450 917 
Q 1875 428 2675 428 
Q 3081 428 3442 575 
Q 3803 722 4122 1019 
L 4122 359 
Q 3791 134 3420 21 
Q 3050 -91 2638 -91 
Q 1578 -91 968 557 
Q 359 1206 359 2328 
Q 359 3453 968 4101 
Q 1578 4750 2638 4750 
Q 3056 4750 3426 4639 
Q 3797 4528 4122 4306 
z
" transform="scale(0.015625)"/>
       </defs>
       <use xlink:href="#DejaVuSans-54"/>
       <use xlink:href="#DejaVuSans-49" x="61.083984"/>
       <use xlink:href="#DejaVuSans-43" x="90.576172"/>
      </g>
     </g>
    </g>
    <g id="xtick_5">
     <g id="line2d_5">
      <g>
       <use xlink:href="#m38915ee8a1" x="554.82302" y="328.12" style="stroke: #000000; stroke-width: 0.8"/>
      </g>
     </g>
     <g id="text_5">
      <!-- TAC -->
      <g transform="translate(543.43427 344.238125) scale(0.12 -0.12)">
       <use xlink:href="#DejaVuSans-54"/>
       <use xlink:href="#DejaVuSans-41" x="53.333984"/>
       <use xlink:href="#DejaVuSans-43" x="119.992188"/>
      </g>
     </g>
    </g>
    <g id="text_6">
     <!-- Method -->
     <g transform="translate(312.425625 361.371563) scale(0.14 -0.14)">
      <defs>
       <path id="DejaVuSans-4d" d="M 628 4666 
L 1569 4666 
L 2759 1491 
L 3956 4666 
L 4897 4666 
L 4897 0 
L 4281 0 
L 4281 4097 
L 3078 897 
L 2444 897 
L 1241 4097 
L 1241 0 
L 628 0 
L 628 4666 
z
" transform="scale(0.015625)"/>
       <path id="DejaVuSans-65" d="M 3597 1894 
L 3597 1613 
L 953 1613 
Q 991 1019 1311 708 
Q 1631 397 2203 397 
Q 2534 397 2845 478 
Q 3156 559 3463 722 
L 3463 178 
Q 3153 47 2828 -22 
Q 2503 -91 2169 -91 
Q 1331 -91 842 396 
Q 353 884 353 1716 
Q 353 2575 817 3079 
Q 1281 3584 2069 3584 
Q 2775 3584 3186 3129 
Q 3597 2675 3597 1894 
z
M 3022 2063 
Q 3016 2534 2758 2815 
Q 2500 3097 2075 3097 
Q 1594 3097 1305 2825 
Q 1016 2553 972 2059 
L 3022 2063 
z
" transform="scale(0.015625)"/>
       <path id="DejaVuSans-74" d="M 1172 4494 
L 1172 3500 
L 2356 3500 
L 2356 3053 
L 1172 3053 
L 1172 1153 
Q 1172 725 1289 603 
Q 1406 481 1766 481 
L 2356 481 
L 2356 0 
L 1766 0 
Q 1100 0 847 248 
Q 594 497 594 1153 
L 594 3053 
L 172 3053 
L 172 3500 
L 594 3500 
L 594 4494 
L 1172 4494 
z
" transform="scale(0.015625)"/>
       <path id="DejaVuSans-68" d="M 3513 2113 
L 3513 0 
L 2938 0 
L 2938 2094 
Q 2938 2591 2744 2837 
Q 2550 3084 2163 3084 
Q 1697 3084 1428 2787 
Q 1159 2491 1159 1978 
L 1159 0 
L 581 0 
L 581 4863 
L 1159 4863 
L 1159 2956 
Q 1366 3272 1645 3428 
Q 1925 3584 2291 3584 
Q 2894 3584 3203 3211 
Q 3513 2838 3513 2113 
z
" transform="scale(0.015625)"/>
       <path id="DejaVuSans-6f" d="M 1959 3097 
Q 1497 3097 1228 2736 
Q 959 2375 959 1747 
Q 959 1119 1226 758 
Q 1494 397 1959 397 
Q 2419 397 2687 759 
Q 2956 1122 2956 1747 
Q 2956 2369 2687 2733 
Q 2419 3097 1959 3097 
z
M 1959 3584 
Q 2709 3584 3137 3096 
Q 3566 2609 3566 1747 
Q 3566 888 3137 398 
Q 2709 -91 1959 -91 
Q 1206 -91 779 398 
Q 353 888 353 1747 
Q 353 2609 779 3096 
Q 1206 3584 1959 3584 
z
" transform="scale(0.015625)"/>
       <path id="DejaVuSans-64" d="M 2906 2969 
L 2906 4863 
L 3481 4863 
L 3481 0 
L 2906 0 
L 2906 525 
Q 2725 213 2448 61 
Q 2172 -91 1784 -91 
Q 1150 -91 751 415 
Q 353 922 353 1747 
Q 353 2572 751 3078 
Q 1150 3584 1784 3584 
Q 2172 3584 2448 3432 
Q 2725 3281 2906 2969 
z
M 947 1747 
Q 947 1113 1208 752 
Q 1469 391 1925 391 
Q 2381 391 2643 752 
Q 2906 1113 2906 1747 
Q 2906 2381 2643 2742 
Q 2381 3103 1925 3103 
Q 1469 3103 1208 2742 
Q 947 2381 947 1747 
z
" transform="scale(0.015625)"/>
      </defs>
      <use xlink:href="#DejaVuSans-4d"/>
      <use xlink:href="#DejaVuSans-65" x="86.279297"/>
      <use xlink:href="#DejaVuSans-74" x="147.802734"/>
      <use xlink:href="#DejaVuSans-68" x="187.011719"/>
      <use xlink:href="#DejaVuSans-6f" x="250.390625"/>
      <use xlink:href="#DejaVuSans-64" x="311.572266"/>
     </g>
    </g>
   </g>
   <g id="matplotlib.axis_2">
    <g id="ytick_1">
     <g id="line2d_6">
      <path d="M 54.56 322.340769 
L 622.8 322.340769 
" clip-path="url(#pce8d2a51f1)" style="fill: none; stroke: #b0b0b0; stroke-opacity: 0.25; stroke-width: 0.6; stroke-linecap: square"/>
     </g>
     <g id="line2d_7">
      <defs>
       <path id="m5c2a60f9ec" d="M 0 0 
L -3.5 0 
" style="stroke: #000000; stroke-width: 0.8"/>
      </defs>
      <g>
       <use xlink:href="#m5c2a60f9ec" x="54.56" y="322.340769" style="stroke: #000000; stroke-width: 0.8"/>
      </g>
     </g>
     <g id="text_7">
      <!-- 0.0 -->
      <g transform="translate(28.47625 326.899832) scale(0.12 -0.12)">
       <defs>
        <path id="DejaVuSans-30" d="M 2034 4250 
Q 1547 4250 1301 3770 
Q 1056 3291 1056 2328 
Q 1056 1369 1301 889 
Q 1547 409 2034 409 
Q 2525 409 2770 889 
Q 3016 1369 3016 2328 
Q 3016 3291 2770 3770 
Q 2525 4250 2034 4250 
z
M 2034 4750 
Q 2819 4750 3233 4129 
Q 3647 3509 3647 2328 
Q 3647 1150 3233 529 
Q 2819 -91 2034 -91 
Q 1250 -91 836 529 
Q 422 1150 422 2328 
Q 422 3509 836 4129 
Q 1250 4750 2034 4750 
z
" transform="scale(0.015625)"/>
        <path id="DejaVuSans-2e" d="M 684 794 
L 1344 794 
L 1344 0 
L 684 0 
L 684 794 
z
" transform="scale(0.015625)"/>
       </defs>
       <use xlink:href="#DejaVuSans-30"/>
       <use xlink:href="#DejaVuSans-2e" x="63.623047"/>
       <use xlink:href="#DejaVuSans-30" x="95.410156"/>
      </g>
     </g>
    </g>
    <g id="ytick_2">
     <g id="line2d_8">
      <path d="M 54.56 264.548462 
L 622.8 264.548462 
" clip-path="url(#pce8d2a51f1)" style="fill: none; stroke: #b0b0b0; stroke-opacity: 0.25; stroke-width: 0.6; stroke-linecap: square"/>
     </g>
     <g id="line2d_9">
      <g>
       <use xlink:href="#m5c2a60f9ec" x="54.56" y="264.548462" style="stroke: #000000; stroke-width: 0.8"/>
      </g>
     </g>
     <g id="text_8">
      <!-- 0.2 -->
      <g transform="translate(28.47625 269.107524) scale(0.12 -0.12)">
       <use xlink:href="#DejaVuSans-30"/>
       <use xlink:href="#DejaVuSans-2e" x="63.623047"/>
       <use xlink:href="#DejaVuSans-32" x="95.410156"/>
      </g>
     </g>
    </g>
    <g id="ytick_3">
     <g id="line2d_10">
      <path d="M 54.56 206.756154 
L 622.8 206.756154 
" clip-path="url(#pce8d2a51f1)" style="fill: none; stroke: #b0b0b0; stroke-opacity: 0.25; stroke-width: 0.6; stroke-linecap: square"/>
     </g>
     <g id="line2d_11">
      <g>
       <use xlink:href="#m5c2a60f9ec" x="54.56" y="206.756154" style="stroke: #000000; stroke-width: 0.8"/>
      </g>
     </g>
     <g id="text_9">
      <!-- 0.4 -->
      <g transform="translate(28.47625 211.315216) scale(0.12 -0.12)">
       <defs>
        <path id="DejaVuSans-34" d="M 2419 4116 
L 825 1625 
L 2419 1625 
L 2419 4116 
z
M 2253 4666 
L 3047 4666 
L 3047 1625 
L 3713 1625 
L 3713 1100 
L 3047 1100 
L 3047 0 
L 2419 0 
L 2419 1100 
L 313 1100 
L 313 1709 
L 2253 4666 
z
" transform="scale(0.015625)"/>
       </defs>
       <use xlink:href="#DejaVuSans-30"/>
       <use xlink:href="#DejaVuSans-2e" x="63.623047"/>
       <use xlink:href="#DejaVuSans-34" x="95.410156"/>
      </g>
     </g>
    </g>
    <g id="ytick_4">
     <g id="line2d_12">
      <path d="M 54.56 148.963846 
L 622.8 148.963846 
" clip-path="url(#pce8d2a51f1)" style="fill: none; stroke: #b0b0b0; stroke-opacity: 0.25; stroke-width: 0.6; stroke-linecap: square"/>
     </g>
     <g id="line2d_13">
      <g>
       <use xlink:href="#m5c2a60f9ec" x="54.56" y="148.963846" style="stroke: #000000; stroke-width: 0.8"/>
      </g>
     </g>
     <g id="text_10">
      <!-- 0.6 -->
      <g transform="translate(28.47625 153.522909) scale(0.12 -0.12)">
       <defs>
        <path id="DejaVuSans-36" d="M 2113 2584 
Q 1688 2584 1439 2293 
Q 1191 2003 1191 1497 
Q 1191 994 1439 701 
Q 1688 409 2113 409 
Q 2538 409 2786 701 
Q 3034 994 3034 1497 
Q 3034 2003 2786 2293 
Q 2538 2584 2113 2584 
z
M 3366 4563 
L 3366 3988 
Q 3128 4100 2886 4159 
Q 2644 4219 2406 4219 
Q 1781 4219 1451 3797 
Q 1122 3375 1075 2522 
Q 1259 2794 1537 2939 
Q 1816 3084 2150 3084 
Q 2853 3084 3261 2657 
Q 3669 2231 3669 1497 
Q 3669 778 3244 343 
Q 2819 -91 2113 -91 
Q 1303 -91 875 529 
Q 447 1150 447 2328 
Q 447 3434 972 4092 
Q 1497 4750 2381 4750 
Q 2619 4750 2861 4703 
Q 3103 4656 3366 4563 
z
" transform="scale(0.015625)"/>
       </defs>
       <use xlink:href="#DejaVuSans-30"/>
       <use xlink:href="#DejaVuSans-2e" x="63.623047"/>
       <use xlink:href="#DejaVuSans-36" x="95.410156"/>
      </g>
     </g>
    </g>
    <g id="ytick_5">
     <g id="line2d_14">
      <path d="M 54.56 91.171538 
L 622.8 91.171538 
" clip-path="url(#pce8d2a51f1)" style="fill: none; stroke: #b0b0b0; stroke-opacity: 0.25; stroke-width: 0.6; stroke-linecap: square"/>
     </g>
     <g id="line2d_15">
      <g>
       <use xlink:href="#m5c2a60f9ec" x="54.56" y="91.171538" style="stroke: #000000; stroke-width: 0.8"/>
      </g>
     </g>
     <g id="text_11">
      <!-- 0.8 -->
      <g transform="translate(28.47625 95.730601) scale(0.12 -0.12)">
       <defs>
        <path id="DejaVuSans-38" d="M 2034 2216 
Q 1584 2216 1326 1975 
Q 1069 1734 1069 1313 
Q 1069 891 1326 650 
Q 1584 409 2034 409 
Q 2484 409 2743 651 
Q 3003 894 3003 1313 
Q 3003 1734 2745 1975 
Q 2488 2216 2034 2216 
z
M 1403 2484 
Q 997 2584 770 2862 
Q 544 3141 544 3541 
Q 544 4100 942 4425 
Q 1341 4750 2034 4750 
Q 2731 4750 3128 4425 
Q 3525 4100 3525 3541 
Q 3525 3141 3298 2862 
Q 3072 2584 2669 2484 
Q 3125 2378 3379 2068 
Q 3634 1759 3634 1313 
Q 3634 634 3220 271 
Q 2806 -91 2034 -91 
Q 1263 -91 848 271 
Q 434 634 434 1313 
Q 434 1759 690 2068 
Q 947 2378 1403 2484 
z
M 1172 3481 
Q 1172 3119 1398 2916 
Q 1625 2713 2034 2713 
Q 2441 2713 2670 2916 
Q 2900 3119 2900 3481 
Q 2900 3844 2670 4047 
Q 2441 4250 2034 4250 
Q 1625 4250 1398 4047 
Q 1172 3844 1172 3481 
z
" transform="scale(0.015625)"/>
       </defs>
       <use xlink:href="#DejaVuSans-30"/>
       <use xlink:href="#DejaVuSans-2e" x="63.623047"/>
       <use xlink:href="#DejaVuSans-38" x="95.410156"/>
      </g>
     </g>
    </g>
    <g id="ytick_6">
     <g id="line2d_16">
      <path d="M 54.56 33.379231 
L 622.8 33.379231 
" clip-path="url(#pce8d2a51f1)" style="fill: none; stroke: #b0b0b0; stroke-opacity: 0.25; stroke-width: 0.6; stroke-linecap: square"/>
     </g>
     <g id="line2d_17">
      <g>
       <use xlink:href="#m5c2a60f9ec" x="54.56" y="33.379231" style="stroke: #000000; stroke-width: 0.8"/>
      </g>
     </g>
     <g id="text_12">
      <!-- 1.0 -->
      <g transform="translate(28.47625 37.938293) scale(0.12 -0.12)">
       <defs>
        <path id="DejaVuSans-31" d="M 794 531 
L 1825 531 
L 1825 4091 
L 703 3866 
L 703 4441 
L 1819 4666 
L 2450 4666 
L 2450 531 
L 3481 531 
L 3481 0 
L 794 0 
L 794 531 
z
" transform="scale(0.015625)"/>
       </defs>
       <use xlink:href="#DejaVuSans-31"/>
       <use xlink:href="#DejaVuSans-2e" x="63.623047"/>
       <use xlink:href="#DejaVuSans-30" x="95.410156"/>
      </g>
     </g>
    </g>
    <g id="text_13">
     <!-- Distance -->
     <g transform="translate(21.564687 208.4675) rotate(-90) scale(0.14 -0.14)">
      <defs>
       <path id="DejaVuSans-69" d="M 603 3500 
L 1178 3500 
L 1178 0 
L 603 0 
L 603 3500 
z
M 603 4863 
L 1178 4863 
L 1178 4134 
L 603 4134 
L 603 4863 
z
" transform="scale(0.015625)"/>
       <path id="DejaVuSans-73" d="M 2834 3397 
L 2834 2853 
Q 2591 2978 2328 3040 
Q 2066 3103 1784 3103 
Q 1356 3103 1142 2972 
Q 928 2841 928 2578 
Q 928 2378 1081 2264 
Q 1234 2150 1697 2047 
L 1894 2003 
Q 2506 1872 2764 1633 
Q 3022 1394 3022 966 
Q 3022 478 2636 193 
Q 2250 -91 1575 -91 
Q 1294 -91 989 -36 
Q 684 19 347 128 
L 347 722 
Q 666 556 975 473 
Q 1284 391 1588 391 
Q 1994 391 2212 530 
Q 2431 669 2431 922 
Q 2431 1156 2273 1281 
Q 2116 1406 1581 1522 
L 1381 1569 
Q 847 1681 609 1914 
Q 372 2147 372 2553 
Q 372 3047 722 3315 
Q 1072 3584 1716 3584 
Q 2034 3584 2315 3537 
Q 2597 3491 2834 3397 
z
" transform="scale(0.015625)"/>
       <path id="DejaVuSans-61" d="M 2194 1759 
Q 1497 1759 1228 1600 
Q 959 1441 959 1056 
Q 959 750 1161 570 
Q 1363 391 1709 391 
Q 2188 391 2477 730 
Q 2766 1069 2766 1631 
L 2766 1759 
L 2194 1759 
z
M 3341 1997 
L 3341 0 
L 2766 0 
L 2766 531 
Q 2569 213 2275 61 
Q 1981 -91 1556 -91 
Q 1019 -91 701 211 
Q 384 513 384 1019 
Q 384 1609 779 1909 
Q 1175 2209 1959 2209 
L 2766 2209 
L 2766 2266 
Q 2766 2663 2505 2880 
Q 2244 3097 1772 3097 
Q 1472 3097 1187 3025 
Q 903 2953 641 2809 
L 641 3341 
Q 956 3463 1253 3523 
Q 1550 3584 1831 3584 
Q 2591 3584 2966 3190 
Q 3341 2797 3341 1997 
z
" transform="scale(0.015625)"/>
       <path id="DejaVuSans-6e" d="M 3513 2113 
L 3513 0 
L 2938 0 
L 2938 2094 
Q 2938 2591 2744 2837 
Q 2550 3084 2163 3084 
Q 1697 3084 1428 2787 
Q 1159 2491 1159 1978 
L 1159 0 
L 581 0 
L 581 3500 
L 1159 3500 
L 1159 2956 
Q 1366 3272 1645 3428 
Q 1925 3584 2291 3584 
Q 2894 3584 3203 3211 
Q 3513 2838 3513 2113 
z
" transform="scale(0.015625)"/>
       <path id="DejaVuSans-63" d="M 3122 3366 
L 3122 2828 
Q 2878 2963 2633 3030 
Q 2388 3097 2138 3097 
Q 1578 3097 1268 2742 
Q 959 2388 959 1747 
Q 959 1106 1268 751 
Q 1578 397 2138 397 
Q 2388 397 2633 464 
Q 2878 531 3122 666 
L 3122 134 
Q 2881 22 2623 -34 
Q 2366 -91 2075 -91 
Q 1284 -91 818 406 
Q 353 903 353 1747 
Q 353 2603 823 3093 
Q 1294 3584 2113 3584 
Q 2378 3584 2631 3529 
Q 2884 3475 3122 3366 
z
" transform="scale(0.015625)"/>
      </defs>
      <use xlink:href="#DejaVuSans-44"/>
      <use xlink:href="#DejaVuSans-69" x="77.001953"/>
      <use xlink:href="#DejaVuSans-73" x="104.785156"/>
      <use xlink:href="#DejaVuSans-74" x="156.884766"/>
      <use xlink:href="#DejaVuSans-61" x="196.09375"/>
      <use xlink:href="#DejaVuSans-6e" x="257.373047"/>
      <use xlink:href="#DejaVuSans-63" x="320.751953"/>
      <use xlink:href="#DejaVuSans-65" x="375.732422"/>
     </g>
    </g>
   </g>
   <g id="LineCollection_1">
    <path d="M 101.463035 266.850884 
L 143.610924 266.850884 
" clip-path="url(#pce8d2a51f1)" style="fill: none; stroke: #111111; stroke-width: 1.2"/>
    <path d="M 209.534545 266.640438 
L 251.682434 266.640438 
" clip-path="url(#pce8d2a51f1)" style="fill: none; stroke: #111111; stroke-width: 1.2"/>
    <path d="M 317.606056 270.575682 
L 359.753944 270.575682 
" clip-path="url(#pce8d2a51f1)" style="fill: none; stroke: #111111; stroke-width: 1.2"/>
    <path d="M 425.677566 266.863518 
L 467.825455 266.863518 
" clip-path="url(#pce8d2a51f1)" style="fill: none; stroke: #111111; stroke-width: 1.2"/>
    <path d="M 533.749076 266.863518 
L 575.896965 266.863518 
" clip-path="url(#pce8d2a51f1)" style="fill: none; stroke: #111111; stroke-width: 1.2"/>
   </g>
   <g id="patch_3">
    <path d="M 54.56 328.12 
L 54.56 27.6 
" style="fill: none; stroke: #000000; stroke-width: 0.8; stroke-linejoin: miter; stroke-linecap: square"/>
   </g>
   <g id="patch_4">
    <path d="M 622.8 328.12 
L 622.8 27.6 
" style="fill: none; stroke: #000000; stroke-width: 0.8; stroke-linejoin: miter; stroke-linecap: square"/>
   </g>
   <g id="patch_5">
    <path d="M 54.56 328.12 
L 622.8 328.12 
" style="fill: none; stroke: #000000; stroke-width: 0.8; stroke-linejoin: miter; stroke-linecap: square"/>
   </g>
   <g id="patch_6">
    <path d="M 54.56 27.6 
L 622.8 27.6 
" style="fill: none; stroke: #000000; stroke-width: 0.8; stroke-linejoin: miter; stroke-linecap: square"/>
   </g>
   <g id="PathCollection_1">
    <defs>
     <path id="C0_0_c2a4a243c9" d="M 0 2.828427 
C 0.750108 2.828427 1.469594 2.530406 2 2 
C 2.530406 1.469594 2.828427 0.750108 2.828427 -0 
C 2.828427 -0.750108 2.530406 -1.469594 2 -2 
C 1.469594 -2.530406 0.750108 -2.828427 0 -2.828427 
C -0.750108 -2.828427 -1.469594 -2.530406 -2 -2 
C -2.530406 -1.469594 -2.828427 -0.750108 -2.828427 0 
C -2.828427 0.750108 -2.530406 1.469594 -2 2 
C -1.469594 2.530406 -0.750108 2.828427 0 2.828427 
z
"/>
    </defs>
    <g clip-path="url(#pce8d2a51f1)">
     <use xlink:href="#C0_0_c2a4a243c9" x="124.030892" y="273.149705" style="fill: #0072b2; fill-opacity: 0.4"/>
    </g>
    <g clip-path="url(#pce8d2a51f1)">
     <use xlink:href="#C0_0_c2a4a243c9" x="126.08872" y="193.319178" style="fill: #0072b2; fill-opacity: 0.4"/>
    </g>
    <g clip-path="url(#pce8d2a51f1)">
     <use xlink:href="#C0_0_c2a4a243c9" x="123.965413" y="165.49676" style="fill: #0072b2; fill-opacity: 0.4"/>
    </g>
    <g clip-path="url(#pce8d2a51f1)">
     <use xlink:href="#C0_0_c2a4a243c9" x="116.903613" y="202.447867" style="fill: #0072b2; fill-opacity: 0.4"/>
    </g>
    <g clip-path="url(#pce8d2a51f1)">
     <use xlink:href="#C0_0_c2a4a243c9" x="126.450707" y="251.438044" style="fill: #0072b2; fill-opacity: 0.4"/>
    </g>
    <g clip-path="url(#pce8d2a51f1)">
     <use xlink:href="#C0_0_c2a4a243c9" x="124.466595" y="304.857534" style="fill: #0072b2; fill-opacity: 0.4"/>
    </g>
    <g clip-path="url(#pce8d2a51f1)">
     <use xlink:href="#C0_0_c2a4a243c9" x="120.215806" y="322.340761" style="fill: #0072b2; fill-opacity: 0.4"/>
    </g>
    <g clip-path="url(#pce8d2a51f1)">
     <use xlink:href="#C0_0_c2a4a243c9" x="125.049072" y="316.021171" style="fill: #0072b2; fill-opacity: 0.4"/>
    </g>
    <g clip-path="url(#pce8d2a51f1)">
     <use xlink:href="#C0_0_c2a4a243c9" x="124.112975" y="266.850884" style="fill: #0072b2; fill-opacity: 0.4"/>
    </g>
    <g clip-path="url(#pce8d2a51f1)">
     <use xlink:href="#C0_0_c2a4a243c9" x="123.808474" y="283.744419" style="fill: #0072b2; fill-opacity: 0.4"/>
    </g>
    <g clip-path="url(#pce8d2a51f1)">
     <use xlink:href="#C0_0_c2a4a243c9" x="122.659845" y="251.334249" style="fill: #0072b2; fill-opacity: 0.4"/>
    </g>
    <g clip-path="url(#pce8d2a51f1)">
     <use xlink:href="#C0_0_c2a4a243c9" x="124.900344" y="316.307683" style="fill: #0072b2; fill-opacity: 0.4"/>
    </g>
    <g clip-path="url(#pce8d2a51f1)">
     <use xlink:href="#C0_0_c2a4a243c9" x="119.353392" y="274.21926" style="fill: #0072b2; fill-opacity: 0.4"/>
    </g>
    <g clip-path="url(#pce8d2a51f1)">
     <use xlink:href="#C0_0_c2a4a243c9" x="121.832743" y="260.771783" style="fill: #0072b2; fill-opacity: 0.4"/>
    </g>
    <g clip-path="url(#pce8d2a51f1)">
     <use xlink:href="#C0_0_c2a4a243c9" x="120.452845" y="262.395987" style="fill: #0072b2; fill-opacity: 0.4"/>
    </g>
    <g clip-path="url(#pce8d2a51f1)">
     <use xlink:href="#C0_0_c2a4a243c9" x="125.125708" y="318.193762" style="fill: #0072b2; fill-opacity: 0.4"/>
    </g>
    <g clip-path="url(#pce8d2a51f1)">
     <use xlink:href="#C0_0_c2a4a243c9" x="122.708693" y="268.759951" style="fill: #0072b2; fill-opacity: 0.4"/>
    </g>
    <g clip-path="url(#pce8d2a51f1)">
     <use xlink:href="#C0_0_c2a4a243c9" x="121.27273" y="264.11314" style="fill: #0072b2; fill-opacity: 0.4"/>
    </g>
    <g clip-path="url(#pce8d2a51f1)">
     <use xlink:href="#C0_0_c2a4a243c9" x="119.156899" y="261.520439" style="fill: #0072b2; fill-opacity: 0.4"/>
    </g>
    <g clip-path="url(#pce8d2a51f1)">
     <use xlink:href="#C0_0_c2a4a243c9" x="121.425174" y="299.317217" style="fill: #0072b2; fill-opacity: 0.4"/>
    </g>
    <g clip-path="url(#pce8d2a51f1)">
     <use xlink:href="#C0_0_c2a4a243c9" x="122.572177" y="299.317217" style="fill: #0072b2; fill-opacity: 0.4"/>
    </g>
    <g clip-path="url(#pce8d2a51f1)">
     <use xlink:href="#C0_0_c2a4a243c9" x="121.345587" y="314.855256" style="fill: #0072b2; fill-opacity: 0.4"/>
    </g>
    <g clip-path="url(#pce8d2a51f1)">
     <use xlink:href="#C0_0_c2a4a243c9" x="128.131037" y="302.544665" style="fill: #0072b2; fill-opacity: 0.4"/>
    </g>
    <g clip-path="url(#pce8d2a51f1)">
     <use xlink:href="#C0_0_c2a4a243c9" x="126.888909" y="219.073748" style="fill: #0072b2; fill-opacity: 0.4"/>
    </g>
    <g clip-path="url(#pce8d2a51f1)">
     <use xlink:href="#C0_0_c2a4a243c9" x="110.817003" y="173.780803" style="fill: #0072b2; fill-opacity: 0.4"/>
    </g>
    <g clip-path="url(#pce8d2a51f1)">
     <use xlink:href="#C0_0_c2a4a243c9" x="114.371039" y="173.028175" style="fill: #0072b2; fill-opacity: 0.4"/>
    </g>
    <g clip-path="url(#pce8d2a51f1)">
     <use xlink:href="#C0_0_c2a4a243c9" x="121.781464" y="94.411826" style="fill: #0072b2; fill-opacity: 0.4"/>
    </g>
   </g>
   <g id="PathCollection_2">
    <defs>
     <path id="C1_0_a1420d50ce" d="M 0 2.828427 
C 0.750108 2.828427 1.469594 2.530406 2 2 
C 2.530406 1.469594 2.828427 0.750108 2.828427 -0 
C 2.828427 -0.750108 2.530406 -1.469594 2 -2 
C 1.469594 -2.530406 0.750108 -2.828427 0 -2.828427 
C -0.750108 -2.828427 -1.469594 -2.530406 -2 -2 
C -2.530406 -1.469594 -2.828427 -0.750108 -2.828427 0 
C -2.828427 0.750108 -2.530406 1.469594 -2 2 
C -1.469594 2.530406 -0.750108 2.828427 0 2.828427 
z
"/>
    </defs>
    <g clip-path="url(#pce8d2a51f1)">
     <use xlink:href="#C1_0_a1420d50ce" x="228.78342" y="191.637613" style="fill: #56b4e9; fill-opacity: 0.4"/>
    </g>
    <g clip-path="url(#pce8d2a51f1)">
     <use xlink:href="#C1_0_a1420d50ce" x="231.532039" y="209.829825" style="fill: #56b4e9; fill-opacity: 0.4"/>
    </g>
    <g clip-path="url(#pce8d2a51f1)">
     <use xlink:href="#C1_0_a1420d50ce" x="231.547942" y="186.77754" style="fill: #56b4e9; fill-opacity: 0.4"/>
    </g>
    <g clip-path="url(#pce8d2a51f1)">
     <use xlink:href="#C1_0_a1420d50ce" x="239.763611" y="200.424225" style="fill: #56b4e9; fill-opacity: 0.4"/>
    </g>
    <g clip-path="url(#pce8d2a51f1)">
     <use xlink:href="#C1_0_a1420d50ce" x="225.801379" y="270.567195" style="fill: #56b4e9; fill-opacity: 0.4"/>
    </g>
    <g clip-path="url(#pce8d2a51f1)">
     <use xlink:href="#C1_0_a1420d50ce" x="228.976156" y="314.621832" style="fill: #56b4e9; fill-opacity: 0.4"/>
    </g>
    <g clip-path="url(#pce8d2a51f1)">
     <use xlink:href="#C1_0_a1420d50ce" x="239.439106" y="322.340761" style="fill: #56b4e9; fill-opacity: 0.4"/>
    </g>
    <g clip-path="url(#pce8d2a51f1)">
     <use xlink:href="#C1_0_a1420d50ce" x="233.404097" y="303.074938" style="fill: #56b4e9; fill-opacity: 0.4"/>
    </g>
    <g clip-path="url(#pce8d2a51f1)">
     <use xlink:href="#C1_0_a1420d50ce" x="233.47482" y="245.635231" style="fill: #56b4e9; fill-opacity: 0.4"/>
    </g>
    <g clip-path="url(#pce8d2a51f1)">
     <use xlink:href="#C1_0_a1420d50ce" x="228.386512" y="307.981399" style="fill: #56b4e9; fill-opacity: 0.4"/>
    </g>
    <g clip-path="url(#pce8d2a51f1)">
     <use xlink:href="#C1_0_a1420d50ce" x="223.484091" y="266.640438" style="fill: #56b4e9; fill-opacity: 0.4"/>
    </g>
    <g clip-path="url(#pce8d2a51f1)">
     <use xlink:href="#C1_0_a1420d50ce" x="231.332417" y="292.810579" style="fill: #56b4e9; fill-opacity: 0.4"/>
    </g>
    <g clip-path="url(#pce8d2a51f1)">
     <use xlink:href="#C1_0_a1420d50ce" x="231.079743" y="255.769337" style="fill: #56b4e9; fill-opacity: 0.4"/>
    </g>
    <g clip-path="url(#pce8d2a51f1)">
     <use xlink:href="#C1_0_a1420d50ce" x="225.302818" y="255.769337" style="fill: #56b4e9; fill-opacity: 0.4"/>
    </g>
    <g clip-path="url(#pce8d2a51f1)">
     <use xlink:href="#C1_0_a1420d50ce" x="227.654996" y="255.769337" style="fill: #56b4e9; fill-opacity: 0.4"/>
    </g>
    <g clip-path="url(#pce8d2a51f1)">
     <use xlink:href="#C1_0_a1420d50ce" x="230.297055" y="265.780667" style="fill: #56b4e9; fill-opacity: 0.4"/>
    </g>
    <g clip-path="url(#pce8d2a51f1)">
     <use xlink:href="#C1_0_a1420d50ce" x="226.524461" y="265.780667" style="fill: #56b4e9; fill-opacity: 0.4"/>
    </g>
    <g clip-path="url(#pce8d2a51f1)">
     <use xlink:href="#C1_0_a1420d50ce" x="230.183683" y="272.406014" style="fill: #56b4e9; fill-opacity: 0.4"/>
    </g>
    <g clip-path="url(#pce8d2a51f1)">
     <use xlink:href="#C1_0_a1420d50ce" x="231.02125" y="272.406014" style="fill: #56b4e9; fill-opacity: 0.4"/>
    </g>
    <g clip-path="url(#pce8d2a51f1)">
     <use xlink:href="#C1_0_a1420d50ce" x="230.762324" y="299.317217" style="fill: #56b4e9; fill-opacity: 0.4"/>
    </g>
    <g clip-path="url(#pce8d2a51f1)">
     <use xlink:href="#C1_0_a1420d50ce" x="228.419862" y="299.317217" style="fill: #56b4e9; fill-opacity: 0.4"/>
    </g>
    <g clip-path="url(#pce8d2a51f1)">
     <use xlink:href="#C1_0_a1420d50ce" x="233.17518" y="307.155616" style="fill: #56b4e9; fill-opacity: 0.4"/>
    </g>
    <g clip-path="url(#pce8d2a51f1)">
     <use xlink:href="#C1_0_a1420d50ce" x="234.46088" y="300.406202" style="fill: #56b4e9; fill-opacity: 0.4"/>
    </g>
    <g clip-path="url(#pce8d2a51f1)">
     <use xlink:href="#C1_0_a1420d50ce" x="231.995472" y="300.406202" style="fill: #56b4e9; fill-opacity: 0.4"/>
    </g>
    <g clip-path="url(#pce8d2a51f1)">
     <use xlink:href="#C1_0_a1420d50ce" x="227.071395" y="163.528121" style="fill: #56b4e9; fill-opacity: 0.4"/>
    </g>
    <g clip-path="url(#pce8d2a51f1)">
     <use xlink:href="#C1_0_a1420d50ce" x="233.771321" y="162.713932" style="fill: #56b4e9; fill-opacity: 0.4"/>
    </g>
    <g clip-path="url(#pce8d2a51f1)">
     <use xlink:href="#C1_0_a1420d50ce" x="228.440835" y="163.528121" style="fill: #56b4e9; fill-opacity: 0.4"/>
    </g>
   </g>
   <g id="PathCollection_3">
    <defs>
     <path id="C2_0_252865344e" d="M 0 2.828427 
C 0.750108 2.828427 1.469594 2.530406 2 2 
C 2.530406 1.469594 2.828427 0.750108 2.828427 -0 
C 2.828427 -0.750108 2.530406 -1.469594 2 -2 
C 1.469594 -2.530406 0.750108 -2.828427 0 -2.828427 
C -0.750108 -2.828427 -1.469594 -2.530406 -2 -2 
C -2.530406 -1.469594 -2.828427 -0.750108 -2.828427 0 
C -2.828427 0.750108 -2.530406 1.469594 -2 2 
C -1.469594 2.530406 -0.750108 2.828427 0 2.828427 
z
"/>
    </defs>
    <g clip-path="url(#pce8d2a51f1)">
     <use xlink:href="#C2_0_252865344e" x="342.480489" y="202.204778" style="fill: #d55e00; fill-opacity: 0.4"/>
    </g>
    <g clip-path="url(#pce8d2a51f1)">
     <use xlink:href="#C2_0_252865344e" x="334.046813" y="240.941436" style="fill: #d55e00; fill-opacity: 0.4"/>
    </g>
    <g clip-path="url(#pce8d2a51f1)">
     <use xlink:href="#C2_0_252865344e" x="342.633114" y="209.742532" style="fill: #d55e00; fill-opacity: 0.4"/>
    </g>
    <g clip-path="url(#pce8d2a51f1)">
     <use xlink:href="#C2_0_252865344e" x="338.593268" y="228.359822" style="fill: #d55e00; fill-opacity: 0.4"/>
    </g>
    <g clip-path="url(#pce8d2a51f1)">
     <use xlink:href="#C2_0_252865344e" x="333.281833" y="277.346866" style="fill: #d55e00; fill-opacity: 0.4"/>
    </g>
    <g clip-path="url(#pce8d2a51f1)">
     <use xlink:href="#C2_0_252865344e" x="337.323056" y="314.621832" style="fill: #d55e00; fill-opacity: 0.4"/>
    </g>
    <g clip-path="url(#pce8d2a51f1)">
     <use xlink:href="#C2_0_252865344e" x="338.913877" y="322.340761" style="fill: #d55e00; fill-opacity: 0.4"/>
    </g>
    <g clip-path="url(#pce8d2a51f1)">
     <use xlink:href="#C2_0_252865344e" x="339.859239" y="315.976637" style="fill: #d55e00; fill-opacity: 0.4"/>
    </g>
    <g clip-path="url(#pce8d2a51f1)">
     <use xlink:href="#C2_0_252865344e" x="334.434138" y="267.291486" style="fill: #d55e00; fill-opacity: 0.4"/>
    </g>
    <g clip-path="url(#pce8d2a51f1)">
     <use xlink:href="#C2_0_252865344e" x="333.892981" y="308.230447" style="fill: #d55e00; fill-opacity: 0.4"/>
    </g>
    <g clip-path="url(#pce8d2a51f1)">
     <use xlink:href="#C2_0_252865344e" x="339.542776" y="268.725818" style="fill: #d55e00; fill-opacity: 0.4"/>
    </g>
    <g clip-path="url(#pce8d2a51f1)">
     <use xlink:href="#C2_0_252865344e" x="336.662307" y="313.139505" style="fill: #d55e00; fill-opacity: 0.4"/>
    </g>
    <g clip-path="url(#pce8d2a51f1)">
     <use xlink:href="#C2_0_252865344e" x="339.698058" y="270.575682" style="fill: #d55e00; fill-opacity: 0.4"/>
    </g>
    <g clip-path="url(#pce8d2a51f1)">
     <use xlink:href="#C2_0_252865344e" x="341.963297" y="270.575682" style="fill: #d55e00; fill-opacity: 0.4"/>
    </g>
    <g clip-path="url(#pce8d2a51f1)">
     <use xlink:href="#C2_0_252865344e" x="331.552522" y="270.575682" style="fill: #d55e00; fill-opacity: 0.4"/>
    </g>
    <g clip-path="url(#pce8d2a51f1)">
     <use xlink:href="#C2_0_252865344e" x="339.779684" y="265.822992" style="fill: #d55e00; fill-opacity: 0.4"/>
    </g>
    <g clip-path="url(#pce8d2a51f1)">
     <use xlink:href="#C2_0_252865344e" x="343.973978" y="265.822992" style="fill: #d55e00; fill-opacity: 0.4"/>
    </g>
    <g clip-path="url(#pce8d2a51f1)">
     <use xlink:href="#C2_0_252865344e" x="337.393833" y="272.444492" style="fill: #d55e00; fill-opacity: 0.4"/>
    </g>
    <g clip-path="url(#pce8d2a51f1)">
     <use xlink:href="#C2_0_252865344e" x="335.174962" y="272.444492" style="fill: #d55e00; fill-opacity: 0.4"/>
    </g>
    <g clip-path="url(#pce8d2a51f1)">
     <use xlink:href="#C2_0_252865344e" x="341.931845" y="311.375915" style="fill: #d55e00; fill-opacity: 0.4"/>
    </g>
    <g clip-path="url(#pce8d2a51f1)">
     <use xlink:href="#C2_0_252865344e" x="339.775614" y="311.375915" style="fill: #d55e00; fill-opacity: 0.4"/>
    </g>
    <g clip-path="url(#pce8d2a51f1)">
     <use xlink:href="#C2_0_252865344e" x="342.552777" y="308.216551" style="fill: #d55e00; fill-opacity: 0.4"/>
    </g>
    <g clip-path="url(#pce8d2a51f1)">
     <use xlink:href="#C2_0_252865344e" x="337.187681" y="301.404234" style="fill: #d55e00; fill-opacity: 0.4"/>
    </g>
    <g clip-path="url(#pce8d2a51f1)">
     <use xlink:href="#C2_0_252865344e" x="332.274306" y="301.404234" style="fill: #d55e00; fill-opacity: 0.4"/>
    </g>
    <g clip-path="url(#pce8d2a51f1)">
     <use xlink:href="#C2_0_252865344e" x="338.204439" y="162.962073" style="fill: #d55e00; fill-opacity: 0.4"/>
    </g>
    <g clip-path="url(#pce8d2a51f1)">
     <use xlink:href="#C2_0_252865344e" x="336.752747" y="162.962073" style="fill: #d55e00; fill-opacity: 0.4"/>
    </g>
    <g clip-path="url(#pce8d2a51f1)">
     <use xlink:href="#C2_0_252865344e" x="342.031617" y="162.962073" style="fill: #d55e00; fill-opacity: 0.4"/>
    </g>
   </g>
   <g id="PathCollection_4">
    <defs>
     <path id="C3_0_729ad9ebd7" d="M 0 2.828427 
C 0.750108 2.828427 1.469594 2.530406 2 2 
C 2.530406 1.469594 2.828427 0.750108 2.828427 -0 
C 2.828427 -0.750108 2.530406 -1.469594 2 -2 
C 1.469594 -2.530406 0.750108 -2.828427 0 -2.828427 
C -0.750108 -2.828427 -1.469594 -2.530406 -2 -2 
C -2.530406 -1.469594 -2.828427 -0.750108 -2.828427 0 
C -2.828427 0.750108 -2.530406 1.469594 -2 2 
C -1.469594 2.530406 -0.750108 2.828427 0 2.828427 
z
"/>
    </defs>
    <g clip-path="url(#pce8d2a51f1)">
     <use xlink:href="#C3_0_729ad9ebd7" x="447.588558" y="201.035099" style="fill: #009e73; fill-opacity: 0.4"/>
    </g>
    <g clip-path="url(#pce8d2a51f1)">
     <use xlink:href="#C3_0_729ad9ebd7" x="439.701577" y="240.941436" style="fill: #009e73; fill-opacity: 0.4"/>
    </g>
    <g clip-path="url(#pce8d2a51f1)">
     <use xlink:href="#C3_0_729ad9ebd7" x="441.584987" y="190.056989" style="fill: #009e73; fill-opacity: 0.4"/>
    </g>
    <g clip-path="url(#pce8d2a51f1)">
     <use xlink:href="#C3_0_729ad9ebd7" x="450.572007" y="204.579023" style="fill: #009e73; fill-opacity: 0.4"/>
    </g>
    <g clip-path="url(#pce8d2a51f1)">
     <use xlink:href="#C3_0_729ad9ebd7" x="449.690039" y="273.845712" style="fill: #009e73; fill-opacity: 0.4"/>
    </g>
    <g clip-path="url(#pce8d2a51f1)">
     <use xlink:href="#C3_0_729ad9ebd7" x="443.983827" y="314.621832" style="fill: #009e73; fill-opacity: 0.4"/>
    </g>
    <g clip-path="url(#pce8d2a51f1)">
     <use xlink:href="#C3_0_729ad9ebd7" x="446.746976" y="322.340761" style="fill: #009e73; fill-opacity: 0.4"/>
    </g>
    <g clip-path="url(#pce8d2a51f1)">
     <use xlink:href="#C3_0_729ad9ebd7" x="448.677662" y="303.757653" style="fill: #009e73; fill-opacity: 0.4"/>
    </g>
    <g clip-path="url(#pce8d2a51f1)">
     <use xlink:href="#C3_0_729ad9ebd7" x="448.776357" y="248.723792" style="fill: #009e73; fill-opacity: 0.4"/>
    </g>
    <g clip-path="url(#pce8d2a51f1)">
     <use xlink:href="#C3_0_729ad9ebd7" x="450.539383" y="308.230447" style="fill: #009e73; fill-opacity: 0.4"/>
    </g>
    <g clip-path="url(#pce8d2a51f1)">
     <use xlink:href="#C3_0_729ad9ebd7" x="447.860262" y="266.863518" style="fill: #009e73; fill-opacity: 0.4"/>
    </g>
    <g clip-path="url(#pce8d2a51f1)">
     <use xlink:href="#C3_0_729ad9ebd7" x="446.34158" y="301.314292" style="fill: #009e73; fill-opacity: 0.4"/>
    </g>
    <g clip-path="url(#pce8d2a51f1)">
     <use xlink:href="#C3_0_729ad9ebd7" x="445.632546" y="262.019988" style="fill: #009e73; fill-opacity: 0.4"/>
    </g>
    <g clip-path="url(#pce8d2a51f1)">
     <use xlink:href="#C3_0_729ad9ebd7" x="451.315339" y="262.019988" style="fill: #009e73; fill-opacity: 0.4"/>
    </g>
    <g clip-path="url(#pce8d2a51f1)">
     <use xlink:href="#C3_0_729ad9ebd7" x="437.021381" y="262.019988" style="fill: #009e73; fill-opacity: 0.4"/>
    </g>
    <g clip-path="url(#pce8d2a51f1)">
     <use xlink:href="#C3_0_729ad9ebd7" x="446.152122" y="265.959965" style="fill: #009e73; fill-opacity: 0.4"/>
    </g>
    <g clip-path="url(#pce8d2a51f1)">
     <use xlink:href="#C3_0_729ad9ebd7" x="446.894165" y="265.959965" style="fill: #009e73; fill-opacity: 0.4"/>
    </g>
    <g clip-path="url(#pce8d2a51f1)">
     <use xlink:href="#C3_0_729ad9ebd7" x="440.589925" y="272.589382" style="fill: #009e73; fill-opacity: 0.4"/>
    </g>
    <g clip-path="url(#pce8d2a51f1)">
     <use xlink:href="#C3_0_729ad9ebd7" x="448.190217" y="272.589382" style="fill: #009e73; fill-opacity: 0.4"/>
    </g>
    <g clip-path="url(#pce8d2a51f1)">
     <use xlink:href="#C3_0_729ad9ebd7" x="443.936113" y="311.056059" style="fill: #009e73; fill-opacity: 0.4"/>
    </g>
    <g clip-path="url(#pce8d2a51f1)">
     <use xlink:href="#C3_0_729ad9ebd7" x="450.479739" y="311.056059" style="fill: #009e73; fill-opacity: 0.4"/>
    </g>
    <g clip-path="url(#pce8d2a51f1)">
     <use xlink:href="#C3_0_729ad9ebd7" x="446.208593" y="308.022261" style="fill: #009e73; fill-opacity: 0.4"/>
    </g>
    <g clip-path="url(#pce8d2a51f1)">
     <use xlink:href="#C3_0_729ad9ebd7" x="449.644166" y="301.230579" style="fill: #009e73; fill-opacity: 0.4"/>
    </g>
    <g clip-path="url(#pce8d2a51f1)">
     <use xlink:href="#C3_0_729ad9ebd7" x="452.020401" y="301.230579" style="fill: #009e73; fill-opacity: 0.4"/>
    </g>
    <g clip-path="url(#pce8d2a51f1)">
     <use xlink:href="#C3_0_729ad9ebd7" x="448.406861" y="163.775706" style="fill: #009e73; fill-opacity: 0.4"/>
    </g>
    <g clip-path="url(#pce8d2a51f1)">
     <use xlink:href="#C3_0_729ad9ebd7" x="442.96589" y="162.962073" style="fill: #009e73; fill-opacity: 0.4"/>
    </g>
    <g clip-path="url(#pce8d2a51f1)">
     <use xlink:href="#C3_0_729ad9ebd7" x="440.205322" y="163.775706" style="fill: #009e73; fill-opacity: 0.4"/>
    </g>
   </g>
   <g id="PathCollection_5">
    <defs>
     <path id="C4_0_6838adbaf8" d="M 0 2.828427 
C 0.750108 2.828427 1.469594 2.530406 2 2 
C 2.530406 1.469594 2.828427 0.750108 2.828427 -0 
C 2.828427 -0.750108 2.530406 -1.469594 2 -2 
C 1.469594 -2.530406 0.750108 -2.828427 0 -2.828427 
C -0.750108 -2.828427 -1.469594 -2.530406 -2 -2 
C -2.530406 -1.469594 -2.828427 -0.750108 -2.828427 0 
C -2.828427 0.750108 -2.530406 1.469594 -2 2 
C -1.469594 2.530406 -0.750108 2.828427 0 2.828427 
z
"/>
    </defs>
    <g clip-path="url(#pce8d2a51f1)">
     <use xlink:href="#C4_0_6838adbaf8" x="562.402655" y="201.154182" style="fill: #e69f00; fill-opacity: 0.4"/>
    </g>
    <g clip-path="url(#pce8d2a51f1)">
     <use xlink:href="#C4_0_6838adbaf8" x="554.34192" y="240.941436" style="fill: #e69f00; fill-opacity: 0.4"/>
    </g>
    <g clip-path="url(#pce8d2a51f1)">
     <use xlink:href="#C4_0_6838adbaf8" x="551.84645" y="188.421428" style="fill: #e69f00; fill-opacity: 0.4"/>
    </g>
    <g clip-path="url(#pce8d2a51f1)">
     <use xlink:href="#C4_0_6838adbaf8" x="555.446623" y="202.386424" style="fill: #e69f00; fill-opacity: 0.4"/>
    </g>
    <g clip-path="url(#pce8d2a51f1)">
     <use xlink:href="#C4_0_6838adbaf8" x="553.995576" y="273.803297" style="fill: #e69f00; fill-opacity: 0.4"/>
    </g>
    <g clip-path="url(#pce8d2a51f1)">
     <use xlink:href="#C4_0_6838adbaf8" x="558.506712" y="314.621832" style="fill: #e69f00; fill-opacity: 0.4"/>
    </g>
    <g clip-path="url(#pce8d2a51f1)">
     <use xlink:href="#C4_0_6838adbaf8" x="554.969687" y="322.340761" style="fill: #e69f00; fill-opacity: 0.4"/>
    </g>
    <g clip-path="url(#pce8d2a51f1)">
     <use xlink:href="#C4_0_6838adbaf8" x="554.882458" y="303.757653" style="fill: #e69f00; fill-opacity: 0.4"/>
    </g>
    <g clip-path="url(#pce8d2a51f1)">
     <use xlink:href="#C4_0_6838adbaf8" x="551.733992" y="249.769851" style="fill: #e69f00; fill-opacity: 0.4"/>
    </g>
    <g clip-path="url(#pce8d2a51f1)">
     <use xlink:href="#C4_0_6838adbaf8" x="556.852898" y="308.230447" style="fill: #e69f00; fill-opacity: 0.4"/>
    </g>
    <g clip-path="url(#pce8d2a51f1)">
     <use xlink:href="#C4_0_6838adbaf8" x="550.353759" y="266.863518" style="fill: #e69f00; fill-opacity: 0.4"/>
    </g>
    <g clip-path="url(#pce8d2a51f1)">
     <use xlink:href="#C4_0_6838adbaf8" x="557.701567" y="300.947796" style="fill: #e69f00; fill-opacity: 0.4"/>
    </g>
    <g clip-path="url(#pce8d2a51f1)">
     <use xlink:href="#C4_0_6838adbaf8" x="561.410789" y="261.753054" style="fill: #e69f00; fill-opacity: 0.4"/>
    </g>
    <g clip-path="url(#pce8d2a51f1)">
     <use xlink:href="#C4_0_6838adbaf8" x="548.232015" y="261.753054" style="fill: #e69f00; fill-opacity: 0.4"/>
    </g>
    <g clip-path="url(#pce8d2a51f1)">
     <use xlink:href="#C4_0_6838adbaf8" x="544.161855" y="261.753054" style="fill: #e69f00; fill-opacity: 0.4"/>
    </g>
    <g clip-path="url(#pce8d2a51f1)">
     <use xlink:href="#C4_0_6838adbaf8" x="557.489701" y="265.959965" style="fill: #e69f00; fill-opacity: 0.4"/>
    </g>
    <g clip-path="url(#pce8d2a51f1)">
     <use xlink:href="#C4_0_6838adbaf8" x="565.837227" y="265.959965" style="fill: #e69f00; fill-opacity: 0.4"/>
    </g>
    <g clip-path="url(#pce8d2a51f1)">
     <use xlink:href="#C4_0_6838adbaf8" x="550.496162" y="272.589382" style="fill: #e69f00; fill-opacity: 0.4"/>
    </g>
    <g clip-path="url(#pce8d2a51f1)">
     <use xlink:href="#C4_0_6838adbaf8" x="549.416437" y="272.589382" style="fill: #e69f00; fill-opacity: 0.4"/>
    </g>
    <g clip-path="url(#pce8d2a51f1)">
     <use xlink:href="#C4_0_6838adbaf8" x="557.369051" y="310.417744" style="fill: #e69f00; fill-opacity: 0.4"/>
    </g>
    <g clip-path="url(#pce8d2a51f1)">
     <use xlink:href="#C4_0_6838adbaf8" x="551.188698" y="310.417744" style="fill: #e69f00; fill-opacity: 0.4"/>
    </g>
    <g clip-path="url(#pce8d2a51f1)">
     <use xlink:href="#C4_0_6838adbaf8" x="552.635543" y="308.022812" style="fill: #e69f00; fill-opacity: 0.4"/>
    </g>
    <g clip-path="url(#pce8d2a51f1)">
     <use xlink:href="#C4_0_6838adbaf8" x="553.318157" y="301.231103" style="fill: #e69f00; fill-opacity: 0.4"/>
    </g>
    <g clip-path="url(#pce8d2a51f1)">
     <use xlink:href="#C4_0_6838adbaf8" x="557.122791" y="301.231103" style="fill: #e69f00; fill-opacity: 0.4"/>
    </g>
    <g clip-path="url(#pce8d2a51f1)">
     <use xlink:href="#C4_0_6838adbaf8" x="553.070955" y="163.775706" style="fill: #e69f00; fill-opacity: 0.4"/>
    </g>
    <g clip-path="url(#pce8d2a51f1)">
     <use xlink:href="#C4_0_6838adbaf8" x="556.024269" y="162.962073" style="fill: #e69f00; fill-opacity: 0.4"/>
    </g>
    <g clip-path="url(#pce8d2a51f1)">
     <use xlink:href="#C4_0_6838adbaf8" x="554.059892" y="163.775706" style="fill: #e69f00; fill-opacity: 0.4"/>
    </g>
   </g>
   <g id="text_14">
    <g id="patch_7">
     <path d="M 65.9248 321.3044 
L 267.896831 321.3044 
Q 270.096831 321.3044 270.096831 319.1044 
L 270.096831 296.140869 
Q 270.096831 293.940869 267.896831 293.940869 
L 65.9248 293.940869 
Q 63.7248 293.940869 63.7248 296.140869 
L 63.7248 319.1044 
Q 63.7248 321.3044 65.9248 321.3044 
z
" style="fill: #ffffff; opacity: 0.85; stroke: #bbbbbb; stroke-linejoin: miter"/>
    </g>
    <!-- Pairwise BH q-threshold: alpha=0.05 -->
    <g transform="translate(65.9248 304.49915) scale(0.11 -0.11)">
     <defs>
      <path id="DejaVuSans-72" d="M 2631 2963 
Q 2534 3019 2420 3045 
Q 2306 3072 2169 3072 
Q 1681 3072 1420 2755 
Q 1159 2438 1159 1844 
L 1159 0 
L 581 0 
L 581 3500 
L 1159 3500 
L 1159 2956 
Q 1341 3275 1631 3429 
Q 1922 3584 2338 3584 
Q 2397 3584 2469 3576 
Q 2541 3569 2628 3553 
L 2631 2963 
z
" transform="scale(0.015625)"/>
      <path id="DejaVuSans-77" d="M 269 3500 
L 844 3500 
L 1563 769 
L 2278 3500 
L 2956 3500 
L 3675 769 
L 4391 3500 
L 4966 3500 
L 4050 0 
L 3372 0 
L 2619 2869 
L 1863 0 
L 1184 0 
L 269 3500 
z
" transform="scale(0.015625)"/>
      <path id="DejaVuSans-20" transform="scale(0.015625)"/>
      <path id="DejaVuSans-42" d="M 1259 2228 
L 1259 519 
L 2272 519 
Q 2781 519 3026 730 
Q 3272 941 3272 1375 
Q 3272 1813 3026 2020 
Q 2781 2228 2272 2228 
L 1259 2228 
z
M 1259 4147 
L 1259 2741 
L 2194 2741 
Q 2656 2741 2882 2914 
Q 3109 3088 3109 3444 
Q 3109 3797 2882 3972 
Q 2656 4147 2194 4147 
L 1259 4147 
z
M 628 4666 
L 2241 4666 
Q 2963 4666 3353 4366 
Q 3744 4066 3744 3513 
Q 3744 3084 3544 2831 
Q 3344 2578 2956 2516 
Q 3422 2416 3680 2098 
Q 3938 1781 3938 1306 
Q 3938 681 3513 340 
Q 3088 0 2303 0 
L 628 0 
L 628 4666 
z
" transform="scale(0.015625)"/>
      <path id="DejaVuSans-48" d="M 628 4666 
L 1259 4666 
L 1259 2753 
L 3553 2753 
L 3553 4666 
L 4184 4666 
L 4184 0 
L 3553 0 
L 3553 2222 
L 1259 2222 
L 1259 0 
L 628 0 
L 628 4666 
z
" transform="scale(0.015625)"/>
      <path id="DejaVuSans-71" d="M 947 1747 
Q 947 1113 1208 752 
Q 1469 391 1925 391 
Q 2381 391 2643 752 
Q 2906 1113 2906 1747 
Q 2906 2381 2643 2742 
Q 2381 3103 1925 3103 
Q 1469 3103 1208 2742 
Q 947 2381 947 1747 
z
M 2906 525 
Q 2725 213 2448 61 
Q 2172 -91 1784 -91 
Q 1150 -91 751 415 
Q 353 922 353 1747 
Q 353 2572 751 3078 
Q 1150 3584 1784 3584 
Q 2172 3584 2448 3432 
Q 2725 3281 2906 2969 
L 2906 3500 
L 3481 3500 
L 3481 -1331 
L 2906 -1331 
L 2906 525 
z
" transform="scale(0.015625)"/>
      <path id="DejaVuSans-2d" d="M 313 2009 
L 1997 2009 
L 1997 1497 
L 313 1497 
L 313 2009 
z
" transform="scale(0.015625)"/>
      <path id="DejaVuSans-6c" d="M 603 4863 
L 1178 4863 
L 1178 0 
L 603 0 
L 603 4863 
z
" transform="scale(0.015625)"/>
      <path id="DejaVuSans-3a" d="M 750 794 
L 1409 794 
L 1409 0 
L 750 0 
L 750 794 
z
M 750 3309 
L 1409 3309 
L 1409 2516 
L 750 2516 
L 750 3309 
z
" transform="scale(0.015625)"/>
      <path id="DejaVuSans-70" d="M 1159 525 
L 1159 -1331 
L 581 -1331 
L 581 3500 
L 1159 3500 
L 1159 2969 
Q 1341 3281 1617 3432 
Q 1894 3584 2278 3584 
Q 2916 3584 3314 3078 
Q 3713 2572 3713 1747 
Q 3713 922 3314 415 
Q 2916 -91 2278 -91 
Q 1894 -91 1617 61 
Q 1341 213 1159 525 
z
M 3116 1747 
Q 3116 2381 2855 2742 
Q 2594 3103 2138 3103 
Q 1681 3103 1420 2742 
Q 1159 2381 1159 1747 
Q 1159 1113 1420 752 
Q 1681 391 2138 391 
Q 2594 391 2855 752 
Q 3116 1113 3116 1747 
z
" transform="scale(0.015625)"/>
      <path id="DejaVuSans-3d" d="M 678 2906 
L 4684 2906 
L 4684 2381 
L 678 2381 
L 678 2906 
z
M 678 1631 
L 4684 1631 
L 4684 1100 
L 678 1100 
L 678 1631 
z
" transform="scale(0.015625)"/>
      <path id="DejaVuSans-35" d="M 691 4666 
L 3169 4666 
L 3169 4134 
L 1269 4134 
L 1269 2991 
Q 1406 3038 1543 3061 
Q 1681 3084 1819 3084 
Q 2600 3084 3056 2656 
Q 3513 2228 3513 1497 
Q 3513 744 3044 326 
Q 2575 -91 1722 -91 
Q 1428 -91 1123 -41 
Q 819 9 494 109 
L 494 744 
Q 775 591 1075 516 
Q 1375 441 1709 441 
Q 2250 441 2565 725 
Q 2881 1009 2881 1497 
Q 2881 1984 2565 2268 
Q 2250 2553 1709 2553 
Q 1456 2553 1204 2497 
Q 953 2441 691 2322 
L 691 4666 
z
" transform="scale(0.015625)"/>
     </defs>
     <use xlink:href="#DejaVuSans-50"/>
     <use xlink:href="#DejaVuSans-61" x="55.802734"/>
     <use xlink:href="#DejaVuSans-69" x="117.082031"/>
     <use xlink:href="#DejaVuSans-72" x="144.865234"/>
     <use xlink:href="#DejaVuSans-77" x="185.978516"/>
     <use xlink:href="#DejaVuSans-69" x="267.765625"/>
     <use xlink:href="#DejaVuSans-73" x="295.548828"/>
     <use xlink:href="#DejaVuSans-65" x="347.648438"/>
     <use xlink:href="#DejaVuSans-20" x="409.171875"/>
     <use xlink:href="#DejaVuSans-42" x="440.958984"/>
     <use xlink:href="#DejaVuSans-48" x="509.5625"/>
     <use xlink:href="#DejaVuSans-20" x="584.757812"/>
     <use xlink:href="#DejaVuSans-71" x="616.544922"/>
     <use xlink:href="#DejaVuSans-2d" x="680.021484"/>
     <use xlink:href="#DejaVuSans-74" x="716.105469"/>
     <use xlink:href="#DejaVuSans-68" x="755.314453"/>
     <use xlink:href="#DejaVuSans-72" x="818.693359"/>
     <use xlink:href="#DejaVuSans-65" x="857.556641"/>
     <use xlink:href="#DejaVuSans-73" x="919.080078"/>
     <use xlink:href="#DejaVuSans-68" x="971.179688"/>
     <use xlink:href="#DejaVuSans-6f" x="1034.558594"/>
     <use xlink:href="#DejaVuSans-6c" x="1095.740234"/>
     <use xlink:href="#DejaVuSans-64" x="1123.523438"/>
     <use xlink:href="#DejaVuSans-3a" x="1187"/>
     <use xlink:href="#DejaVuSans-20" x="1220.691406"/>
     <use xlink:href="#DejaVuSans-61" x="1252.478516"/>
     <use xlink:href="#DejaVuSans-6c" x="1313.757812"/>
     <use xlink:href="#DejaVuSans-70" x="1341.541016"/>
     <use xlink:href="#DejaVuSans-68" x="1405.017578"/>
     <use xlink:href="#DejaVuSans-61" x="1468.396484"/>
     <use xlink:href="#DejaVuSans-3d" x="1529.675781"/>
     <use xlink:href="#DejaVuSans-30" x="1613.464844"/>
     <use xlink:href="#DejaVuSans-2e" x="1677.087891"/>
     <use xlink:href="#DejaVuSans-30" x="1708.875"/>
     <use xlink:href="#DejaVuSans-35" x="1772.498047"/>
    </g>
    <!-- *** q&lt;0.001, ** q&lt;0.01, * q&lt;0.05 -->
    <g transform="translate(65.9248 316.816744) scale(0.11 -0.11)">
     <defs>
      <path id="DejaVuSans-2a" d="M 3009 3897 
L 1888 3291 
L 3009 2681 
L 2828 2375 
L 1778 3009 
L 1778 1831 
L 1422 1831 
L 1422 3009 
L 372 2375 
L 191 2681 
L 1313 3291 
L 191 3897 
L 372 4206 
L 1422 3572 
L 1422 4750 
L 1778 4750 
L 1778 3572 
L 2828 4206 
L 3009 3897 
z
" transform="scale(0.015625)"/>
      <path id="DejaVuSans-3c" d="M 4684 3150 
L 1459 2003 
L 4684 863 
L 4684 294 
L 678 1747 
L 678 2266 
L 4684 3719 
L 4684 3150 
z
" transform="scale(0.015625)"/>
      <path id="DejaVuSans-2c" d="M 750 794 
L 1409 794 
L 1409 256 
L 897 -744 
L 494 -744 
L 750 256 
L 750 794 
z
" transform="scale(0.015625)"/>
     </defs>
     <use xlink:href="#DejaVuSans-2a"/>
     <use xlink:href="#DejaVuSans-2a" x="50"/>
     <use xlink:href="#DejaVuSans-2a" x="100"/>
     <use xlink:href="#DejaVuSans-20" x="150"/>
     <use xlink:href="#DejaVuSans-71" x="181.787109"/>
     <use xlink:href="#DejaVuSans-3c" x="245.263672"/>
     <use xlink:href="#DejaVuSans-30" x="329.052734"/>
     <use xlink:href="#DejaVuSans-2e" x="392.675781"/>
     <use xlink:href="#DejaVuSans-30" x="424.462891"/>
     <use xlink:href="#DejaVuSans-30" x="488.085938"/>
     <use xlink:href="#DejaVuSans-31" x="551.708984"/>
     <use xlink:href="#DejaVuSans-2c" x="615.332031"/>
     <use xlink:href="#DejaVuSans-20" x="647.119141"/>
     <use xlink:href="#DejaVuSans-2a" x="678.90625"/>
     <use xlink:href="#DejaVuSans-2a" x="728.90625"/>
     <use xlink:href="#DejaVuSans-20" x="778.90625"/>
     <use xlink:href="#DejaVuSans-71" x="810.693359"/>
     <use xlink:href="#DejaVuSans-3c" x="874.169922"/>
     <use xlink:href="#DejaVuSans-30" x="957.958984"/>
     <use xlink:href="#DejaVuSans-2e" x="1021.582031"/>
     <use xlink:href="#DejaVuSans-30" x="1053.369141"/>
     <use xlink:href="#DejaVuSans-31" x="1116.992188"/>
     <use xlink:href="#DejaVuSans-2c" x="1180.615234"/>
     <use xlink:href="#DejaVuSans-20" x="1212.402344"/>
     <use xlink:href="#DejaVuSans-2a" x="1244.189453"/>
     <use xlink:href="#DejaVuSans-20" x="1294.189453"/>
     <use xlink:href="#DejaVuSans-71" x="1325.976562"/>
     <use xlink:href="#DejaVuSans-3c" x="1389.453125"/>
     <use xlink:href="#DejaVuSans-30" x="1473.242188"/>
     <use xlink:href="#DejaVuSans-2e" x="1536.865234"/>
     <use xlink:href="#DejaVuSans-30" x="1568.652344"/>
     <use xlink:href="#DejaVuSans-35" x="1632.275391"/>
    </g>
   </g>
   <g id="text_15">
    <g id="patch_8">
     <path d="M 461.886762 321.3044 
L 611.4352 321.3044 
Q 613.6352 321.3044 613.6352 319.1044 
L 613.6352 295.528994 
Q 613.6352 293.328994 611.4352 293.328994 
L 461.886762 293.328994 
Q 459.686762 293.328994 459.686762 295.528994 
L 459.686762 319.1044 
Q 459.686762 321.3044 461.886762 321.3044 
z
" style="fill: #ffffff; opacity: 0.85; stroke: #bbbbbb; stroke-linejoin: miter"/>
    </g>
    <!-- paired_permutation -->
    <g transform="translate(503.238169 304.193213) scale(0.11 -0.11)">
     <defs>
      <path id="DejaVuSans-5f" d="M 3263 -1063 
L 3263 -1509 
L -63 -1509 
L -63 -1063 
L 3263 -1063 
z
" transform="scale(0.015625)"/>
      <path id="DejaVuSans-6d" d="M 3328 2828 
Q 3544 3216 3844 3400 
Q 4144 3584 4550 3584 
Q 5097 3584 5394 3201 
Q 5691 2819 5691 2113 
L 5691 0 
L 5113 0 
L 5113 2094 
Q 5113 2597 4934 2840 
Q 4756 3084 4391 3084 
Q 3944 3084 3684 2787 
Q 3425 2491 3425 1978 
L 3425 0 
L 2847 0 
L 2847 2094 
Q 2847 2600 2669 2842 
Q 2491 3084 2119 3084 
Q 1678 3084 1418 2786 
Q 1159 2488 1159 1978 
L 1159 0 
L 581 0 
L 581 3500 
L 1159 3500 
L 1159 2956 
Q 1356 3278 1631 3431 
Q 1906 3584 2284 3584 
Q 2666 3584 2933 3390 
Q 3200 3197 3328 2828 
z
" transform="scale(0.015625)"/>
      <path id="DejaVuSans-75" d="M 544 1381 
L 544 3500 
L 1119 3500 
L 1119 1403 
Q 1119 906 1312 657 
Q 1506 409 1894 409 
Q 2359 409 2629 706 
Q 2900 1003 2900 1516 
L 2900 3500 
L 3475 3500 
L 3475 0 
L 2900 0 
L 2900 538 
Q 2691 219 2414 64 
Q 2138 -91 1772 -91 
Q 1169 -91 856 284 
Q 544 659 544 1381 
z
M 1991 3584 
L 1991 3584 
z
" transform="scale(0.015625)"/>
     </defs>
     <use xlink:href="#DejaVuSans-70"/>
     <use xlink:href="#DejaVuSans-61" x="63.476562"/>
     <use xlink:href="#DejaVuSans-69" x="124.755859"/>
     <use xlink:href="#DejaVuSans-72" x="152.539062"/>
     <use xlink:href="#DejaVuSans-65" x="191.402344"/>
     <use xlink:href="#DejaVuSans-64" x="252.925781"/>
     <use xlink:href="#DejaVuSans-5f" x="316.402344"/>
     <use xlink:href="#DejaVuSans-70" x="366.402344"/>
     <use xlink:href="#DejaVuSans-65" x="429.878906"/>
     <use xlink:href="#DejaVuSans-72" x="491.402344"/>
     <use xlink:href="#DejaVuSans-6d" x="530.765625"/>
     <use xlink:href="#DejaVuSans-75" x="628.177734"/>
     <use xlink:href="#DejaVuSans-74" x="691.556641"/>
     <use xlink:href="#DejaVuSans-61" x="730.765625"/>
     <use xlink:href="#DejaVuSans-74" x="792.044922"/>
     <use xlink:href="#DejaVuSans-69" x="831.253906"/>
     <use xlink:href="#DejaVuSans-6f" x="859.037109"/>
     <use xlink:href="#DejaVuSans-6e" x="920.21875"/>
    </g>
    <!-- omnibus=34.4, p=0.00025 -->
    <g transform="translate(461.886762 316.816744) scale(0.11 -0.11)">
     <defs>
      <path id="DejaVuSans-62" d="M 3116 1747 
Q 3116 2381 2855 2742 
Q 2594 3103 2138 3103 
Q 1681 3103 1420 2742 
Q 1159 2381 1159 1747 
Q 1159 1113 1420 752 
Q 1681 391 2138 391 
Q 2594 391 2855 752 
Q 3116 1113 3116 1747 
z
M 1159 2969 
Q 1341 3281 1617 3432 
Q 1894 3584 2278 3584 
Q 2916 3584 3314 3078 
Q 3713 2572 3713 1747 
Q 3713 922 3314 415 
Q 2916 -91 2278 -91 
Q 1894 -91 1617 61 
Q 1341 213 1159 525 
L 1159 0 
L 581 0 
L 581 4863 
L 1159 4863 
L 1159 2969 
z
" transform="scale(0.015625)"/>
     </defs>
     <use xlink:href="#DejaVuSans-6f"/>
     <use xlink:href="#DejaVuSans-6d" x="61.181641"/>
     <use xlink:href="#DejaVuSans-6e" x="158.59375"/>
     <use xlink:href="#DejaVuSans-69" x="221.972656"/>
     <use xlink:href="#DejaVuSans-62" x="249.755859"/>
     <use xlink:href="#DejaVuSans-75" x="313.232422"/>
     <use xlink:href="#DejaVuSans-73" x="376.611328"/>
     <use xlink:href="#DejaVuSans-3d" x="428.710938"/>
     <use xlink:href="#DejaVuSans-33" x="512.5"/>
     <use xlink:href="#DejaVuSans-34" x="576.123047"/>
     <use xlink:href="#DejaVuSans-2e" x="639.746094"/>
     <use xlink:href="#DejaVuSans-34" x="671.533203"/>
     <use xlink:href="#DejaVuSans-2c" x="735.15625"/>
     <use xlink:href="#DejaVuSans-20" x="766.943359"/>
     <use xlink:href="#DejaVuSans-70" x="798.730469"/>
     <use xlink:href="#DejaVuSans-3d" x="862.207031"/>
     <use xlink:href="#DejaVuSans-30" x="945.996094"/>
     <use xlink:href="#DejaVuSans-2e" x="1009.619141"/>
     <use xlink:href="#DejaVuSans-30" x="1041.40625"/>
     <use xlink:href="#DejaVuSans-30" x="1105.029297"/>
     <use xlink:href="#DejaVuSans-30" x="1168.652344"/>
     <use xlink:href="#DejaVuSans-32" x="1232.275391"/>
     <use xlink:href="#DejaVuSans-35" x="1295.898438"/>
    </g>
   </g>
   <g id="text_16">
    <!-- Distance Distribution Plots: gUniFrac (alpha=0.0) -->
    <g transform="translate(166.792812 21.6) scale(0.14 -0.14)">
     <defs>
      <path id="DejaVuSans-67" d="M 2906 1791 
Q 2906 2416 2648 2759 
Q 2391 3103 1925 3103 
Q 1463 3103 1205 2759 
Q 947 2416 947 1791 
Q 947 1169 1205 825 
Q 1463 481 1925 481 
Q 2391 481 2648 825 
Q 2906 1169 2906 1791 
z
M 3481 434 
Q 3481 -459 3084 -895 
Q 2688 -1331 1869 -1331 
Q 1566 -1331 1297 -1286 
Q 1028 -1241 775 -1147 
L 775 -588 
Q 1028 -725 1275 -790 
Q 1522 -856 1778 -856 
Q 2344 -856 2625 -561 
Q 2906 -266 2906 331 
L 2906 616 
Q 2728 306 2450 153 
Q 2172 0 1784 0 
Q 1141 0 747 490 
Q 353 981 353 1791 
Q 353 2603 747 3093 
Q 1141 3584 1784 3584 
Q 2172 3584 2450 3431 
Q 2728 3278 2906 2969 
L 2906 3500 
L 3481 3500 
L 3481 434 
z
" transform="scale(0.015625)"/>
      <path id="DejaVuSans-46" d="M 628 4666 
L 3309 4666 
L 3309 4134 
L 1259 4134 
L 1259 2759 
L 3109 2759 
L 3109 2228 
L 1259 2228 
L 1259 0 
L 628 0 
L 628 4666 
z
" transform="scale(0.015625)"/>
      <path id="DejaVuSans-28" d="M 1984 4856 
Q 1566 4138 1362 3434 
Q 1159 2731 1159 2009 
Q 1159 1288 1364 580 
Q 1569 -128 1984 -844 
L 1484 -844 
Q 1016 -109 783 600 
Q 550 1309 550 2009 
Q 550 2706 781 3412 
Q 1013 4119 1484 4856 
L 1984 4856 
z
" transform="scale(0.015625)"/>
      <path id="DejaVuSans-29" d="M 513 4856 
L 1013 4856 
Q 1481 4119 1714 3412 
Q 1947 2706 1947 2009 
Q 1947 1309 1714 600 
Q 1481 -109 1013 -844 
L 513 -844 
Q 928 -128 1133 580 
Q 1338 1288 1338 2009 
Q 1338 2731 1133 3434 
Q 928 4138 513 4856 
z
" transform="scale(0.015625)"/>
     </defs>
     <use xlink:href="#DejaVuSans-44"/>
     <use xlink:href="#DejaVuSans-69" x="77.001953"/>
     <use xlink:href="#DejaVuSans-73" x="104.785156"/>
     <use xlink:href="#DejaVuSans-74" x="156.884766"/>
     <use xlink:href="#DejaVuSans-61" x="196.09375"/>
     <use xlink:href="#DejaVuSans-6e" x="257.373047"/>
     <use xlink:href="#DejaVuSans-63" x="320.751953"/>
     <use xlink:href="#DejaVuSans-65" x="375.732422"/>
     <use xlink:href="#DejaVuSans-20" x="437.255859"/>
     <use xlink:href="#DejaVuSans-44" x="469.042969"/>
     <use xlink:href="#DejaVuSans-69" x="546.044922"/>
     <use xlink:href="#DejaVuSans-73" x="573.828125"/>
     <use xlink:href="#DejaVuSans-74" x="625.927734"/>
     <use xlink:href="#DejaVuSans-72" x="665.136719"/>
     <use xlink:href="#DejaVuSans-69" x="706.25"/>
     <use xlink:href="#DejaVuSans-62" x="734.033203"/>
     <use xlink:href="#DejaVuSans-75" x="797.509766"/>
     <use xlink:href="#DejaVuSans-74" x="860.888672"/>
     <use xlink:href="#DejaVuSans-69" x="900.097656"/>
     <use xlink:href="#DejaVuSans-6f" x="927.880859"/>
     <use xlink:href="#DejaVuSans-6e" x="989.0625"/>
     <use xlink:href="#DejaVuSans-20" x="1052.441406"/>
     <use xlink:href="#DejaVuSans-50" x="1084.228516"/>
     <use xlink:href="#DejaVuSans-6c" x="1144.53125"/>
     <use xlink:href="#DejaVuSans-6f" x="1172.314453"/>
     <use xlink:href="#DejaVuSans-74" x="1233.496094"/>
     <use xlink:href="#DejaVuSans-73" x="1272.705078"/>
     <use xlink:href="#DejaVuSans-3a" x="1324.804688"/>
     <use xlink:href="#DejaVuSans-20" x="1358.496094"/>
     <use xlink:href="#DejaVuSans-67" x="1390.283203"/>
     <use xlink:href="#DejaVuSans-55" x="1453.759766"/>
     <use xlink:href="#DejaVuSans-6e" x="1526.953125"/>
     <use xlink:href="#DejaVuSans-69" x="1590.332031"/>
     <use xlink:href="#DejaVuSans-46" x="1618.115234"/>
     <use xlink:href="#DejaVuSans-72" x="1668.384766"/>
     <use xlink:href="#DejaVuSans-61" x="1709.498047"/>
     <use xlink:href="#DejaVuSans-63" x="1770.777344"/>
     <use xlink:href="#DejaVuSans-20" x="1825.757812"/>
     <use xlink:href="#DejaVuSans-28" x="1857.544922"/>
     <use xlink:href="#DejaVuSans-61" x="1896.558594"/>
     <use xlink:href="#DejaVuSans-6c" x="1957.837891"/>
     <use xlink:href="#DejaVuSans-70" x="1985.621094"/>
     <use xlink:href="#DejaVuSans-68" x="2049.097656"/>
     <use xlink:href="#DejaVuSans-61" x="2112.476562"/>
     <use xlink:href="#DejaVuSans-3d" x="2173.755859"/>
     <use xlink:href="#DejaVuSans-30" x="2257.544922"/>
     <use xlink:href="#DejaVuSans-2e" x="2321.167969"/>
     <use xlink:href="#DejaVuSans-30" x="2352.955078"/>
     <use xlink:href="#DejaVuSans-29" x="2416.578125"/>
    </g>
   </g>
   <g id="line2d_18">
    <path d="M 230.60849 153.8184 
L 230.60849 149.61112 
L 338.68 149.61112 
L 338.68 153.8184 
" clip-path="url(#pce8d2a51f1)" style="fill: none; stroke: #111111; stroke-width: 0.9; stroke-linecap: square"/>
   </g>
   <g id="line2d_19">
    <path d="M 338.68 129.7768 
L 338.68 125.56952 
L 446.75151 125.56952 
L 446.75151 129.7768 
" clip-path="url(#pce8d2a51f1)" style="fill: none; stroke: #111111; stroke-width: 0.9; stroke-linecap: square"/>
   </g>
   <g id="line2d_20">
    <path d="M 230.60849 105.7352 
L 230.60849 101.52792 
L 446.75151 101.52792 
L 446.75151 105.7352 
" clip-path="url(#pce8d2a51f1)" style="fill: none; stroke: #111111; stroke-width: 0.9; stroke-linecap: square"/>
   </g>
   <g id="line2d_21">
    <path d="M 338.68 81.6936 
L 338.68 77.48632 
L 554.82302 77.48632 
L 554.82302 81.6936 
" clip-path="url(#pce8d2a51f1)" style="fill: none; stroke: #111111; stroke-width: 0.9; stroke-linecap: square"/>
   </g>
   <g id="line2d_22">
    <path d="M 230.60849 63.6624 
L 230.60849 60.6572 
L 554.82302 60.6572 
L 554.82302 63.6624 
" clip-path="url(#pce8d2a51f1)" style="fill: none; stroke: #111111; stroke-width: 0.9; stroke-linecap: square"/>
   </g>
   <g id="text_17">
    <!-- p=0.000833 -->
    <g style="fill: #111111" transform="translate(251.861276 145.323808) scale(0.105 -0.105)">
     <use xlink:href="#DejaVuSans-70"/>
     <use xlink:href="#DejaVuSans-3d" x="63.476562"/>
     <use xlink:href="#DejaVuSans-30" x="147.265625"/>
     <use xlink:href="#DejaVuSans-2e" x="210.888672"/>
     <use xlink:href="#DejaVuSans-30" x="242.675781"/>
     <use xlink:href="#DejaVuSans-30" x="306.298828"/>
     <use xlink:href="#DejaVuSans-30" x="369.921875"/>
     <use xlink:href="#DejaVuSans-38" x="433.544922"/>
     <use xlink:href="#DejaVuSans-33" x="497.167969"/>
     <use xlink:href="#DejaVuSans-33" x="560.791016"/>
    </g>
   </g>
   <g id="text_18">
    <!-- *** -->
    <g style="fill: #111111" transform="translate(275.85837 140.67043) scale(0.112 -0.112)">
     <defs>
      <path id="DejaVuSans-Bold-2a" d="M 3219 3803 
L 2188 3263 
L 3219 2719 
L 2981 2278 
L 1941 2853 
L 1941 1778 
L 1409 1778 
L 1409 2853 
L 366 2278 
L 128 2719 
L 1172 3263 
L 128 3803 
L 366 4244 
L 1409 3675 
L 1409 4750 
L 1941 4750 
L 1941 3675 
L 2981 4244 
L 3219 3803 
z
" transform="scale(0.015625)"/>
     </defs>
     <use xlink:href="#DejaVuSans-Bold-2a"/>
     <use xlink:href="#DejaVuSans-Bold-2a" x="52.294922"/>
     <use xlink:href="#DejaVuSans-Bold-2a" x="104.589844"/>
    </g>
   </g>
   <g id="text_19">
    <!-- p=0.002 -->
    <g style="fill: #111111" transform="translate(369.953724 121.282208) scale(0.105 -0.105)">
     <use xlink:href="#DejaVuSans-70"/>
     <use xlink:href="#DejaVuSans-3d" x="63.476562"/>
     <use xlink:href="#DejaVuSans-30" x="147.265625"/>
     <use xlink:href="#DejaVuSans-2e" x="210.888672"/>
     <use xlink:href="#DejaVuSans-30" x="242.675781"/>
     <use xlink:href="#DejaVuSans-30" x="306.298828"/>
     <use xlink:href="#DejaVuSans-32" x="369.921875"/>
    </g>
   </g>
   <g id="text_20">
    <!-- ** -->
    <g style="fill: #111111" transform="translate(386.858505 116.62883) scale(0.112 -0.112)">
     <use xlink:href="#DejaVuSans-Bold-2a"/>
     <use xlink:href="#DejaVuSans-Bold-2a" x="52.294922"/>
    </g>
   </g>
   <g id="text_21">
    <!-- p=0.000833 -->
    <g style="fill: #111111" transform="translate(305.897031 97.240608) scale(0.105 -0.105)">
     <use xlink:href="#DejaVuSans-70"/>
     <use xlink:href="#DejaVuSans-3d" x="63.476562"/>
     <use xlink:href="#DejaVuSans-30" x="147.265625"/>
     <use xlink:href="#DejaVuSans-2e" x="210.888672"/>
     <use xlink:href="#DejaVuSans-30" x="242.675781"/>
     <use xlink:href="#DejaVuSans-30" x="306.298828"/>
     <use xlink:href="#DejaVuSans-30" x="369.921875"/>
     <use xlink:href="#DejaVuSans-38" x="433.544922"/>
     <use xlink:href="#DejaVuSans-33" x="497.167969"/>
     <use xlink:href="#DejaVuSans-33" x="560.791016"/>
    </g>
   </g>
   <g id="text_22">
    <!-- *** -->
    <g style="fill: #111111" transform="translate(329.894125 92.58723) scale(0.112 -0.112)">
     <use xlink:href="#DejaVuSans-Bold-2a"/>
     <use xlink:href="#DejaVuSans-Bold-2a" x="52.294922"/>
     <use xlink:href="#DejaVuSans-Bold-2a" x="104.589844"/>
    </g>
   </g>
   <g id="text_23">
    <!-- p=0.002 -->
    <g style="fill: #111111" transform="translate(423.989479 73.199008) scale(0.105 -0.105)">
     <use xlink:href="#DejaVuSans-70"/>
     <use xlink:href="#DejaVuSans-3d" x="63.476562"/>
     <use xlink:href="#DejaVuSans-30" x="147.265625"/>
     <use xlink:href="#DejaVuSans-2e" x="210.888672"/>
     <use xlink:href="#DejaVuSans-30" x="242.675781"/>
     <use xlink:href="#DejaVuSans-30" x="306.298828"/>
     <use xlink:href="#DejaVuSans-32" x="369.921875"/>
    </g>
   </g>
   <g id="text_24">
    <!-- ** -->
    <g style="fill: #111111" transform="translate(440.89426 68.54563) scale(0.112 -0.112)">
     <use xlink:href="#DejaVuSans-Bold-2a"/>
     <use xlink:href="#DejaVuSans-Bold-2a" x="52.294922"/>
    </g>
   </g>
   <g id="text_25">
    <!-- p=0.000833 -->
    <g style="fill: #111111" transform="translate(359.932786 56.369888) scale(0.105 -0.105)">
     <use xlink:href="#DejaVuSans-70"/>
     <use xlink:href="#DejaVuSans-3d" x="63.476562"/>
     <use xlink:href="#DejaVuSans-30" x="147.265625"/>
     <use xlink:href="#DejaVuSans-2e" x="210.888672"/>
     <use xlink:href="#DejaVuSans-30" x="242.675781"/>
     <use xlink:href="#DejaVuSans-30" x="306.298828"/>
     <use xlink:href="#DejaVuSans-30" x="369.921875"/>
     <use xlink:href="#DejaVuSans-38" x="433.544922"/>
     <use xlink:href="#DejaVuSans-33" x="497.167969"/>
     <use xlink:href="#DejaVuSans-33" x="560.791016"/>
    </g>
   </g>
   <g id="text_26">
    <!-- *** -->
    <g style="fill: #111111" transform="translate(383.92988 51.71651) scale(0.112 -0.112)">
     <use xlink:href="#DejaVuSans-Bold-2a"/>
     <use xlink:href="#DejaVuSans-Bold-2a" x="52.294922"/>
     <use xlink:href="#DejaVuSans-Bold-2a" x="104.589844"/>
    </g>
   </g>
  </g>
 </g>
 <defs>
  <clipPath id="pce8d2a51f1">
   <rect x="54.56" y="27.6" width="568.24" height="300.52"/>
  </clipPath>
 </defs>
</svg>
