<?xml version="1.0" encoding="utf-8" standalone="no"?>
<!DOCTYPE svg PUBLIC "-//W3C//DTD SVG 1.1//EN"
  "http://www.w3.org/Graphics/SVG/1.1/DTD/svg11.dtd">
<svg xmlns:xlink="http://www.w3.org/1999/xlink" width="374.4pt" height="331.2pt" viewBox="0 0 374.4 331.2" xmlns="http://www.w3.org/2000/svg" version="1.1">
 <metadata>
  <rdf:RDF xmlns:dc="http://purl.org/dc/elements/1.1/" xmlns:cc="http://creativecommons.org/ns#" xmlns:rdf="http://www.w3.org/1999/02/22-rdf-syntax-ns#">
   <cc:Work>
    <dc:type rdf:resource="http://purl.org/dc/dcmitype/StillImage"/>
    <dc:date>2026-08-03T15:35:43.887672</dc:date>
    <dc:format>image/svg+xml</dc:format>
    <dc:creator>
     <cc:Agent>
      <dc:title>Matplotlib v3.8.4, https://matplotlib.org/</dc:title>
     </cc:Agent>
    </dc:creator>
   </cc:Work>
  </rdf:RDF>
 </metadata>
 <defs>
  <style type="text/css">*{stroke-linejoin: round; stroke-linecap: butt}</style>
 </defs>
 <g id="figure_1">
  <g id="patch_1">
   <path d="M 0 331.2 
L 374.4 331.2 
L 374.4 0 
L 0 0 
z
" style="fill: #ffffff"/>
  </g>
  <g id="axes_1">
   <g id="patch_2">
    <path d="M 62.21 250.217679 
L 363.6 250.217679 
L 363.6 27.6 
L 62.21 27.6 
z
" style="fill: #ffffff"/>
   </g>
   <g id="PolyCollection_1">
    <defs>
     <path id="m861ddafe8e" d="M 113.701395 -80.982321 
L 75.909545 -80.982321 
L 75.909545 -80.982321 
L 75.909545 -80.982321 
L 75.909545 -80.982321 
L 75.909545 -80.982321 
L 75.909545 -80.982321 
L 75.909545 -80.982321 
L 75.909545 -80.982321 
L 75.909545 -80.982321 
L 75.909545 -80.982321 
L 75.909545 -80.982321 
L 75.909545 -80.982321 
L 75.909545 -80.982321 
L 75.909545 -80.982321 
L 75.909545 -80.982321 
L 75.909545 -80.982321 
L 75.909545 -80.982321 
L 75.909545 -80.982321 
L 75.909545 -80.982321 
L 75.909545 -80.982321 
L 75.909545 -80.982321 
L 75.909545 -80.982321 
L 75.909545 -80.982321 
L 75.909545 -80.982321 
L 75.909545 -80.982321 
L 75.909545 -80.982321 
L 75.909545 -80.982321 
L 75.909545 -80.982321 
L 75.909545 -80.982321 
L 75.909545 -80.982321 
L 75.909545 -80.982321 
L 75.909545 -80.982321 
L 75.909545 -80.982321 
L 75.909545 -80.982321 
L 75.909545 -80.982321 
L 75.909545 -80.982321 
L 75.909545 -80.982321 
L 75.909545 -80.982321 
L 75.909545 -80.982321 
L 75.909545 -80.982321 
L 75.909545 -80.982321 
L 75.909545 -80.982321 
L 75.909545 -80.982321 
L 75.909545 -80.982321 
L 75.909545 -80.982321 
L 75.909545 -80.982321 
L 75.909545 -80.982321 
L 75.909545 -80.982321 
L 75.909545 -80.982321 
L 75.909545 -80.982321 
L 75.909545 -80.982321 
L 75.909545 -80.982321 
L 75.909545 -80.982321 
L 75.909545 -80.982321 
L 75.909545 -80.982321 
L 75.909545 -80.982321 
L 75.909545 -80.982321 
L 75.909545 -80.982321 
L 75.909545 -80.982321 
L 75.909545 -80.982321 
L 75.909545 -80.982321 
L 75.909545 -80.982321 
L 75.909545 -80.982321 
L 75.909545 -80.982321 
L 75.909545 -80.982321 
L 75.909545 -80.982321 
L 75.909545 -80.982321 
L 75.909545 -80.982321 
L 75.909545 -80.982321 
L 75.909545 -80.982321 
L 75.909545 -80.982321 
L 75.909545 -80.982321 
L 75.909545 -80.982321 
L 75.909545 -80.982321 
L 75.909545 -80.982321 
L 75.909545 -80.982321 
L 75.909545 -80.982321 
L 75.909545 -80.982321 
L 75.909545 -80.982321 
L 75.909545 -80.982321 
L 75.909545 -80.982321 
L 75.909545 -80.982321 
L 75.909545 -80.982321 
L 75.909545 -80.982321 
L 75.909545 -80.982321 
L 75.909545 -80.982321 
L 75.909545 -80.982321 
L 75.909545 -80.982321 
L 75.909545 -80.982321 
L 75.909545 -80.982321 
L 75.909545 -80.982321 
L 75.909545 -80.982321 
L 75.909545 -80.982321 
L 75.909545 -80.982321 
L 75.909545 -80.982321 
L 75.909545 -80.982321 
L 75.909545 -80.982321 
L 75.909545 -80.982321 
L 75.909545 -80.982321 
L 75.909545 -80.982321 
L 113.701395 -80.982321 
L 113.701395 -80.982321 
L 113.701395 -80.982321 
L 113.701395 -80.982321 
L 113.701395 -80.982321 
L 113.701395 -80.982321 
L 113.701395 -80.982321 
L 113.701395 -80.982321 
L 113.701395 -80.982321 
L 113.701395 -80.982321 
L 113.701395 -80.982321 
L 113.701395 -80.982321 
L 113.701395 -80.982321 
L 113.701395 -80.982321 
L 113.701395 -80.982321 
L 113.701395 -80.982321 
L 113.701395 -80.982321 
L 113.701395 -80.982321 
L 113.701395 -80.982321 
L 113.701395 -80.982321 
L 113.701395 -80.982321 
L 113.701395 -80.982321 
L 113.701395 -80.982321 
L 113.701395 -80.982321 
L 113.701395 -80.982321 
L 113.701395 -80.982321 
L 113.701395 -80.982321 
L 113.701395 -80.982321 
L 113.701395 -80.982321 
L 113.701395 -80.982321 
L 113.701395 -80.982321 
L 113.701395 -80.982321 
L 113.701395 -80.982321 
L 113.701395 -80.982321 
L 113.701395 -80.982321 
L 113.701395 -80.982321 
L 113.701395 -80.982321 
L 113.701395 -80.982321 
L 113.701395 -80.982321 
L 113.701395 -80.982321 
L 113.701395 -80.982321 
L 113.701395 -80.982321 
L 113.701395 -80.982321 
L 113.701395 -80.982321 
L 113.701395 -80.982321 
L 113.701395 -80.982321 
L 113.701395 -80.982321 
L 113.701395 -80.982321 
L 113.701395 -80.982321 
L 113.701395 -80.982321 
L 113.701395 -80.982321 
L 113.701395 -80.982321 
L 113.701395 -80.982321 
L 113.701395 -80.982321 
L 113.701395 -80.982321 
L 113.701395 -80.982321 
L 113.701395 -80.982321 
L 113.701395 -80.982321 
L 113.701395 -80.982321 
L 113.701395 -80.982321 
L 113.701395 -80.982321 
L 113.701395 -80.982321 
L 113.701395 -80.982321 
L 113.701395 -80.982321 
L 113.701395 -80.982321 
L 113.701395 -80.982321 
L 113.701395 -80.982321 
L 113.701395 -80.982321 
L 113.701395 -80.982321 
L 113.701395 -80.982321 
L 113.701395 -80.982321 
L 113.701395 -80.982321 
L 113.701395 -80.982321 
L 113.701395 -80.982321 
L 113.701395 -80.982321 
L 113.701395 -80.982321 
L 113.701395 -80.982321 
L 113.701395 -80.982321 
L 113.701395 -80.982321 
L 113.701395 -80.982321 
L 113.701395 -80.982321 
L 113.701395 -80.982321 
L 113.701395 -80.982321 
L 113.701395 -80.982321 
L 113.701395 -80.982321 
L 113.701395 -80.982321 
L 113.701395 -80.982321 
L 113.701395 -80.982321 
L 113.701395 -80.982321 
L 113.701395 -80.982321 
L 113.701395 -80.982321 
L 113.701395 -80.982321 
L 113.701395 -80.982321 
L 113.701395 -80.982321 
L 113.701395 -80.982321 
L 113.701395 -80.982321 
L 113.701395 -80.982321 
L 113.701395 -80.982321 
L 113.701395 -80.982321 
L 113.701395 -80.982321 
L 113.701395 -80.982321 
z
" style="stroke: #333333; stroke-opacity: 0.33"/>
    </defs>
    <g clip-path="url(#p615b5548d5)">
     <use xlink:href="#m861ddafe8e" x="0" y="331.2" style="fill: #0072b2; fill-opacity: 0.33; stroke: #333333; stroke-opacity: 0.33"/>
    </g>
   </g>
   <g id="PolyCollection_2">
    <defs>
     <path id="m58d0619a31" d="M 172.75116 -80.982321 
L 134.95931 -80.982321 
L 134.95931 -80.982321 
L 134.95931 -80.982321 
L 134.95931 -80.982321 
L 134.95931 -80.982321 
L 134.95931 -80.982321 
L 134.95931 -80.982321 
L 134.95931 -80.982321 
L 134.95931 -80.982321 
L 134.95931 -80.982321 
L 134.95931 -80.982321 
L 134.95931 -80.982321 
L 134.95931 -80.982321 
L 134.95931 -80.982321 
L 134.95931 -80.982321 
L 134.95931 -80.982321 
L 134.95931 -80.982321 
L 134.95931 -80.982321 
L 134.95931 -80.982321 
L 134.95931 -80.982321 
L 134.95931 -80.982321 
L 134.95931 -80.982321 
L 134.95931 -80.982321 
L 134.95931 -80.982321 
L 134.95931 -80.982321 
L 134.95931 -80.982321 
L 134.95931 -80.982321 
L 134.95931 -80.982321 
L 134.95931 -80.982321 
L 134.95931 -80.982321 
L 134.95931 -80.982321 
L 134.95931 -80.982321 
L 134.95931 -80.982321 
L 134.95931 -80.982321 
L 134.95931 -80.982321 
L 134.95931 -80.982321 
L 134.95931 -80.982321 
L 134.95931 -80.982321 
L 134.95931 -80.982321 
L 134.95931 -80.982321 
L 134.95931 -80.982321 
L 134.95931 -80.982321 
L 134.95931 -80.982321 
L 134.95931 -80.982321 
L 134.95931 -80.982321 
L 134.95931 -80.982321 
L 134.95931 -80.982321 
L 134.95931 -80.982321 
L 134.95931 -80.982321 
L 134.95931 -80.982321 
L 134.95931 -80.982321 
L 134.95931 -80.982321 
L 134.95931 -80.982321 
L 134.95931 -80.982321 
L 134.95931 -80.982321 
L 134.95931 -80.982321 
L 134.95931 -80.982321 
L 134.95931 -80.982321 
L 134.95931 -80.982321 
L 134.95931 -80.982321 
L 134.95931 -80.982321 
L 134.95931 -80.982321 
L 134.95931 -80.982321 
L 134.95931 -80.982321 
L 134.95931 -80.982321 
L 134.95931 -80.982321 
L 134.95931 -80.982321 
L 134.95931 -80.982321 
L 134.95931 -80.982321 
L 134.95931 -80.982321 
L 134.95931 -80.982321 
L 134.95931 -80.982321 
L 134.95931 -80.982321 
L 134.95931 -80.982321 
L 134.95931 -80.982321 
L 134.95931 -80.982321 
L 134.95931 -80.982321 
L 134.95931 -80.982321 
L 134.95931 -80.982321 
L 134.95931 -80.982321 
L 134.95931 -80.982321 
L 134.95931 -80.982321 
L 134.95931 -80.982321 
L 134.95931 -80.982321 
L 134.95931 -80.982321 
L 134.95931 -80.982321 
L 134.95931 -80.982321 
L 134.95931 -80.982321 
L 134.95931 -80.982321 
L 134.95931 -80.982321 
L 134.95931 -80.982321 
L 134.95931 -80.982321 
L 134.95931 -80.982321 
L 134.95931 -80.982321 
L 134.95931 -80.982321 
L 134.95931 -80.982321 
L 134.95931 -80.982321 
L 134.95931 -80.982321 
L 134.95931 -80.982321 
L 134.95931 -80.982321 
L 172.75116 -80.982321 
L 172.75116 -80.982321 
L 172.75116 -80.982321 
L 172.75116 -80.982321 
L 172.75116 -80.982321 
L 172.75116 -80.982321 
L 172.75116 -80.982321 
L 172.75116 -80.982321 
L 172.75116 -80.982321 
L 172.75116 -80.982321 
L 172.75116 -80.982321 
L 172.75116 -80.982321 
L 172.75116 -80.982321 
L 172.75116 -80.982321 
L 172.75116 -80.982321 
L 172.75116 -80.982321 
L 172.75116 -80.982321 
L 172.75116 -80.982321 
L 172.75116 -80.982321 
L 172.75116 -80.982321 
L 172.75116 -80.982321 
L 172.75116 -80.982321 
L 172.75116 -80.982321 
L 172.75116 -80.982321 
L 172.75116 -80.982321 
L 172.75116 -80.982321 
L 172.75116 -80.982321 
L 172.75116 -80.982321 
L 172.75116 -80.982321 
L 172.75116 -80.982321 
L 172.75116 -80.982321 
L 172.75116 -80.982321 
L 172.75116 -80.982321 
L 172.75116 -80.982321 
L 172.75116 -80.982321 
L 172.75116 -80.982321 
L 172.75116 -80.982321 
L 172.75116 -80.982321 
L 172.75116 -80.982321 
L 172.75116 -80.982321 
L 172.75116 -80.982321 
L 172.75116 -80.982321 
L 172.75116 -80.982321 
L 172.75116 -80.982321 
L 172.75116 -80.982321 
L 172.75116 -80.982321 
L 172.75116 -80.982321 
L 172.75116 -80.982321 
L 172.75116 -80.982321 
L 172.75116 -80.982321 
L 172.75116 -80.982321 
L 172.75116 -80.982321 
L 172.75116 -80.982321 
L 172.75116 -80.982321 
L 172.75116 -80.982321 
L 172.75116 -80.982321 
L 172.75116 -80.982321 
L 172.75116 -80.982321 
L 172.75116 -80.982321 
L 172.75116 -80.982321 
L 172.75116 -80.982321 
L 172.75116 -80.982321 
L 172.75116 -80.982321 
L 172.75116 -80.982321 
L 172.75116 -80.982321 
L 172.75116 -80.982321 
L 172.75116 -80.982321 
L 172.75116 -80.982321 
L 172.75116 -80.982321 
L 172.75116 -80.982321 
L 172.75116 -80.982321 
L 172.75116 -80.982321 
L 172.75116 -80.982321 
L 172.75116 -80.982321 
L 172.75116 -80.982321 
L 172.75116 -80.982321 
L 172.75116 -80.982321 
L 172.75116 -80.982321 
L 172.75116 -80.982321 
L 172.75116 -80.982321 
L 172.75116 -80.982321 
L 172.75116 -80.982321 
L 172.75116 -80.982321 
L 172.75116 -80.982321 
L 172.75116 -80.982321 
L 172.75116 -80.982321 
L 172.75116 -80.982321 
L 172.75116 -80.982321 
L 172.75116 -80.982321 
L 172.75116 -80.982321 
L 172.75116 -80.982321 
L 172.75116 -80.982321 
L 172.75116 -80.982321 
L 172.75116 -80.982321 
L 172.75116 -80.982321 
L 172.75116 -80.982321 
L 172.75116 -80.982321 
L 172.75116 -80.982321 
L 172.75116 -80.982321 
L 172.75116 -80.982321 
L 172.75116 -80.982321 
z
" style="stroke: #333333; stroke-opacity: 0.33"/>
    </defs>
    <g clip-path="url(#p615b5548d5)">
     <use xlink:href="#m58d0619a31" x="0" y="331.2" style="fill: #56b4e9; fill-opacity: 0.33; stroke: #333333; stroke-opacity: 0.33"/>
    </g>
   </g>
   <g id="PolyCollection_3">
    <defs>
     <path id="m270b819a83" d="M 222.41963 -80.982321 
L 203.39037 -80.982321 
L 203.213911 -81.996676 
L 203.05616 -83.01103 
L 202.912572 -84.025384 
L 202.777822 -85.039739 
L 202.645964 -86.054093 
L 202.51063 -87.068447 
L 202.365261 -88.082802 
L 202.203349 -89.097156 
L 202.0187 -90.11151 
L 201.805698 -91.125865 
L 201.559557 -92.140219 
L 201.276565 -93.154574 
L 200.954294 -94.168928 
L 200.591769 -95.183282 
L 200.189601 -96.197637 
L 199.750062 -97.211991 
L 199.2771 -98.226345 
L 198.7763 -99.2407 
L 198.254776 -100.255054 
L 197.721013 -101.269408 
L 197.184645 -102.283763 
L 196.656191 -103.298117 
L 196.146748 -104.312471 
L 195.667661 -105.326826 
L 195.230168 -106.34118 
L 194.845047 -107.355534 
L 194.522274 -108.369889 
L 194.270698 -109.384243 
L 194.097756 -110.398597 
L 194.009233 -111.412952 
L 194.009075 -112.427306 
L 194.099264 -113.44166 
L 194.279761 -114.456015 
L 194.548515 -115.470369 
L 194.901537 -116.484723 
L 195.333036 -117.499078 
L 195.835619 -118.513432 
L 196.40052 -119.527786 
L 197.017887 -120.542141 
L 197.677083 -121.556495 
L 198.367 -122.570849 
L 199.076385 -123.585204 
L 199.794146 -124.599558 
L 200.509646 -125.613913 
L 201.212964 -126.628267 
L 201.895124 -127.642621 
L 202.548275 -128.656976 
L 203.165833 -129.67133 
L 203.742572 -130.685684 
L 204.274665 -131.700039 
L 204.759688 -132.714393 
L 205.196575 -133.728747 
L 205.585535 -134.743102 
L 205.927943 -135.757456 
L 206.2262 -136.77181 
L 206.483574 -137.786165 
L 206.704034 -138.800519 
L 206.892067 -139.814873 
L 207.052505 -140.829228 
L 207.190346 -141.843582 
L 207.310597 -142.857936 
L 207.41812 -143.872291 
L 207.5175 -144.886645 
L 207.612932 -145.900999 
L 207.708128 -146.915354 
L 207.80625 -147.929708 
L 207.909857 -148.944062 
L 208.020887 -149.958417 
L 208.140647 -150.972771 
L 208.269837 -151.987125 
L 208.408576 -153.00148 
L 208.556455 -154.015834 
L 208.712602 -155.030189 
L 208.875753 -156.044543 
L 209.044329 -157.058897 
L 209.216525 -158.073252 
L 209.390393 -159.087606 
L 209.563922 -160.10196 
L 209.735126 -161.116315 
L 209.902108 -162.130669 
L 210.063129 -163.145023 
L 210.21666 -164.159378 
L 210.361428 -165.173732 
L 210.496441 -166.188086 
L 210.621014 -167.202441 
L 210.73477 -168.216795 
L 210.837639 -169.231149 
L 210.929838 -170.245504 
L 211.011851 -171.259858 
L 211.084396 -172.274212 
L 211.148383 -173.288567 
L 211.204876 -174.302921 
L 211.255044 -175.317275 
L 211.300116 -176.33163 
L 211.34134 -177.345984 
L 211.379933 -178.360338 
L 211.41705 -179.374693 
L 211.453748 -180.389047 
L 211.490956 -181.403401 
L 214.319044 -181.403401 
L 214.319044 -181.403401 
L 214.356252 -180.389047 
L 214.39295 -179.374693 
L 214.430067 -178.360338 
L 214.46866 -177.345984 
L 214.509884 -176.33163 
L 214.554956 -175.317275 
L 214.605124 -174.302921 
L 214.661617 -173.288567 
L 214.725604 -172.274212 
L 214.798149 -171.259858 
L 214.880162 -170.245504 
L 214.972361 -169.231149 
L 215.07523 -168.216795 
L 215.188986 -167.202441 
L 215.313559 -166.188086 
L 215.448572 -165.173732 
L 215.59334 -164.159378 
L 215.746871 -163.145023 
L 215.907892 -162.130669 
L 216.074874 -161.116315 
L 216.246078 -160.10196 
L 216.419607 -159.087606 
L 216.593475 -158.073252 
L 216.765671 -157.058897 
L 216.934247 -156.044543 
L 217.097398 -155.030189 
L 217.253545 -154.015834 
L 217.401424 -153.00148 
L 217.540163 -151.987125 
L 217.669353 -150.972771 
L 217.789113 -149.958417 
L 217.900143 -148.944062 
L 218.00375 -147.929708 
L 218.101872 -146.915354 
L 218.197068 -145.900999 
L 218.2925 -144.886645 
L 218.39188 -143.872291 
L 218.499403 -142.857936 
L 218.619654 -141.843582 
L 218.757495 -140.829228 
L 218.917933 -139.814873 
L 219.105966 -138.800519 
L 219.326426 -137.786165 
L 219.5838 -136.77181 
L 219.882057 -135.757456 
L 220.224465 -134.743102 
L 220.613425 -133.728747 
L 221.050312 -132.714393 
L 221.535335 -131.700039 
L 222.067428 -130.685684 
L 222.644167 -129.67133 
L 223.261725 -128.656976 
L 223.914876 -127.642621 
L 224.597036 -126.628267 
L 225.300354 -125.613913 
L 226.015854 -124.599558 
L 226.733615 -123.585204 
L 227.443 -122.570849 
L 228.132917 -121.556495 
L 228.792113 -120.542141 
L 229.40948 -119.527786 
L 229.974381 -118.513432 
L 230.476964 -117.499078 
L 230.908463 -116.484723 
L 231.261485 -115.470369 
L 231.530239 -114.456015 
L 231.710736 -113.44166 
L 231.800925 -112.427306 
L 231.800767 -111.412952 
L 231.712244 -110.398597 
L 231.539302 -109.384243 
L 231.287726 -108.369889 
L 230.964953 -107.355534 
L 230.579832 -106.34118 
L 230.142339 -105.326826 
L 229.663252 -104.312471 
L 229.153809 -103.298117 
L 228.625355 -102.283763 
L 228.088987 -101.269408 
L 227.555224 -100.255054 
L 227.0337 -99.2407 
L 226.5329 -98.226345 
L 226.059938 -97.211991 
L 225.620399 -96.197637 
L 225.218231 -95.183282 
L 224.855706 -94.168928 
L 224.533435 -93.154574 
L 224.250443 -92.140219 
L 224.004302 -91.125865 
L 223.7913 -90.11151 
L 223.606651 -89.097156 
L 223.444739 -88.082802 
L 223.29937 -87.068447 
L 223.164036 -86.054093 
L 223.032178 -85.039739 
L 222.897428 -84.025384 
L 222.75384 -83.01103 
L 222.596089 -81.996676 
L 222.41963 -80.982321 
z
" style="stroke: #333333; stroke-opacity: 0.33"/>
    </defs>
    <g clip-path="url(#p615b5548d5)">
     <use xlink:href="#m270b819a83" x="0" y="331.2" style="fill: #d55e00; fill-opacity: 0.33; stroke: #333333; stroke-opacity: 0.33"/>
    </g>
   </g>
   <g id="PolyCollection_4">
    <defs>
     <path id="ma6458b83a2" d="M 290.82673 -80.982321 
L 253.0828 -80.982321 
L 253.05884 -83.064417 
L 253.102582 -85.146513 
L 253.213398 -87.228609 
L 253.389942 -89.310704 
L 253.630176 -91.3928 
L 253.931406 -93.474896 
L 254.290335 -95.556992 
L 254.703124 -97.639087 
L 255.165457 -99.721183 
L 255.672618 -101.803279 
L 256.21957 -103.885375 
L 256.801041 -105.96747 
L 257.4116 -108.049566 
L 258.045747 -110.131662 
L 258.697992 -112.213758 
L 259.36293 -114.295854 
L 260.035311 -116.377949 
L 260.710107 -118.460045 
L 261.382565 -120.542141 
L 262.048259 -122.624237 
L 262.703127 -124.706332 
L 263.343499 -126.788428 
L 263.966123 -128.870524 
L 264.568174 -130.95262 
L 265.147259 -133.034715 
L 265.701416 -135.116811 
L 266.229096 -137.198907 
L 266.729157 -139.281003 
L 267.20083 -141.363098 
L 267.643705 -143.445194 
L 268.057691 -145.52729 
L 268.442989 -147.609386 
L 268.800058 -149.691481 
L 269.129582 -151.773577 
L 269.432431 -153.855673 
L 269.709634 -155.937769 
L 269.962341 -158.019864 
L 270.191797 -160.10196 
L 270.39931 -162.184056 
L 270.586229 -164.266152 
L 270.753917 -166.348248 
L 270.903732 -168.430343 
L 271.037009 -170.512439 
L 271.155045 -172.594535 
L 271.259084 -174.676631 
L 271.35031 -176.758726 
L 271.429834 -178.840822 
L 271.498694 -180.922918 
L 271.557845 -183.005014 
L 271.60816 -185.087109 
L 271.650428 -187.169205 
L 271.685352 -189.251301 
L 271.713556 -191.333397 
L 271.735579 -193.415492 
L 271.751886 -195.497588 
L 271.762868 -197.579684 
L 271.768845 -199.66178 
L 271.770076 -201.743875 
L 271.766759 -203.825971 
L 271.759039 -205.908067 
L 271.747014 -207.990163 
L 271.730744 -210.072258 
L 271.710253 -212.154354 
L 271.685539 -214.23645 
L 271.656579 -216.318546 
L 271.623341 -218.400642 
L 271.585785 -220.482737 
L 271.543875 -222.564833 
L 271.497585 -224.646929 
L 271.446907 -226.729025 
L 271.391857 -228.81112 
L 271.332482 -230.893216 
L 271.268868 -232.975312 
L 271.201143 -235.057408 
L 271.129485 -237.139503 
L 271.054125 -239.221599 
L 270.975351 -241.303695 
L 270.893508 -243.385791 
L 270.809001 -245.467886 
L 270.722297 -247.549982 
L 270.633917 -249.632078 
L 270.544441 -251.714174 
L 270.454496 -253.796269 
L 270.364755 -255.878365 
L 270.275929 -257.960461 
L 270.188759 -260.042557 
L 270.104004 -262.124652 
L 270.022433 -264.206748 
L 269.944813 -266.288844 
L 269.871897 -268.37094 
L 269.804415 -270.453036 
L 269.743056 -272.535131 
L 269.688462 -274.617227 
L 269.641215 -276.699323 
L 269.601827 -278.781419 
L 269.570728 -280.863514 
L 269.548263 -282.94561 
L 269.534683 -285.027706 
L 269.53014 -287.109802 
L 274.37939 -287.109802 
L 274.37939 -287.109802 
L 274.374847 -285.027706 
L 274.361267 -282.94561 
L 274.338802 -280.863514 
L 274.307703 -278.781419 
L 274.268314 -276.699323 
L 274.221068 -274.617227 
L 274.166474 -272.535131 
L 274.105115 -270.453036 
L 274.037632 -268.37094 
L 273.964717 -266.288844 
L 273.887097 -264.206748 
L 273.805526 -262.124652 
L 273.72077 -260.042557 
L 273.6336 -257.960461 
L 273.544775 -255.878365 
L 273.455034 -253.796269 
L 273.365089 -251.714174 
L 273.275612 -249.632078 
L 273.187233 -247.549982 
L 273.100528 -245.467886 
L 273.016022 -243.385791 
L 272.934179 -241.303695 
L 272.855404 -239.221599 
L 272.780045 -237.139503 
L 272.708387 -235.057408 
L 272.640662 -232.975312 
L 272.577048 -230.893216 
L 272.517673 -228.81112 
L 272.462622 -226.729025 
L 272.411944 -224.646929 
L 272.365655 -222.564833 
L 272.323745 -220.482737 
L 272.286189 -218.400642 
L 272.252951 -216.318546 
L 272.223991 -214.23645 
L 272.199277 -212.154354 
L 272.178785 -210.072258 
L 272.162515 -207.990163 
L 272.150491 -205.908067 
L 272.142771 -203.825971 
L 272.139454 -201.743875 
L 272.140684 -199.66178 
L 272.146662 -197.579684 
L 272.157644 -195.497588 
L 272.173951 -193.415492 
L 272.195974 -191.333397 
L 272.224177 -189.251301 
L 272.259102 -187.169205 
L 272.301369 -185.087109 
L 272.351684 -183.005014 
L 272.410836 -180.922918 
L 272.479695 -178.840822 
L 272.55922 -176.758726 
L 272.650445 -174.676631 
L 272.754485 -172.594535 
L 272.872521 -170.512439 
L 273.005798 -168.430343 
L 273.155613 -166.348248 
L 273.323301 -164.266152 
L 273.51022 -162.184056 
L 273.717733 -160.10196 
L 273.947189 -158.019864 
L 274.199896 -155.937769 
L 274.477099 -153.855673 
L 274.779948 -151.773577 
L 275.109472 -149.691481 
L 275.466541 -147.609386 
L 275.851839 -145.52729 
L 276.265825 -143.445194 
L 276.708699 -141.363098 
L 277.180373 -139.281003 
L 277.680433 -137.198907 
L 278.208114 -135.116811 
L 278.76227 -133.034715 
L 279.341356 -130.95262 
L 279.943407 -128.870524 
L 280.566031 -126.788428 
L 281.206403 -124.706332 
L 281.86127 -122.624237 
L 282.526965 -120.542141 
L 283.199423 -118.460045 
L 283.874219 -116.377949 
L 284.5466 -114.295854 
L 285.211537 -112.213758 
L 285.863783 -110.131662 
L 286.49793 -108.049566 
L 287.108489 -105.96747 
L 287.689959 -103.885375 
L 288.236912 -101.803279 
L 288.744073 -99.721183 
L 289.206406 -97.639087 
L 289.619195 -95.556992 
L 289.978124 -93.474896 
L 290.279354 -91.3928 
L 290.519587 -89.310704 
L 290.696132 -87.228609 
L 290.806948 -85.146513 
L 290.85069 -83.064417 
L 290.82673 -80.982321 
z
" style="stroke: #333333; stroke-opacity: 0.33"/>
    </defs>
    <g clip-path="url(#p615b5548d5)">
     <use xlink:href="#ma6458b83a2" x="0" y="331.2" style="fill: #009e73; fill-opacity: 0.33; stroke: #333333; stroke-opacity: 0.33"/>
    </g>
   </g>
   <g id="PolyCollection_5">
    <defs>
     <path id="m0d645135bf" d="M 349.900455 -80.982321 
L 312.108605 -80.982321 
L 312.117382 -81.676353 
L 312.190985 -82.370385 
L 312.328226 -83.064417 
L 312.527222 -83.758449 
L 312.785439 -84.452481 
L 313.099736 -85.146513 
L 313.466421 -85.840545 
L 313.881321 -86.534577 
L 314.339855 -87.228609 
L 314.837116 -87.922641 
L 315.367951 -88.616672 
L 315.927052 -89.310704 
L 316.509038 -90.004736 
L 317.108542 -90.698768 
L 317.720289 -91.3928 
L 318.33917 -92.086832 
L 318.960314 -92.780864 
L 319.579145 -93.474896 
L 320.191432 -94.168928 
L 320.793332 -94.86296 
L 321.381425 -95.556992 
L 321.952728 -96.251024 
L 322.504713 -96.945056 
L 323.035307 -97.639087 
L 323.542883 -98.333119 
L 324.026251 -99.027151 
L 324.484627 -99.721183 
L 324.917613 -100.415215 
L 325.32516 -101.109247 
L 325.707531 -101.803279 
L 326.065261 -102.497311 
L 326.399119 -103.191343 
L 326.71006 -103.885375 
L 326.999193 -104.579407 
L 327.267733 -105.273439 
L 327.516967 -105.96747 
L 327.748222 -106.661502 
L 327.962829 -107.355534 
L 328.162099 -108.049566 
L 328.347297 -108.743598 
L 328.519627 -109.43763 
L 328.68021 -110.131662 
L 328.830077 -110.825694 
L 328.970158 -111.519726 
L 329.10128 -112.213758 
L 329.224163 -112.90779 
L 329.339424 -113.601822 
L 329.447575 -114.295854 
L 329.549033 -114.989885 
L 329.644125 -115.683917 
L 329.733094 -116.377949 
L 329.816109 -117.071981 
L 329.893275 -117.766013 
L 329.964639 -118.460045 
L 330.0302 -119.154077 
L 330.089919 -119.848109 
L 330.143727 -120.542141 
L 330.191529 -121.236173 
L 330.233218 -121.930205 
L 330.268678 -122.624237 
L 330.297788 -123.318268 
L 330.320434 -124.0123 
L 330.336508 -124.706332 
L 330.345919 -125.400364 
L 330.348591 -126.094396 
L 330.344474 -126.788428 
L 330.333545 -127.48246 
L 330.315812 -128.176492 
L 330.291318 -128.870524 
L 330.260145 -129.564556 
L 330.222418 -130.258588 
L 330.178308 -130.95262 
L 330.128034 -131.646652 
L 330.071867 -132.340683 
L 330.010132 -133.034715 
L 329.943206 -133.728747 
L 329.871526 -134.422779 
L 329.795582 -135.116811 
L 329.715918 -135.810843 
L 329.633135 -136.504875 
L 329.54788 -137.198907 
L 329.460848 -137.892939 
L 329.372776 -138.586971 
L 329.284433 -139.281003 
L 329.196619 -139.975035 
L 329.110149 -140.669066 
L 329.025852 -141.363098 
L 328.944555 -142.05713 
L 328.867074 -142.751162 
L 328.794204 -143.445194 
L 328.726708 -144.139226 
L 328.665304 -144.833258 
L 328.610657 -145.52729 
L 328.563368 -146.221322 
L 328.523962 -146.915354 
L 328.492885 -147.609386 
L 328.470492 -148.303418 
L 328.457044 -148.99745 
L 328.452703 -149.691481 
L 333.556357 -149.691481 
L 333.556357 -149.691481 
L 333.552016 -148.99745 
L 333.538567 -148.303418 
L 333.516174 -147.609386 
L 333.485097 -146.915354 
L 333.445692 -146.221322 
L 333.398402 -145.52729 
L 333.343756 -144.833258 
L 333.282352 -144.139226 
L 333.214856 -143.445194 
L 333.141986 -142.751162 
L 333.064504 -142.05713 
L 332.983207 -141.363098 
L 332.89891 -140.669066 
L 332.812441 -139.975035 
L 332.724627 -139.281003 
L 332.636284 -138.586971 
L 332.548212 -137.892939 
L 332.46118 -137.198907 
L 332.375925 -136.504875 
L 332.293141 -135.810843 
L 332.213478 -135.116811 
L 332.137533 -134.422779 
L 332.065853 -133.728747 
L 331.998928 -133.034715 
L 331.937192 -132.340683 
L 331.881025 -131.646652 
L 331.830752 -130.95262 
L 331.786642 -130.258588 
L 331.748915 -129.564556 
L 331.717742 -128.870524 
L 331.693247 -128.176492 
L 331.675514 -127.48246 
L 331.664585 -126.788428 
L 331.660468 -126.094396 
L 331.663141 -125.400364 
L 331.672551 -124.706332 
L 331.688625 -124.0123 
L 331.711271 -123.318268 
L 331.740382 -122.624237 
L 331.775841 -121.930205 
L 331.817531 -121.236173 
L 331.865333 -120.542141 
L 331.91914 -119.848109 
L 331.978859 -119.154077 
L 332.04442 -118.460045 
L 332.115784 -117.766013 
L 332.19295 -117.071981 
L 332.275966 -116.377949 
L 332.364935 -115.683917 
L 332.460026 -114.989885 
L 332.561485 -114.295854 
L 332.669636 -113.601822 
L 332.784896 -112.90779 
L 332.90778 -112.213758 
L 333.038902 -111.519726 
L 333.178983 -110.825694 
L 333.328849 -110.131662 
L 333.489432 -109.43763 
L 333.661762 -108.743598 
L 333.846961 -108.049566 
L 334.046231 -107.355534 
L 334.260838 -106.661502 
L 334.492092 -105.96747 
L 334.741327 -105.273439 
L 335.009866 -104.579407 
L 335.298999 -103.885375 
L 335.609941 -103.191343 
L 335.943798 -102.497311 
L 336.301529 -101.803279 
L 336.683899 -101.109247 
L 337.091446 -100.415215 
L 337.524433 -99.721183 
L 337.982809 -99.027151 
L 338.466176 -98.333119 
L 338.973753 -97.639087 
L 339.504347 -96.945056 
L 340.056332 -96.251024 
L 340.627635 -95.556992 
L 341.215727 -94.86296 
L 341.817628 -94.168928 
L 342.429915 -93.474896 
L 343.048745 -92.780864 
L 343.669889 -92.086832 
L 344.288771 -91.3928 
L 344.900517 -90.698768 
L 345.500021 -90.004736 
L 346.082008 -89.310704 
L 346.641108 -88.616672 
L 347.171944 -87.922641 
L 347.669204 -87.228609 
L 348.127739 -86.534577 
L 348.542639 -85.840545 
L 348.909324 -85.146513 
L 349.223621 -84.452481 
L 349.481838 -83.758449 
L 349.680834 -83.064417 
L 349.818074 -82.370385 
L 349.891678 -81.676353 
L 349.900455 -80.982321 
z
" style="stroke: #333333; stroke-opacity: 0.33"/>
    </defs>
    <g clip-path="url(#p615b5548d5)">
     <use xlink:href="#m0d645135bf" x="0" y="331.2" style="fill: #e69f00; fill-opacity: 0.33; stroke: #333333; stroke-opacity: 0.33"/>
    </g>
   </g>
   <g id="PathCollection_1">
    <defs>
     <path id="C0_0_084e96ded0" d="M 0 2.828427 
C 0.750108 2.828427 1.469594 2.530406 2 2 
C 2.530406 1.469594 2.828427 0.750108 2.828427 -0 
C 2.828427 -0.750108 2.530406 -1.469594 2 -2 
C 1.469594 -2.530406 0.750108 -2.828427 0 -2.828427 
C -0.750108 -2.828427 -1.469594 -2.530406 -2 -2 
C -2.530406 -1.469594 -2.828427 -0.750108 -2.828427 0 
C -2.828427 0.750108 -2.530406 1.469594 -2 2 
C -1.469594 2.530406 -0.750108 2.828427 0 2.828427 
z
"/>
    </defs>
    <g clip-path="url(#p615b5548d5)">
     <use xlink:href="#C0_0_084e96ded0" x="95.483025" y="250.217679" style="fill: #0072b2; fill-opacity: 0.45"/>
    </g>
    <g clip-path="url(#p615b5548d5)">
     <use xlink:href="#C0_0_084e96ded0" x="93.564458" y="250.217679" style="fill: #0072b2; fill-opacity: 0.45"/>
    </g>
    <g clip-path="url(#p615b5548d5)">
     <use xlink:href="#C0_0_084e96ded0" x="96.855842" y="250.217679" style="fill: #0072b2; fill-opacity: 0.45"/>
    </g>
    <g clip-path="url(#p615b5548d5)">
     <use xlink:href="#C0_0_084e96ded0" x="92.745644" y="250.217679" style="fill: #0072b2; fill-opacity: 0.45"/>
    </g>
    <g clip-path="url(#p615b5548d5)">
     <use xlink:href="#C0_0_084e96ded0" x="96.325251" y="250.217679" style="fill: #0072b2; fill-opacity: 0.45"/>
    </g>
    <g clip-path="url(#p615b5548d5)">
     <use xlink:href="#C0_0_084e96ded0" x="92.584111" y="250.217679" style="fill: #0072b2; fill-opacity: 0.45"/>
    </g>
    <g clip-path="url(#p615b5548d5)">
     <use xlink:href="#C0_0_084e96ded0" x="96.066666" y="250.217679" style="fill: #0072b2; fill-opacity: 0.45"/>
    </g>
    <g clip-path="url(#p615b5548d5)">
     <use xlink:href="#C0_0_084e96ded0" x="92.205514" y="250.217679" style="fill: #0072b2; fill-opacity: 0.45"/>
    </g>
    <g clip-path="url(#p615b5548d5)">
     <use xlink:href="#C0_0_084e96ded0" x="98.322919" y="250.217679" style="fill: #0072b2; fill-opacity: 0.45"/>
    </g>
    <g clip-path="url(#p615b5548d5)">
     <use xlink:href="#C0_0_084e96ded0" x="95.406142" y="250.217679" style="fill: #0072b2; fill-opacity: 0.45"/>
    </g>
    <g clip-path="url(#p615b5548d5)">
     <use xlink:href="#C0_0_084e96ded0" x="98.189908" y="250.217679" style="fill: #0072b2; fill-opacity: 0.45"/>
    </g>
    <g clip-path="url(#p615b5548d5)">
     <use xlink:href="#C0_0_084e96ded0" x="92.862861" y="250.217679" style="fill: #0072b2; fill-opacity: 0.45"/>
    </g>
    <g clip-path="url(#p615b5548d5)">
     <use xlink:href="#C0_0_084e96ded0" x="93.680921" y="250.217679" style="fill: #0072b2; fill-opacity: 0.45"/>
    </g>
    <g clip-path="url(#p615b5548d5)">
     <use xlink:href="#C0_0_084e96ded0" x="96.788751" y="250.217679" style="fill: #0072b2; fill-opacity: 0.45"/>
    </g>
    <g clip-path="url(#p615b5548d5)">
     <use xlink:href="#C0_0_084e96ded0" x="88.324836" y="250.217679" style="fill: #0072b2; fill-opacity: 0.45"/>
    </g>
    <g clip-path="url(#p615b5548d5)">
     <use xlink:href="#C0_0_084e96ded0" x="92.28572" y="250.217679" style="fill: #0072b2; fill-opacity: 0.45"/>
    </g>
    <g clip-path="url(#p615b5548d5)">
     <use xlink:href="#C0_0_084e96ded0" x="97.245824" y="250.217679" style="fill: #0072b2; fill-opacity: 0.45"/>
    </g>
    <g clip-path="url(#p615b5548d5)">
     <use xlink:href="#C0_0_084e96ded0" x="95.904054" y="250.217679" style="fill: #0072b2; fill-opacity: 0.45"/>
    </g>
    <g clip-path="url(#p615b5548d5)">
     <use xlink:href="#C0_0_084e96ded0" x="97.117314" y="250.217679" style="fill: #0072b2; fill-opacity: 0.45"/>
    </g>
    <g clip-path="url(#p615b5548d5)">
     <use xlink:href="#C0_0_084e96ded0" x="94.073818" y="250.217679" style="fill: #0072b2; fill-opacity: 0.45"/>
    </g>
    <g clip-path="url(#p615b5548d5)">
     <use xlink:href="#C0_0_084e96ded0" x="96.137631" y="250.217679" style="fill: #0072b2; fill-opacity: 0.45"/>
    </g>
    <g clip-path="url(#p615b5548d5)">
     <use xlink:href="#C0_0_084e96ded0" x="93.079223" y="250.217679" style="fill: #0072b2; fill-opacity: 0.45"/>
    </g>
    <g clip-path="url(#p615b5548d5)">
     <use xlink:href="#C0_0_084e96ded0" x="91.564913" y="250.217679" style="fill: #0072b2; fill-opacity: 0.45"/>
    </g>
    <g clip-path="url(#p615b5548d5)">
     <use xlink:href="#C0_0_084e96ded0" x="90.80238" y="250.217679" style="fill: #0072b2; fill-opacity: 0.45"/>
    </g>
    <g clip-path="url(#p615b5548d5)">
     <use xlink:href="#C0_0_084e96ded0" x="93.502337" y="250.217679" style="fill: #0072b2; fill-opacity: 0.45"/>
    </g>
    <g clip-path="url(#p615b5548d5)">
     <use xlink:href="#C0_0_084e96ded0" x="93.508876" y="250.217679" style="fill: #0072b2; fill-opacity: 0.45"/>
    </g>
    <g clip-path="url(#p615b5548d5)">
     <use xlink:href="#C0_0_084e96ded0" x="93.318887" y="250.217679" style="fill: #0072b2; fill-opacity: 0.45"/>
    </g>
   </g>
   <g id="PathCollection_2">
    <defs>
     <path id="C1_0_dfba14a354" d="M 0 2.828427 
C 0.750108 2.828427 1.469594 2.530406 2 2 
C 2.530406 1.469594 2.828427 0.750108 2.828427 -0 
C 2.828427 -0.750108 2.530406 -1.469594 2 -2 
C 1.469594 -2.530406 0.750108 -2.828427 0 -2.828427 
C -0.750108 -2.828427 -1.469594 -2.530406 -2 -2 
C -2.530406 -1.469594 -2.828427 -0.750108 -2.828427 0 
C -2.828427 0.750108 -2.530406 1.469594 -2 2 
C -1.469594 2.530406 -0.750108 2.828427 0 2.828427 
z
"/>
    </defs>
    <g clip-path="url(#p615b5548d5)">
     <use xlink:href="#C1_0_dfba14a354" x="145.472991" y="250.217679" style="fill: #56b4e9; fill-opacity: 0.45"/>
    </g>
    <g clip-path="url(#p615b5548d5)">
     <use xlink:href="#C1_0_dfba14a354" x="149.134552" y="250.217679" style="fill: #56b4e9; fill-opacity: 0.45"/>
    </g>
    <g clip-path="url(#p615b5548d5)">
     <use xlink:href="#C1_0_dfba14a354" x="152.597162" y="250.217679" style="fill: #56b4e9; fill-opacity: 0.45"/>
    </g>
    <g clip-path="url(#p615b5548d5)">
     <use xlink:href="#C1_0_dfba14a354" x="154.533166" y="250.217679" style="fill: #56b4e9; fill-opacity: 0.45"/>
    </g>
    <g clip-path="url(#p615b5548d5)">
     <use xlink:href="#C1_0_dfba14a354" x="152.488132" y="250.217679" style="fill: #56b4e9; fill-opacity: 0.45"/>
    </g>
    <g clip-path="url(#p615b5548d5)">
     <use xlink:href="#C1_0_dfba14a354" x="151.784012" y="250.217679" style="fill: #56b4e9; fill-opacity: 0.45"/>
    </g>
    <g clip-path="url(#p615b5548d5)">
     <use xlink:href="#C1_0_dfba14a354" x="148.402643" y="250.217679" style="fill: #56b4e9; fill-opacity: 0.45"/>
    </g>
    <g clip-path="url(#p615b5548d5)">
     <use xlink:href="#C1_0_dfba14a354" x="158.629997" y="250.217679" style="fill: #56b4e9; fill-opacity: 0.45"/>
    </g>
    <g clip-path="url(#p615b5548d5)">
     <use xlink:href="#C1_0_dfba14a354" x="151.254421" y="250.217679" style="fill: #56b4e9; fill-opacity: 0.45"/>
    </g>
    <g clip-path="url(#p615b5548d5)">
     <use xlink:href="#C1_0_dfba14a354" x="157.831402" y="250.217679" style="fill: #56b4e9; fill-opacity: 0.45"/>
    </g>
    <g clip-path="url(#p615b5548d5)">
     <use xlink:href="#C1_0_dfba14a354" x="157.541561" y="250.217679" style="fill: #56b4e9; fill-opacity: 0.45"/>
    </g>
    <g clip-path="url(#p615b5548d5)">
     <use xlink:href="#C1_0_dfba14a354" x="154.502253" y="250.217679" style="fill: #56b4e9; fill-opacity: 0.45"/>
    </g>
    <g clip-path="url(#p615b5548d5)">
     <use xlink:href="#C1_0_dfba14a354" x="152.502737" y="250.217679" style="fill: #56b4e9; fill-opacity: 0.45"/>
    </g>
    <g clip-path="url(#p615b5548d5)">
     <use xlink:href="#C1_0_dfba14a354" x="154.167527" y="250.217679" style="fill: #56b4e9; fill-opacity: 0.45"/>
    </g>
    <g clip-path="url(#p615b5548d5)">
     <use xlink:href="#C1_0_dfba14a354" x="151.131761" y="250.217679" style="fill: #56b4e9; fill-opacity: 0.45"/>
    </g>
    <g clip-path="url(#p615b5548d5)">
     <use xlink:href="#C1_0_dfba14a354" x="154.471077" y="250.217679" style="fill: #56b4e9; fill-opacity: 0.45"/>
    </g>
    <g clip-path="url(#p615b5548d5)">
     <use xlink:href="#C1_0_dfba14a354" x="153.862208" y="250.217679" style="fill: #56b4e9; fill-opacity: 0.45"/>
    </g>
    <g clip-path="url(#p615b5548d5)">
     <use xlink:href="#C1_0_dfba14a354" x="155.111739" y="250.217679" style="fill: #56b4e9; fill-opacity: 0.45"/>
    </g>
    <g clip-path="url(#p615b5548d5)">
     <use xlink:href="#C1_0_dfba14a354" x="156.100158" y="250.217679" style="fill: #56b4e9; fill-opacity: 0.45"/>
    </g>
    <g clip-path="url(#p615b5548d5)">
     <use xlink:href="#C1_0_dfba14a354" x="157.948183" y="250.217679" style="fill: #56b4e9; fill-opacity: 0.45"/>
    </g>
    <g clip-path="url(#p615b5548d5)">
     <use xlink:href="#C1_0_dfba14a354" x="152.938037" y="250.217679" style="fill: #56b4e9; fill-opacity: 0.45"/>
    </g>
    <g clip-path="url(#p615b5548d5)">
     <use xlink:href="#C1_0_dfba14a354" x="156.319709" y="250.217679" style="fill: #56b4e9; fill-opacity: 0.45"/>
    </g>
    <g clip-path="url(#p615b5548d5)">
     <use xlink:href="#C1_0_dfba14a354" x="151.985319" y="250.217679" style="fill: #56b4e9; fill-opacity: 0.45"/>
    </g>
    <g clip-path="url(#p615b5548d5)">
     <use xlink:href="#C1_0_dfba14a354" x="151.742281" y="250.217679" style="fill: #56b4e9; fill-opacity: 0.45"/>
    </g>
    <g clip-path="url(#p615b5548d5)">
     <use xlink:href="#C1_0_dfba14a354" x="152.395392" y="250.217679" style="fill: #56b4e9; fill-opacity: 0.45"/>
    </g>
    <g clip-path="url(#p615b5548d5)">
     <use xlink:href="#C1_0_dfba14a354" x="151.535841" y="250.217679" style="fill: #56b4e9; fill-opacity: 0.45"/>
    </g>
    <g clip-path="url(#p615b5548d5)">
     <use xlink:href="#C1_0_dfba14a354" x="156.17061" y="250.217679" style="fill: #56b4e9; fill-opacity: 0.45"/>
    </g>
   </g>
   <g id="PathCollection_3">
    <defs>
     <path id="C2_0_49bf34ca37" d="M 0 2.828427 
C 0.750108 2.828427 1.469594 2.530406 2 2 
C 2.530406 1.469594 2.828427 0.750108 2.828427 -0 
C 2.828427 -0.750108 2.530406 -1.469594 2 -2 
C 1.469594 -2.530406 0.750108 -2.828427 0 -2.828427 
C -0.750108 -2.828427 -1.469594 -2.530406 -2 -2 
C -2.530406 -1.469594 -2.828427 -0.750108 -2.828427 0 
C -2.828427 0.750108 -2.530406 1.469594 -2 2 
C -1.469594 2.530406 -0.750108 2.828427 0 2.828427 
z
"/>
    </defs>
    <g clip-path="url(#p615b5548d5)">
     <use xlink:href="#C2_0_49bf34ca37" x="215.085687" y="149.796599" style="fill: #d55e00; fill-opacity: 0.45"/>
    </g>
    <g clip-path="url(#p615b5548d5)">
     <use xlink:href="#C2_0_49bf34ca37" x="215.910188" y="219.134963" style="fill: #d55e00; fill-opacity: 0.45"/>
    </g>
    <g clip-path="url(#p615b5548d5)">
     <use xlink:href="#C2_0_49bf34ca37" x="212.845241" y="219.134963" style="fill: #d55e00; fill-opacity: 0.45"/>
    </g>
    <g clip-path="url(#p615b5548d5)">
     <use xlink:href="#C2_0_49bf34ca37" x="213.553087" y="219.134963" style="fill: #d55e00; fill-opacity: 0.45"/>
    </g>
    <g clip-path="url(#p615b5548d5)">
     <use xlink:href="#C2_0_49bf34ca37" x="211.538761" y="191.937587" style="fill: #d55e00; fill-opacity: 0.45"/>
    </g>
    <g clip-path="url(#p615b5548d5)">
     <use xlink:href="#C2_0_49bf34ca37" x="210.18644" y="250.217679" style="fill: #d55e00; fill-opacity: 0.45"/>
    </g>
    <g clip-path="url(#p615b5548d5)">
     <use xlink:href="#C2_0_49bf34ca37" x="213.960853" y="250.217679" style="fill: #d55e00; fill-opacity: 0.45"/>
    </g>
    <g clip-path="url(#p615b5548d5)">
     <use xlink:href="#C2_0_49bf34ca37" x="213.538895" y="217.580828" style="fill: #d55e00; fill-opacity: 0.45"/>
    </g>
    <g clip-path="url(#p615b5548d5)">
     <use xlink:href="#C2_0_49bf34ca37" x="210.290245" y="217.580828" style="fill: #d55e00; fill-opacity: 0.45"/>
    </g>
    <g clip-path="url(#p615b5548d5)">
     <use xlink:href="#C2_0_49bf34ca37" x="214.28755" y="217.580828" style="fill: #d55e00; fill-opacity: 0.45"/>
    </g>
    <g clip-path="url(#p615b5548d5)">
     <use xlink:href="#C2_0_49bf34ca37" x="208.791056" y="217.580828" style="fill: #d55e00; fill-opacity: 0.45"/>
    </g>
    <g clip-path="url(#p615b5548d5)">
     <use xlink:href="#C2_0_49bf34ca37" x="212.482207" y="219.134963" style="fill: #d55e00; fill-opacity: 0.45"/>
    </g>
    <g clip-path="url(#p615b5548d5)">
     <use xlink:href="#C2_0_49bf34ca37" x="211.416205" y="219.134963" style="fill: #d55e00; fill-opacity: 0.45"/>
    </g>
    <g clip-path="url(#p615b5548d5)">
     <use xlink:href="#C2_0_49bf34ca37" x="211.654855" y="219.134963" style="fill: #d55e00; fill-opacity: 0.45"/>
    </g>
    <g clip-path="url(#p615b5548d5)">
     <use xlink:href="#C2_0_49bf34ca37" x="210.345883" y="219.134963" style="fill: #d55e00; fill-opacity: 0.45"/>
    </g>
    <g clip-path="url(#p615b5548d5)">
     <use xlink:href="#C2_0_49bf34ca37" x="215.154782" y="219.134963" style="fill: #d55e00; fill-opacity: 0.45"/>
    </g>
    <g clip-path="url(#p615b5548d5)">
     <use xlink:href="#C2_0_49bf34ca37" x="214.241764" y="219.134963" style="fill: #d55e00; fill-opacity: 0.45"/>
    </g>
    <g clip-path="url(#p615b5548d5)">
     <use xlink:href="#C2_0_49bf34ca37" x="215.700228" y="219.134963" style="fill: #d55e00; fill-opacity: 0.45"/>
    </g>
    <g clip-path="url(#p615b5548d5)">
     <use xlink:href="#C2_0_49bf34ca37" x="213.213234" y="219.134963" style="fill: #d55e00; fill-opacity: 0.45"/>
    </g>
    <g clip-path="url(#p615b5548d5)">
     <use xlink:href="#C2_0_49bf34ca37" x="209.839009" y="250.217679" style="fill: #d55e00; fill-opacity: 0.45"/>
    </g>
    <g clip-path="url(#p615b5548d5)">
     <use xlink:href="#C2_0_49bf34ca37" x="212.009802" y="250.217679" style="fill: #d55e00; fill-opacity: 0.45"/>
    </g>
    <g clip-path="url(#p615b5548d5)">
     <use xlink:href="#C2_0_49bf34ca37" x="210.090646" y="181.508519" style="fill: #d55e00; fill-opacity: 0.45"/>
    </g>
    <g clip-path="url(#p615b5548d5)">
     <use xlink:href="#C2_0_49bf34ca37" x="213.960326" y="181.508519" style="fill: #d55e00; fill-opacity: 0.45"/>
    </g>
    <g clip-path="url(#p615b5548d5)">
     <use xlink:href="#C2_0_49bf34ca37" x="215.736332" y="181.508519" style="fill: #d55e00; fill-opacity: 0.45"/>
    </g>
    <g clip-path="url(#p615b5548d5)">
     <use xlink:href="#C2_0_49bf34ca37" x="213.651603" y="250.217679" style="fill: #d55e00; fill-opacity: 0.45"/>
    </g>
    <g clip-path="url(#p615b5548d5)">
     <use xlink:href="#C2_0_49bf34ca37" x="211.458231" y="250.217679" style="fill: #d55e00; fill-opacity: 0.45"/>
    </g>
    <g clip-path="url(#p615b5548d5)">
     <use xlink:href="#C2_0_49bf34ca37" x="211.999585" y="250.217679" style="fill: #d55e00; fill-opacity: 0.45"/>
    </g>
   </g>
   <g id="PathCollection_4">
    <defs>
     <path id="C3_0_cf68c7c03f" d="M 0 2.828427 
C 0.750108 2.828427 1.469594 2.530406 2 2 
C 2.530406 1.469594 2.828427 0.750108 2.828427 -0 
C 2.828427 -0.750108 2.530406 -1.469594 2 -2 
C 1.469594 -2.530406 0.750108 -2.828427 0 -2.828427 
C -0.750108 -2.828427 -1.469594 -2.530406 -2 -2 
C -2.530406 -1.469594 -2.828427 -0.750108 -2.828427 0 
C -2.828427 0.750108 -2.530406 1.469594 -2 2 
C -1.469594 2.530406 -0.750108 2.828427 0 2.828427 
z
"/>
    </defs>
    <g clip-path="url(#p615b5548d5)">
     <use xlink:href="#C3_0_cf68c7c03f" x="272.404606" y="225.112409" style="fill: #009e73; fill-opacity: 0.45"/>
    </g>
    <g clip-path="url(#p615b5548d5)">
     <use xlink:href="#C3_0_cf68c7c03f" x="268.505414" y="250.217679" style="fill: #009e73; fill-opacity: 0.45"/>
    </g>
    <g clip-path="url(#p615b5548d5)">
     <use xlink:href="#C3_0_cf68c7c03f" x="272.272694" y="250.217679" style="fill: #009e73; fill-opacity: 0.45"/>
    </g>
    <g clip-path="url(#p615b5548d5)">
     <use xlink:href="#C3_0_cf68c7c03f" x="272.388185" y="250.217679" style="fill: #009e73; fill-opacity: 0.45"/>
    </g>
    <g clip-path="url(#p615b5548d5)">
     <use xlink:href="#C3_0_cf68c7c03f" x="270.631476" y="215.249624" style="fill: #009e73; fill-opacity: 0.45"/>
    </g>
    <g clip-path="url(#p615b5548d5)">
     <use xlink:href="#C3_0_cf68c7c03f" x="270.929578" y="250.217679" style="fill: #009e73; fill-opacity: 0.45"/>
    </g>
    <g clip-path="url(#p615b5548d5)">
     <use xlink:href="#C3_0_cf68c7c03f" x="272.318144" y="250.217679" style="fill: #009e73; fill-opacity: 0.45"/>
    </g>
    <g clip-path="url(#p615b5548d5)">
     <use xlink:href="#C3_0_cf68c7c03f" x="269.974735" y="250.217679" style="fill: #009e73; fill-opacity: 0.45"/>
    </g>
    <g clip-path="url(#p615b5548d5)">
     <use xlink:href="#C3_0_cf68c7c03f" x="269.9696" y="250.217679" style="fill: #009e73; fill-opacity: 0.45"/>
    </g>
    <g clip-path="url(#p615b5548d5)">
     <use xlink:href="#C3_0_cf68c7c03f" x="273.749809" y="250.217679" style="fill: #009e73; fill-opacity: 0.45"/>
    </g>
    <g clip-path="url(#p615b5548d5)">
     <use xlink:href="#C3_0_cf68c7c03f" x="272.435125" y="250.217679" style="fill: #009e73; fill-opacity: 0.45"/>
    </g>
    <g clip-path="url(#p615b5548d5)">
     <use xlink:href="#C3_0_cf68c7c03f" x="275.872513" y="250.217679" style="fill: #009e73; fill-opacity: 0.45"/>
    </g>
    <g clip-path="url(#p615b5548d5)">
     <use xlink:href="#C3_0_cf68c7c03f" x="269.57393" y="250.217679" style="fill: #009e73; fill-opacity: 0.45"/>
    </g>
    <g clip-path="url(#p615b5548d5)">
     <use xlink:href="#C3_0_cf68c7c03f" x="267.7009" y="250.217679" style="fill: #009e73; fill-opacity: 0.45"/>
    </g>
    <g clip-path="url(#p615b5548d5)">
     <use xlink:href="#C3_0_cf68c7c03f" x="274.124912" y="250.217679" style="fill: #009e73; fill-opacity: 0.45"/>
    </g>
    <g clip-path="url(#p615b5548d5)">
     <use xlink:href="#C3_0_cf68c7c03f" x="274.161205" y="250.217679" style="fill: #009e73; fill-opacity: 0.45"/>
    </g>
    <g clip-path="url(#p615b5548d5)">
     <use xlink:href="#C3_0_cf68c7c03f" x="270.154495" y="250.217679" style="fill: #009e73; fill-opacity: 0.45"/>
    </g>
    <g clip-path="url(#p615b5548d5)">
     <use xlink:href="#C3_0_cf68c7c03f" x="268.428651" y="250.217679" style="fill: #009e73; fill-opacity: 0.45"/>
    </g>
    <g clip-path="url(#p615b5548d5)">
     <use xlink:href="#C3_0_cf68c7c03f" x="271.784251" y="250.217679" style="fill: #009e73; fill-opacity: 0.45"/>
    </g>
    <g clip-path="url(#p615b5548d5)">
     <use xlink:href="#C3_0_cf68c7c03f" x="267.755369" y="250.217679" style="fill: #009e73; fill-opacity: 0.45"/>
    </g>
    <g clip-path="url(#p615b5548d5)">
     <use xlink:href="#C3_0_cf68c7c03f" x="271.083274" y="250.217679" style="fill: #009e73; fill-opacity: 0.45"/>
    </g>
    <g clip-path="url(#p615b5548d5)">
     <use xlink:href="#C3_0_cf68c7c03f" x="266.732611" y="44.090198" style="fill: #009e73; fill-opacity: 0.45"/>
    </g>
    <g clip-path="url(#p615b5548d5)">
     <use xlink:href="#C3_0_cf68c7c03f" x="271.32188" y="44.090198" style="fill: #009e73; fill-opacity: 0.45"/>
    </g>
    <g clip-path="url(#p615b5548d5)">
     <use xlink:href="#C3_0_cf68c7c03f" x="266.873296" y="44.090198" style="fill: #009e73; fill-opacity: 0.45"/>
    </g>
    <g clip-path="url(#p615b5548d5)">
     <use xlink:href="#C3_0_cf68c7c03f" x="271.319768" y="250.217679" style="fill: #009e73; fill-opacity: 0.45"/>
    </g>
    <g clip-path="url(#p615b5548d5)">
     <use xlink:href="#C3_0_cf68c7c03f" x="275.461167" y="250.217679" style="fill: #009e73; fill-opacity: 0.45"/>
    </g>
    <g clip-path="url(#p615b5548d5)">
     <use xlink:href="#C3_0_cf68c7c03f" x="271.244526" y="250.217679" style="fill: #009e73; fill-opacity: 0.45"/>
    </g>
   </g>
   <g id="PathCollection_5">
    <defs>
     <path id="C4_0_eae80ec8fc" d="M 0 2.828427 
C 0.750108 2.828427 1.469594 2.530406 2 2 
C 2.530406 1.469594 2.828427 0.750108 2.828427 -0 
C 2.828427 -0.750108 2.530406 -1.469594 2 -2 
C 1.469594 -2.530406 0.750108 -2.828427 0 -2.828427 
C -0.750108 -2.828427 -1.469594 -2.530406 -2 -2 
C -2.530406 -1.469594 -2.828427 -0.750108 -2.828427 0 
C -2.828427 0.750108 -2.530406 1.469594 -2 2 
C -1.469594 2.530406 -0.750108 2.828427 0 2.828427 
z
"/>
    </defs>
    <g clip-path="url(#p615b5548d5)">
     <use xlink:href="#C4_0_eae80ec8fc" x="332.741156" y="225.112409" style="fill: #e69f00; fill-opacity: 0.45"/>
    </g>
    <g clip-path="url(#p615b5548d5)">
     <use xlink:href="#C4_0_eae80ec8fc" x="329.405281" y="250.217679" style="fill: #e69f00; fill-opacity: 0.45"/>
    </g>
    <g clip-path="url(#p615b5548d5)">
     <use xlink:href="#C4_0_eae80ec8fc" x="328.811462" y="250.217679" style="fill: #e69f00; fill-opacity: 0.45"/>
    </g>
    <g clip-path="url(#p615b5548d5)">
     <use xlink:href="#C4_0_eae80ec8fc" x="327.378689" y="250.217679" style="fill: #e69f00; fill-opacity: 0.45"/>
    </g>
    <g clip-path="url(#p615b5548d5)">
     <use xlink:href="#C4_0_eae80ec8fc" x="333.371973" y="226.905642" style="fill: #e69f00; fill-opacity: 0.45"/>
    </g>
    <g clip-path="url(#p615b5548d5)">
     <use xlink:href="#C4_0_eae80ec8fc" x="330.775465" y="250.217679" style="fill: #e69f00; fill-opacity: 0.45"/>
    </g>
    <g clip-path="url(#p615b5548d5)">
     <use xlink:href="#C4_0_eae80ec8fc" x="334.741951" y="250.217679" style="fill: #e69f00; fill-opacity: 0.45"/>
    </g>
    <g clip-path="url(#p615b5548d5)">
     <use xlink:href="#C4_0_eae80ec8fc" x="328.12333" y="250.217679" style="fill: #e69f00; fill-opacity: 0.45"/>
    </g>
    <g clip-path="url(#p615b5548d5)">
     <use xlink:href="#C4_0_eae80ec8fc" x="330.378384" y="250.217679" style="fill: #e69f00; fill-opacity: 0.45"/>
    </g>
    <g clip-path="url(#p615b5548d5)">
     <use xlink:href="#C4_0_eae80ec8fc" x="331.090003" y="250.217679" style="fill: #e69f00; fill-opacity: 0.45"/>
    </g>
    <g clip-path="url(#p615b5548d5)">
     <use xlink:href="#C4_0_eae80ec8fc" x="334.236138" y="250.217679" style="fill: #e69f00; fill-opacity: 0.45"/>
    </g>
    <g clip-path="url(#p615b5548d5)">
     <use xlink:href="#C4_0_eae80ec8fc" x="335.201633" y="250.217679" style="fill: #e69f00; fill-opacity: 0.45"/>
    </g>
    <g clip-path="url(#p615b5548d5)">
     <use xlink:href="#C4_0_eae80ec8fc" x="329.363907" y="250.217679" style="fill: #e69f00; fill-opacity: 0.45"/>
    </g>
    <g clip-path="url(#p615b5548d5)">
     <use xlink:href="#C4_0_eae80ec8fc" x="328.21671" y="250.217679" style="fill: #e69f00; fill-opacity: 0.45"/>
    </g>
    <g clip-path="url(#p615b5548d5)">
     <use xlink:href="#C4_0_eae80ec8fc" x="326.791104" y="250.217679" style="fill: #e69f00; fill-opacity: 0.45"/>
    </g>
    <g clip-path="url(#p615b5548d5)">
     <use xlink:href="#C4_0_eae80ec8fc" x="334.048482" y="250.217679" style="fill: #e69f00; fill-opacity: 0.45"/>
    </g>
    <g clip-path="url(#p615b5548d5)">
     <use xlink:href="#C4_0_eae80ec8fc" x="330.683313" y="250.217679" style="fill: #e69f00; fill-opacity: 0.45"/>
    </g>
    <g clip-path="url(#p615b5548d5)">
     <use xlink:href="#C4_0_eae80ec8fc" x="329.357096" y="250.217679" style="fill: #e69f00; fill-opacity: 0.45"/>
    </g>
    <g clip-path="url(#p615b5548d5)">
     <use xlink:href="#C4_0_eae80ec8fc" x="330.764929" y="250.217679" style="fill: #e69f00; fill-opacity: 0.45"/>
    </g>
    <g clip-path="url(#p615b5548d5)">
     <use xlink:href="#C4_0_eae80ec8fc" x="324.842313" y="250.217679" style="fill: #e69f00; fill-opacity: 0.45"/>
    </g>
    <g clip-path="url(#p615b5548d5)">
     <use xlink:href="#C4_0_eae80ec8fc" x="326.808139" y="250.217679" style="fill: #e69f00; fill-opacity: 0.45"/>
    </g>
    <g clip-path="url(#p615b5548d5)">
     <use xlink:href="#C4_0_eae80ec8fc" x="333.092062" y="181.508519" style="fill: #e69f00; fill-opacity: 0.45"/>
    </g>
    <g clip-path="url(#p615b5548d5)">
     <use xlink:href="#C4_0_eae80ec8fc" x="331.817131" y="181.508519" style="fill: #e69f00; fill-opacity: 0.45"/>
    </g>
    <g clip-path="url(#p615b5548d5)">
     <use xlink:href="#C4_0_eae80ec8fc" x="331.236193" y="181.508519" style="fill: #e69f00; fill-opacity: 0.45"/>
    </g>
    <g clip-path="url(#p615b5548d5)">
     <use xlink:href="#C4_0_eae80ec8fc" x="328.515731" y="250.217679" style="fill: #e69f00; fill-opacity: 0.45"/>
    </g>
    <g clip-path="url(#p615b5548d5)">
     <use xlink:href="#C4_0_eae80ec8fc" x="332.26901" y="250.217679" style="fill: #e69f00; fill-opacity: 0.45"/>
    </g>
    <g clip-path="url(#p615b5548d5)">
     <use xlink:href="#C4_0_eae80ec8fc" x="335.081102" y="250.217679" style="fill: #e69f00; fill-opacity: 0.45"/>
    </g>
   </g>
   <g id="matplotlib.axis_1">
    <g id="xtick_1">
     <g id="line2d_1">
      <defs>
       <path id="med433f2d40" d="M 0 0 
L 0 3.5 
" style="stroke: #000000; stroke-width: 0.8"/>
      </defs>
      <g>
       <use xlink:href="#med433f2d40" x="94.80547" y="250.217679" style="stroke: #000000; stroke-width: 0.8"/>
      </g>
     </g>
     <g id="text_1">
      <!-- DADA2 -->
      <g transform="translate(71.474924 293.443201) rotate(-45) scale(0.12 -0.12)">
       <defs>
        <path id="DejaVuSans-44" d="M 1259 4147 
L 1259 519 
L 2022 519 
Q 2988 519 3436 956 
Q 3884 1394 3884 2338 
Q 3884 3275 3436 3711 
Q 2988 4147 2022 4147 
L 1259 4147 
z
M 628 4666 
L 1925 4666 
Q 3281 4666 3915 4102 
Q 4550 3538 4550 2338 
Q 4550 1131 3912 565 
Q 3275 0 1925 0 
L 628 0 
L 628 4666 
z
" transform="scale(0.015625)"/>
        <path id="DejaVuSans-41" d="M 2188 4044 
L 1331 1722 
L 3047 1722 
L 2188 4044 
z
M 1831 4666 
L 2547 4666 
L 4325 0 
L 3669 0 
L 3244 1197 
L 1141 1197 
L 716 0 
L 50 0 
L 1831 4666 
z
" transform="scale(0.015625)"/>
        <path id="DejaVuSans-32" d="M 1228 531 
L 3431 531 
L 3431 0 
L 469 0 
L 469 531 
Q 828 903 1448 1529 
Q 2069 2156 2228 2338 
Q 2531 2678 2651 2914 
Q 2772 3150 2772 3378 
Q 2772 3750 2511 3984 
Q 2250 4219 1831 4219 
Q 1534 4219 1204 4116 
Q 875 4013 500 3803 
L 500 4441 
Q 881 4594 1212 4672 
Q 1544 4750 1819 4750 
Q 2544 4750 2975 4387 
Q 3406 4025 3406 3419 
Q 3406 3131 3298 2873 
Q 3191 2616 2906 2266 
Q 2828 2175 2409 1742 
Q 1991 1309 1228 531 
z
" transform="scale(0.015625)"/>
       </defs>
       <use xlink:href="#DejaVuSans-44"/>
       <use xlink:href="#DejaVuSans-41" x="75.251953"/>
       <use xlink:href="#DejaVuSans-44" x="143.660156"/>
       <use xlink:href="#DejaVuSans-41" x="218.912109"/>
       <use xlink:href="#DejaVuSans-32" x="287.320312"/>
      </g>
     </g>
    </g>
    <g id="xtick_2">
     <g id="line2d_2">
      <g>
       <use xlink:href="#med433f2d40" x="153.855235" y="250.217679" style="stroke: #000000; stroke-width: 0.8"/>
      </g>
     </g>
     <g id="text_2">
      <!-- UNOISE3 -->
      <g transform="translate(122.414616 301.553274) rotate(-45) scale(0.12 -0.12)">
       <defs>
        <path id="DejaVuSans-55" d="M 556 4666 
L 1191 4666 
L 1191 1831 
Q 1191 1081 1462 751 
Q 1734 422 2344 422 
Q 2950 422 3222 751 
Q 3494 1081 3494 1831 
L 3494 4666 
L 4128 4666 
L 4128 1753 
Q 4128 841 3676 375 
Q 3225 -91 2344 -91 
Q 1459 -91 1007 375 
Q 556 841 556 1753 
L 556 4666 
z
" transform="scale(0.015625)"/>
        <path id="DejaVuSans-4e" d="M 628 4666 
L 1478 4666 
L 3547 763 
L 3547 4666 
L 4159 4666 
L 4159 0 
L 3309 0 
L 1241 3903 
L 1241 0 
L 628 0 
L 628 4666 
z
" transform="scale(0.015625)"/>
        <path id="DejaVuSans-4f" d="M 2522 4238 
Q 1834 4238 1429 3725 
Q 1025 3213 1025 2328 
Q 1025 1447 1429 934 
Q 1834 422 2522 422 
Q 3209 422 3611 934 
Q 4013 1447 4013 2328 
Q 4013 3213 3611 3725 
Q 3209 4238 2522 4238 
z
M 2522 4750 
Q 3503 4750 4090 4092 
Q 4678 3434 4678 2328 
Q 4678 1225 4090 567 
Q 3503 -91 2522 -91 
Q 1538 -91 948 565 
Q 359 1222 359 2328 
Q 359 3434 948 4092 
Q 1538 4750 2522 4750 
z
" transform="scale(0.015625)"/>
        <path id="DejaVuSans-49" d="M 628 4666 
L 1259 4666 
L 1259 0 
L 628 0 
L 628 4666 
z
" transform="scale(0.015625)"/>
        <path id="DejaVuSans-53" d="M 3425 4513 
L 3425 3897 
Q 3066 4069 2747 4153 
Q 2428 4238 2131 4238 
Q 1616 4238 1336 4038 
Q 1056 3838 1056 3469 
Q 1056 3159 1242 3001 
Q 1428 2844 1947 2747 
L 2328 2669 
Q 3034 2534 3370 2195 
Q 3706 1856 3706 1288 
Q 3706 609 3251 259 
Q 2797 -91 1919 -91 
Q 1588 -91 1214 -16 
Q 841 59 441 206 
L 441 856 
Q 825 641 1194 531 
Q 1563 422 1919 422 
Q 2459 422 2753 634 
Q 3047 847 3047 1241 
Q 3047 1584 2836 1778 
Q 2625 1972 2144 2069 
L 1759 2144 
Q 1053 2284 737 2584 
Q 422 2884 422 3419 
Q 422 4038 858 4394 
Q 1294 4750 2059 4750 
Q 2388 4750 2728 4690 
Q 3069 4631 3425 4513 
z
" transform="scale(0.015625)"/>
        <path id="DejaVuSans-45" d="M 628 4666 
L 3578 4666 
L 3578 4134 
L 1259 4134 
L 1259 2753 
L 3481 2753 
L 3481 2222 
L 1259 2222 
L 1259 531 
L 3634 531 
L 3634 0 
L 628 0 
L 628 4666 
z
" transform="scale(0.015625)"/>
        <path id="DejaVuSans-33" d="M 2597 2516 
Q 3050 2419 3304 2112 
Q 3559 1806 3559 1356 
Q 3559 666 3084 287 
Q 2609 -91 1734 -91 
Q 1441 -91 1130 -33 
Q 819 25 488 141 
L 488 750 
Q 750 597 1062 519 
Q 1375 441 1716 441 
Q 2309 441 2620 675 
Q 2931 909 2931 1356 
Q 2931 1769 2642 2001 
Q 2353 2234 1838 2234 
L 1294 2234 
L 1294 2753 
L 1863 2753 
Q 2328 2753 2575 2939 
Q 2822 3125 2822 3475 
Q 2822 3834 2567 4026 
Q 2313 4219 1838 4219 
Q 1578 4219 1281 4162 
Q 984 4106 628 3988 
L 628 4550 
Q 988 4650 1302 4700 
Q 1616 4750 1894 4750 
Q 2613 4750 3031 4423 
Q 3450 4097 3450 3541 
Q 3450 3153 3228 2886 
Q 3006 2619 2597 2516 
z
" transform="scale(0.015625)"/>
       </defs>
       <use xlink:href="#DejaVuSans-55"/>
       <use xlink:href="#DejaVuSans-4e" x="73.193359"/>
       <use xlink:href="#DejaVuSans-4f" x="147.998047"/>
       <use xlink:href="#DejaVuSans-49" x="226.708984"/>
       <use xlink:href="#DejaVuSans-53" x="256.201172"/>
       <use xlink:href="#DejaVuSans-45" x="319.677734"/>
       <use xlink:href="#DejaVuSans-33" x="382.861328"/>
      </g>
     </g>
    </g>
    <g id="xtick_3">
     <g id="line2d_3">
      <g>
       <use xlink:href="#med433f2d40" x="212.905" y="250.217679" style="stroke: #000000; stroke-width: 0.8"/>
      </g>
     </g>
     <g id="text_3">
      <!-- UPARSE -->
      <g transform="translate(186.118027 296.899627) rotate(-45) scale(0.12 -0.12)">
       <defs>
        <path id="DejaVuSans-50" d="M 1259 4147 
L 1259 2394 
L 2053 2394 
Q 2494 2394 2734 2622 
Q 2975 2850 2975 3272 
Q 2975 3691 2734 3919 
Q 2494 4147 2053 4147 
L 1259 4147 
z
M 628 4666 
L 2053 4666 
Q 2838 4666 3239 4311 
Q 3641 3956 3641 3272 
Q 3641 2581 3239 2228 
Q 2838 1875 2053 1875 
L 1259 1875 
L 1259 0 
L 628 0 
L 628 4666 
z
" transform="scale(0.015625)"/>
        <path id="DejaVuSans-52" d="M 2841 2188 
Q 3044 2119 3236 1894 
Q 3428 1669 3622 1275 
L 4263 0 
L 3584 0 
L 2988 1197 
Q 2756 1666 2539 1819 
Q 2322 1972 1947 1972 
L 1259 1972 
L 1259 0 
L 628 0 
L 628 4666 
L 2053 4666 
Q 2853 4666 3247 4331 
Q 3641 3997 3641 3322 
Q 3641 2881 3436 2590 
Q 3231 2300 2841 2188 
z
M 1259 4147 
L 1259 2491 
L 2053 2491 
Q 2509 2491 2742 2702 
Q 2975 2913 2975 3322 
Q 2975 3731 2742 3939 
Q 2509 4147 2053 4147 
L 1259 4147 
z
" transform="scale(0.015625)"/>
       </defs>
       <use xlink:href="#DejaVuSans-55"/>
       <use xlink:href="#DejaVuSans-50" x="73.193359"/>
       <use xlink:href="#DejaVuSans-41" x="127.121094"/>
       <use xlink:href="#DejaVuSans-52" x="195.529297"/>
       <use xlink:href="#DejaVuSans-53" x="265.011719"/>
       <use xlink:href="#DejaVuSans-45" x="328.488281"/>
      </g>
     </g>
    </g>
    <g id="xtick_4">
     <g id="line2d_4">
      <g>
       <use xlink:href="#med433f2d40" x="271.954765" y="250.217679" style="stroke: #000000; stroke-width: 0.8"/>
      </g>
     </g>
     <g id="text_4">
      <!-- TIC -->
      <g transform="translate(264.791331 277.276088) rotate(-45) scale(0.12 -0.12)">
       <defs>
        <path id="DejaVuSans-54" d="M -19 4666 
L 3928 4666 
L 3928 4134 
L 2272 4134 
L 2272 0 
L 1638 0 
L 1638 4134 
L -19 4134 
L -19 4666 
z
" transform="scale(0.015625)"/>
        <path id="DejaVuSans-43" d="M 4122 4306 
L 4122 3641 
Q 3803 3938 3442 4084 
Q 3081 4231 2675 4231 
Q 1875 4231 1450 3742 
Q 1025 3253 1025 2328 
Q 1025 1406 1450 917 
Q 1875 428 2675 428 
Q 3081 428 3442 575 
Q 3803 722 4122 1019 
L 4122 359 
Q 3791 134 3420 21 
Q 3050 -91 2638 -91 
Q 1578 -91 968 557 
Q 359 1206 359 2328 
Q 359 3453 968 4101 
Q 1578 4750 2638 4750 
Q 3056 4750 3426 4639 
Q 3797 4528 4122 4306 
z
" transform="scale(0.015625)"/>
       </defs>
       <use xlink:href="#DejaVuSans-54"/>
       <use xlink:href="#DejaVuSans-49" x="61.083984"/>
       <use xlink:href="#DejaVuSans-43" x="90.576172"/>
      </g>
     </g>
    </g>
    <g id="xtick_5">
     <g id="line2d_5">
      <g>
       <use xlink:href="#med433f2d40" x="331.00453" y="250.217679" style="stroke: #000000; stroke-width: 0.8"/>
      </g>
     </g>
     <g id="text_5">
      <!-- TAC -->
      <g transform="translate(321.345893 279.771291) rotate(-45) scale(0.12 -0.12)">
       <use xlink:href="#DejaVuSans-54"/>
       <use xlink:href="#DejaVuSans-41" x="53.333984"/>
       <use xlink:href="#DejaVuSans-43" x="119.992188"/>
      </g>
     </g>
    </g>
    <g id="text_6">
     <!-- Method -->
     <g transform="translate(186.650625 317.95576) scale(0.14 -0.14)">
      <defs>
       <path id="DejaVuSans-4d" d="M 628 4666 
L 1569 4666 
L 2759 1491 
L 3956 4666 
L 4897 4666 
L 4897 0 
L 4281 0 
L 4281 4097 
L 3078 897 
L 2444 897 
L 1241 4097 
L 1241 0 
L 628 0 
L 628 4666 
z
" transform="scale(0.015625)"/>
       <path id="DejaVuSans-65" d="M 3597 1894 
L 3597 1613 
L 953 1613 
Q 991 1019 1311 708 
Q 1631 397 2203 397 
Q 2534 397 2845 478 
Q 3156 559 3463 722 
L 3463 178 
Q 3153 47 2828 -22 
Q 2503 -91 2169 -91 
Q 1331 -91 842 396 
Q 353 884 353 1716 
Q 353 2575 817 3079 
Q 1281 3584 2069 3584 
Q 2775 3584 3186 3129 
Q 3597 2675 3597 1894 
z
M 3022 2063 
Q 3016 2534 2758 2815 
Q 2500 3097 2075 3097 
Q 1594 3097 1305 2825 
Q 1016 2553 972 2059 
L 3022 2063 
z
" transform="scale(0.015625)"/>
       <path id="DejaVuSans-74" d="M 1172 4494 
L 1172 3500 
L 2356 3500 
L 2356 3053 
L 1172 3053 
L 1172 1153 
Q 1172 725 1289 603 
Q 1406 481 1766 481 
L 2356 481 
L 2356 0 
L 1766 0 
Q 1100 0 847 248 
Q 594 497 594 1153 
L 594 3053 
L 172 3053 
L 172 3500 
L 594 3500 
L 594 4494 
L 1172 4494 
z
" transform="scale(0.015625)"/>
       <path id="DejaVuSans-68" d="M 3513 2113 
L 3513 0 
L 2938 0 
L 2938 2094 
Q 2938 2591 2744 2837 
Q 2550 3084 2163 3084 
Q 1697 3084 1428 2787 
Q 1159 2491 1159 1978 
L 1159 0 
L 581 0 
L 581 4863 
L 1159 4863 
L 1159 2956 
Q 1366 3272 1645 3428 
Q 1925 3584 2291 3584 
Q 2894 3584 3203 3211 
Q 3513 2838 3513 2113 
z
" transform="scale(0.015625)"/>
       <path id="DejaVuSans-6f" d="M 1959 3097 
Q 1497 3097 1228 2736 
Q 959 2375 959 1747 
Q 959 1119 1226 758 
Q 1494 397 1959 397 
Q 2419 397 2687 759 
Q 2956 1122 2956 1747 
Q 2956 2369 2687 2733 
Q 2419 3097 1959 3097 
z
M 1959 3584 
Q 2709 3584 3137 3096 
Q 3566 2609 3566 1747 
Q 3566 888 3137 398 
Q 2709 -91 1959 -91 
Q 1206 -91 779 398 
Q 353 888 353 1747 
Q 353 2609 779 3096 
Q 1206 3584 1959 3584 
z
" transform="scale(0.015625)"/>
       <path id="DejaVuSans-64" d="M 2906 2969 
L 2906 4863 
L 3481 4863 
L 3481 0 
L 2906 0 
L 2906 525 
Q 2725 213 2448 61 
Q 2172 -91 1784 -91 
Q 1150 -91 751 415 
Q 353 922 353 1747 
Q 353 2572 751 3078 
Q 1150 3584 1784 3584 
Q 2172 3584 2448 3432 
Q 2725 3281 2906 2969 
z
M 947 1747 
Q 947 1113 1208 752 
Q 1469 391 1925 391 
Q 2381 391 2643 752 
Q 2906 1113 2906 1747 
Q 2906 2381 2643 2742 
Q 2381 3103 1925 3103 
Q 1469 3103 1208 2742 
Q 947 2381 947 1747 
z
" transform="scale(0.015625)"/>
      </defs>
      <use xlink:href="#DejaVuSans-4d"/>
      <use xlink:href="#DejaVuSans-65" x="86.279297"/>
      <use xlink:href="#DejaVuSans-74" x="147.802734"/>
      <use xlink:href="#DejaVuSans-68" x="187.011719"/>
      <use xlink:href="#DejaVuSans-6f" x="250.390625"/>
      <use xlink:href="#DejaVuSans-64" x="311.572266"/>
     </g>
    </g>
   </g>
   <g id="matplotlib.axis_2">
    <g id="ytick_1">
     <g id="line2d_6">
      <path d="M 62.21 250.217679 
L 363.6 250.217679 
" clip-path="url(#p615b5548d5)" style="fill: none; stroke: #b0b0b0; stroke-opacity: 0.25; stroke-width: 0.6; stroke-linecap: square"/>
     </g>
     <g id="line2d_7">
      <defs>
       <path id="m9ce0b14bd6" d="M 0 0 
L -3.5 0 
" style="stroke: #000000; stroke-width: 0.8"/>
      </defs>
      <g>
       <use xlink:href="#m9ce0b14bd6" x="62.21" y="250.217679" style="stroke: #000000; stroke-width: 0.8"/>
      </g>
     </g>
     <g id="text_7">
      <!-- 0.00 -->
      <g transform="translate(28.49125 254.776741) scale(0.12 -0.12)">
       <defs>
        <path id="DejaVuSans-30" d="M 2034 4250 
Q 1547 4250 1301 3770 
Q 1056 3291 1056 2328 
Q 1056 1369 1301 889 
Q 1547 409 2034 409 
Q 2525 409 2770 889 
Q 3016 1369 3016 2328 
Q 3016 3291 2770 3770 
Q 2525 4250 2034 4250 
z
M 2034 4750 
Q 2819 4750 3233 4129 
Q 3647 3509 3647 2328 
Q 3647 1150 3233 529 
Q 2819 -91 2034 -91 
Q 1250 -91 836 529 
Q 422 1150 422 2328 
Q 422 3509 836 4129 
Q 1250 4750 2034 4750 
z
" transform="scale(0.015625)"/>
        <path id="DejaVuSans-2e" d="M 684 794 
L 1344 794 
L 1344 0 
L 684 0 
L 684 794 
z
" transform="scale(0.015625)"/>
       </defs>
       <use xlink:href="#DejaVuSans-30"/>
       <use xlink:href="#DejaVuSans-2e" x="63.623047"/>
       <use xlink:href="#DejaVuSans-30" x="95.410156"/>
       <use xlink:href="#DejaVuSans-30" x="159.033203"/>
      </g>
     </g>
    </g>
    <g id="ytick_2">
     <g id="line2d_8">
      <path d="M 62.21 217.580828 
L 363.6 217.580828 
" clip-path="url(#p615b5548d5)" style="fill: none; stroke: #b0b0b0; stroke-opacity: 0.25; stroke-width: 0.6; stroke-linecap: square"/>
     </g>
     <g id="line2d_9">
      <g>
       <use xlink:href="#m9ce0b14bd6" x="62.21" y="217.580828" style="stroke: #000000; stroke-width: 0.8"/>
      </g>
     </g>
     <g id="text_8">
      <!-- 0.05 -->
      <g transform="translate(28.49125 222.13989) scale(0.12 -0.12)">
       <defs>
        <path id="DejaVuSans-35" d="M 691 4666 
L 3169 4666 
L 3169 4134 
L 1269 4134 
L 1269 2991 
Q 1406 3038 1543 3061 
Q 1681 3084 1819 3084 
Q 2600 3084 3056 2656 
Q 3513 2228 3513 1497 
Q 3513 744 3044 326 
Q 2575 -91 1722 -91 
Q 1428 -91 1123 -41 
Q 819 9 494 109 
L 494 744 
Q 775 591 1075 516 
Q 1375 441 1709 441 
Q 2250 441 2565 725 
Q 2881 1009 2881 1497 
Q 2881 1984 2565 2268 
Q 2250 2553 1709 2553 
Q 1456 2553 1204 2497 
Q 953 2441 691 2322 
L 691 4666 
z
" transform="scale(0.015625)"/>
       </defs>
       <use xlink:href="#DejaVuSans-30"/>
       <use xlink:href="#DejaVuSans-2e" x="63.623047"/>
       <use xlink:href="#DejaVuSans-30" x="95.410156"/>
       <use xlink:href="#DejaVuSans-35" x="159.033203"/>
      </g>
     </g>
    </g>
    <g id="ytick_3">
     <g id="line2d_10">
      <path d="M 62.21 184.943977 
L 363.6 184.943977 
" clip-path="url(#p615b5548d5)" style="fill: none; stroke: #b0b0b0; stroke-opacity: 0.25; stroke-width: 0.6; stroke-linecap: square"/>
     </g>
     <g id="line2d_11">
      <g>
       <use xlink:href="#m9ce0b14bd6" x="62.21" y="184.943977" style="stroke: #000000; stroke-width: 0.8"/>
      </g>
     </g>
     <g id="text_9">
      <!-- 0.10 -->
      <g transform="translate(28.49125 189.503039) scale(0.12 -0.12)">
       <defs>
        <path id="DejaVuSans-31" d="M 794 531 
L 1825 531 
L 1825 4091 
L 703 3866 
L 703 4441 
L 1819 4666 
L 2450 4666 
L 2450 531 
L 3481 531 
L 3481 0 
L 794 0 
L 794 531 
z
" transform="scale(0.015625)"/>
       </defs>
       <use xlink:href="#DejaVuSans-30"/>
       <use xlink:href="#DejaVuSans-2e" x="63.623047"/>
       <use xlink:href="#DejaVuSans-31" x="95.410156"/>
       <use xlink:href="#DejaVuSans-30" x="159.033203"/>
      </g>
     </g>
    </g>
    <g id="ytick_4">
     <g id="line2d_12">
      <path d="M 62.21 152.307126 
L 363.6 152.307126 
" clip-path="url(#p615b5548d5)" style="fill: none; stroke: #b0b0b0; stroke-opacity: 0.25; stroke-width: 0.6; stroke-linecap: square"/>
     </g>
     <g id="line2d_13">
      <g>
       <use xlink:href="#m9ce0b14bd6" x="62.21" y="152.307126" style="stroke: #000000; stroke-width: 0.8"/>
      </g>
     </g>
     <g id="text_10">
      <!-- 0.15 -->
      <g transform="translate(28.49125 156.866188) scale(0.12 -0.12)">
       <use xlink:href="#DejaVuSans-30"/>
       <use xlink:href="#DejaVuSans-2e" x="63.623047"/>
       <use xlink:href="#DejaVuSans-31" x="95.410156"/>
       <use xlink:href="#DejaVuSans-35" x="159.033203"/>
      </g>
     </g>
    </g>
    <g id="ytick_5">
     <g id="line2d_14">
      <path d="M 62.21 119.670274 
L 363.6 119.670274 
" clip-path="url(#p615b5548d5)" style="fill: none; stroke: #b0b0b0; stroke-opacity: 0.25; stroke-width: 0.6; stroke-linecap: square"/>
     </g>
     <g id="line2d_15">
      <g>
       <use xlink:href="#m9ce0b14bd6" x="62.21" y="119.670274" style="stroke: #000000; stroke-width: 0.8"/>
      </g>
     </g>
     <g id="text_11">
      <!-- 0.20 -->
      <g transform="translate(28.49125 124.229337) scale(0.12 -0.12)">
       <use xlink:href="#DejaVuSans-30"/>
       <use xlink:href="#DejaVuSans-2e" x="63.623047"/>
       <use xlink:href="#DejaVuSans-32" x="95.410156"/>
       <use xlink:href="#DejaVuSans-30" x="159.033203"/>
      </g>
     </g>
    </g>
    <g id="ytick_6">
     <g id="line2d_16">
      <path d="M 62.21 87.033423 
L 363.6 87.033423 
" clip-path="url(#p615b5548d5)" style="fill: none; stroke: #b0b0b0; stroke-opacity: 0.25; stroke-width: 0.6; stroke-linecap: square"/>
     </g>
     <g id="line2d_17">
      <g>
       <use xlink:href="#m9ce0b14bd6" x="62.21" y="87.033423" style="stroke: #000000; stroke-width: 0.8"/>
      </g>
     </g>
     <g id="text_12">
      <!-- 0.25 -->
      <g transform="translate(28.49125 91.592486) scale(0.12 -0.12)">
       <use xlink:href="#DejaVuSans-30"/>
       <use xlink:href="#DejaVuSans-2e" x="63.623047"/>
       <use xlink:href="#DejaVuSans-32" x="95.410156"/>
       <use xlink:href="#DejaVuSans-35" x="159.033203"/>
      </g>
     </g>
    </g>
    <g id="ytick_7">
     <g id="line2d_18">
      <path d="M 62.21 54.396572 
L 363.6 54.396572 
" clip-path="url(#p615b5548d5)" style="fill: none; stroke: #b0b0b0; stroke-opacity: 0.25; stroke-width: 0.6; stroke-linecap: square"/>
     </g>
     <g id="line2d_19">
      <g>
       <use xlink:href="#m9ce0b14bd6" x="62.21" y="54.396572" style="stroke: #000000; stroke-width: 0.8"/>
      </g>
     </g>
     <g id="text_13">
      <!-- 0.30 -->
      <g transform="translate(28.49125 58.955635) scale(0.12 -0.12)">
       <use xlink:href="#DejaVuSans-30"/>
       <use xlink:href="#DejaVuSans-2e" x="63.623047"/>
       <use xlink:href="#DejaVuSans-33" x="95.410156"/>
       <use xlink:href="#DejaVuSans-30" x="159.033203"/>
      </g>
     </g>
    </g>
    <g id="text_14">
     <!-- Index -->
     <g transform="translate(21.579688 158.181808) rotate(-90) scale(0.14 -0.14)">
      <defs>
       <path id="DejaVuSans-6e" d="M 3513 2113 
L 3513 0 
L 2938 0 
L 2938 2094 
Q 2938 2591 2744 2837 
Q 2550 3084 2163 3084 
Q 1697 3084 1428 2787 
Q 1159 2491 1159 1978 
L 1159 0 
L 581 0 
L 581 3500 
L 1159 3500 
L 1159 2956 
Q 1366 3272 1645 3428 
Q 1925 3584 2291 3584 
Q 2894 3584 3203 3211 
Q 3513 2838 3513 2113 
z
" transform="scale(0.015625)"/>
       <path id="DejaVuSans-78" d="M 3513 3500 
L 2247 1797 
L 3578 0 
L 2900 0 
L 1881 1375 
L 863 0 
L 184 0 
L 1544 1831 
L 300 3500 
L 978 3500 
L 1906 2253 
L 2834 3500 
L 3513 3500 
z
" transform="scale(0.015625)"/>
      </defs>
      <use xlink:href="#DejaVuSans-49"/>
      <use xlink:href="#DejaVuSans-6e" x="29.492188"/>
      <use xlink:href="#DejaVuSans-64" x="92.871094"/>
      <use xlink:href="#DejaVuSans-65" x="156.347656"/>
      <use xlink:href="#DejaVuSans-78" x="216.121094"/>
     </g>
    </g>
   </g>
   <g id="LineCollection_1">
    <path d="M 85.357508 250.217679 
L 104.253433 250.217679 
" clip-path="url(#p615b5548d5)" style="fill: none; stroke: #111111; stroke-width: 1.2"/>
    <path d="M 144.407273 250.217679 
L 163.303197 250.217679 
" clip-path="url(#p615b5548d5)" style="fill: none; stroke: #111111; stroke-width: 1.2"/>
    <path d="M 203.457038 219.134963 
L 222.352962 219.134963 
" clip-path="url(#p615b5548d5)" style="fill: none; stroke: #111111; stroke-width: 1.2"/>
    <path d="M 262.506803 250.217679 
L 281.402727 250.217679 
" clip-path="url(#p615b5548d5)" style="fill: none; stroke: #111111; stroke-width: 1.2"/>
    <path d="M 321.556567 250.217679 
L 340.452492 250.217679 
" clip-path="url(#p615b5548d5)" style="fill: none; stroke: #111111; stroke-width: 1.2"/>
   </g>
   <g id="patch_3">
    <path d="M 62.21 250.217679 
L 62.21 27.6 
" style="fill: none; stroke: #000000; stroke-width: 0.8; stroke-linejoin: miter; stroke-linecap: square"/>
   </g>
   <g id="patch_4">
    <path d="M 363.6 250.217679 
L 363.6 27.6 
" style="fill: none; stroke: #000000; stroke-width: 0.8; stroke-linejoin: miter; stroke-linecap: square"/>
   </g>
   <g id="patch_5">
    <path d="M 62.21 250.217679 
L 363.6 250.217679 
" style="fill: none; stroke: #000000; stroke-width: 0.8; stroke-linejoin: miter; stroke-linecap: square"/>
   </g>
   <g id="patch_6">
    <path d="M 62.21 27.6 
L 363.6 27.6 
" style="fill: none; stroke: #000000; stroke-width: 0.8; stroke-linejoin: miter; stroke-linecap: square"/>
   </g>
   <g id="text_15">
    <!-- Merge Index -->
    <g transform="translate(169.554219 21.6) scale(0.14 -0.14)">
     <defs>
      <path id="DejaVuSans-72" d="M 2631 2963 
Q 2534 3019 2420 3045 
Q 2306 3072 2169 3072 
Q 1681 3072 1420 2755 
Q 1159 2438 1159 1844 
L 1159 0 
L 581 0 
L 581 3500 
L 1159 3500 
L 1159 2956 
Q 1341 3275 1631 3429 
Q 1922 3584 2338 3584 
Q 2397 3584 2469 3576 
Q 2541 3569 2628 3553 
L 2631 2963 
z
" transform="scale(0.015625)"/>
      <path id="DejaVuSans-67" d="M 2906 1791 
Q 2906 2416 2648 2759 
Q 2391 3103 1925 3103 
Q 1463 3103 1205 2759 
Q 947 2416 947 1791 
Q 947 1169 1205 825 
Q 1463 481 1925 481 
Q 2391 481 2648 825 
Q 2906 1169 2906 1791 
z
M 3481 434 
Q 3481 -459 3084 -895 
Q 2688 -1331 1869 -1331 
Q 1566 -1331 1297 -1286 
Q 1028 -1241 775 -1147 
L 775 -588 
Q 1028 -725 1275 -790 
Q 1522 -856 1778 -856 
Q 2344 -856 2625 -561 
Q 2906 -266 2906 331 
L 2906 616 
Q 2728 306 2450 153 
Q 2172 0 1784 0 
Q 1141 0 747 490 
Q 353 981 353 1791 
Q 353 2603 747 3093 
Q 1141 3584 1784 3584 
Q 2172 3584 2450 3431 
Q 2728 3278 2906 2969 
L 2906 3500 
L 3481 3500 
L 3481 434 
z
" transform="scale(0.015625)"/>
      <path id="DejaVuSans-20" transform="scale(0.015625)"/>
     </defs>
     <use xlink:href="#DejaVuSans-4d"/>
     <use xlink:href="#DejaVuSans-65" x="86.279297"/>
     <use xlink:href="#DejaVuSans-72" x="147.802734"/>
     <use xlink:href="#DejaVuSans-67" x="187.166016"/>
     <use xlink:href="#DejaVuSans-65" x="250.642578"/>
     <use xlink:href="#DejaVuSans-20" x="312.166016"/>
     <use xlink:href="#DejaVuSans-49" x="343.953125"/>
     <use xlink:href="#DejaVuSans-6e" x="373.445312"/>
     <use xlink:href="#DejaVuSans-64" x="436.824219"/>
     <use xlink:href="#DejaVuSans-65" x="500.300781"/>
     <use xlink:href="#DejaVuSans-78" x="560.074219"/>
    </g>
   </g>
   <g id="line2d_20">
    <path d="M 153.855235 125.551779 
L 153.855235 122.880366 
L 212.905 122.880366 
L 212.905 125.551779 
" clip-path="url(#p615b5548d5)" style="fill: none; stroke: #111111; stroke-width: 1.55; stroke-linecap: square"/>
   </g>
   <g id="line2d_21">
    <path d="M 94.80547 98.11415 
L 94.80547 95.442738 
L 212.905 95.442738 
L 212.905 98.11415 
" clip-path="url(#p615b5548d5)" style="fill: none; stroke: #111111; stroke-width: 1.55; stroke-linecap: square"/>
   </g>
   <g id="line2d_22">
    <path d="M 212.905 70.676521 
L 212.905 68.005109 
L 331.00453 68.005109 
L 331.00453 70.676521 
" clip-path="url(#p615b5548d5)" style="fill: none; stroke: #111111; stroke-width: 1.55; stroke-linecap: square"/>
   </g>
   <g id="text_16">
    <!-- *** -->
    <g style="fill: #111111" transform="translate(175.378696 117.642438) scale(0.102 -0.102)">
     <defs>
      <path id="DejaVuSans-Bold-2a" d="M 3219 3803 
L 2188 3263 
L 3219 2719 
L 2981 2278 
L 1941 2853 
L 1941 1778 
L 1409 1778 
L 1409 2853 
L 366 2278 
L 128 2719 
L 1172 3263 
L 128 3803 
L 366 4244 
L 1409 3675 
L 1409 4750 
L 1941 4750 
L 1941 3675 
L 2981 4244 
L 3219 3803 
z
" transform="scale(0.015625)"/>
     </defs>
     <use xlink:href="#DejaVuSans-Bold-2a"/>
     <use xlink:href="#DejaVuSans-Bold-2a" x="52.294922"/>
     <use xlink:href="#DejaVuSans-Bold-2a" x="104.589844"/>
    </g>
   </g>
   <g id="text_17">
    <!-- *** -->
    <g style="fill: #111111" transform="translate(145.853813 90.204809) scale(0.102 -0.102)">
     <use xlink:href="#DejaVuSans-Bold-2a"/>
     <use xlink:href="#DejaVuSans-Bold-2a" x="52.294922"/>
     <use xlink:href="#DejaVuSans-Bold-2a" x="104.589844"/>
    </g>
   </g>
   <g id="text_18">
    <!-- *** -->
    <g style="fill: #111111" transform="translate(263.953343 62.76718) scale(0.102 -0.102)">
     <use xlink:href="#DejaVuSans-Bold-2a"/>
     <use xlink:href="#DejaVuSans-Bold-2a" x="52.294922"/>
     <use xlink:href="#DejaVuSans-Bold-2a" x="104.589844"/>
    </g>
   </g>
  </g>
 </g>
 <defs>
  <clipPath id="p615b5548d5">
   <rect x="62.21" y="27.6" width="301.39" height="222.617679"/>
  </clipPath>
 </defs>
</svg>
